<mxfile host="app.diagrams.net" agent="Mozilla/5.0 (X11; CrOS x86_64 14541.0.0) AppleWebKit/537.36 (KHTML, like Gecko) Chrome/127.0.0.0 Safari/537.36" version="24.7.13">
  <diagram name="Page-1" id="UUuWpek5otx8B_VoN9uZ">
    <mxGraphModel dx="491" dy="1335" grid="1" gridSize="10" guides="1" tooltips="1" connect="1" arrows="1" fold="1" page="1" pageScale="1" pageWidth="850" pageHeight="1100" background="#FF8000" math="0" shadow="0">
      <root>
        <mxCell id="0" />
        <mxCell id="1" parent="0" />
        <mxCell id="Q-JGncLNUPkMsMZSRoyx-6" value="" style="shape=image;verticalLabelPosition=bottom;labelBackgroundColor=default;verticalAlign=top;aspect=fixed;imageAspect=0;image=data:image/png,iVBORw0KGgoAAAANSUhEUgAAAnUAAAGHCAIAAABZJzOMAAAAAXNSR0IArs4c6QAAIABJREFUeJzsvUmwXOl1JnbOP9wpp5f5JrwHFFAo1DywRBVFSmqq1S21TDmkXqgjbC/kjdsRCm+8a3nljbdeemuHHaGFIqzokNWSWwqRJlvNkFSiSBZZEwuFKgyFGe/h5Zx3+IdzvLgvE/kmvHwDSqhifmQgUBd3OPnf//7nP9N3kJlhjjnmmGOOOeY4PXjvxT+1DHPMMcccc8zxJYQ6xjVElOd5r9fb2Nh4+PDhcDg0xszt4DnmmGOOOb6UQEQhRBRFi4uLq6uri4uLSZIodYgCPZp+9d4PBoObN2/euXPns88+u3z58ieffLKxsZGmKRGdTP455phjjjnmeBqBiEqpRqNx6dKlV1999dKlS2fPnj137tzS0lIYhoi4/1Wz253GmHa7/c477/zRH/3Rhx9+2Ol0sizL89wYM1eujwcCyANewKmAAfwT8x8ggAA4aAKdHMzMAE9uAiGABIAnJD8DAT/R2S+f8OATwBN1PZXCT/5k5vlyMccXEYgopYyiKEmSJEkuXLjwu7/7u7/1W7918eLFJEmE2B1s9d7Pql+tte+9996f/umf/vmf//mtW7eGw6H3/sn8ii8hqkKckTJCIZ7AOumY+0QPvLdPRsUGiGekqss90+c0wAAj5rb33Sc2nZpCLEsViieiowzzlvddoic0+ArxgtYx4pMYfMc8IH7offYkdwhBEFSrVSGEEDKKwjRNHz58+OQeN8ccnwMQMYqi1dXVr371q7//+7//G7/xG81mc9c53vuZ/MPW2r/6q7/6sz/7s+9///vXr19n5nm09Ug4r/R/Xa1d1CqAQxZ5njImEA47GwAABkzvFMW/Hw56s6SrTZlCDACHvUcGWBTiX1eqvxRG4QzSHFV+Av7Y2u+m6T/6bKbfOy3/DJOQAN4Iw/8yqT6jlDxt4Rlgk/z30vQHedb2/tDzp83QWQafACqI/221fkkrPcPYTCvJWfTxgOgnpvj/0vSmNTOcvlP+GQbfA8S12ptv/sLv/d7vldem6ej73//+t7/97VkeN8ccTy2YOcuymzdv9nq9NE07nc5v//Zvr6+vl+oyTVPv/Uz61Xv/9ttv/8mf/Ml3v/vdjY2NuW/nGFgQ4i0d/IKS8c7jzGyZM+Iu+R7RkMjuXOIFQIhYE2JBypoQEaLa4+psM2cM6zg8A5DsXGTLmLxSOgiCIAiklIg7fI3M7L23xhamsNYS0a51MwdIULwRBP9S6woTIvLUxQSQMw+IOt4PmHJmP/7nUj8pgESIBSEaQiZCBLjb0+kAqgA3lNwEqO8cHARAIaSUpfBKaSHw0SLPwABE5Jw1xlhjnPfTO79SgC2AS1L+stavSLlrrhOzZR4w97zvEWVMnh+NXil8JERdiKYQVSE0ogScVnMMcJPEHa3aBQ5LL/TuwZda6zAMtA6UlLuuZSLnnLXWGGOdI6JpjSsAUoAB4lth9ItCxEy8U715gIyoR9QlPyQ2zNPCA0CIWEVckLIhZYwoy3kzJcMWsyX6RIgAINq5n9ieOVLqIAyCQCklcOdvZ/DeW2uMMeXM2bsyPEBsrK7+8i9/41vf+laZF7mxsXH16lWYY44vBYio2+2+/fbbxhit9be+9a2lpaVyvQIA59wh+pWIBoPBH//xH//N3/zN/fv3Py+xv2xAAMkcOBcylWurYe4RbXmfEuXEQ6YBUcZkAXCHgsNQYAWxLURFiBCxjtiSqibFZDXXDBJgCaAJsABgS8WsVFjqVKWUVFprrbWQe6LADN5755w1xjnriYwxpihKXSUA+gAFQMQQOBN6D0IAADGMmB461yMqmDOGHvmU2TDTTvWsECPEjhBVIWLEEMWylA0porEckjkAaAA8B7C6LREIIbTWYRgqpaRSWimttZRKCDG1xCMwMHnnvXXWWuudd/bRRgEBNMANgDpDQBQSqdJoBMiZO94/9N4wp8xDogFRzuyBpwdfIIQoKkK0EWOBEYq6ECtKhWNvLQFohoThWQA/zhVERKV0GIY60FJIpVSgtdJaSsnbv29bfiby3lnntoX3zhTGmIK8Z4AAoA3wEaAECJwNyZf61QH0vG97PyTKS+GZMmbDzAzTzokAt2dOTYoAsCrkohR1IfR48APAgHkJoApQLU1eRClEEARBGCoppVQ60FppqaRAwdN7P2YictZaa5133ntjbFHkznsmmoS9m4tLFy5cKNMsiUhKOZtTZo45vhhg5n6///bbb8dxvLi4+Gu/9muNRqP8JyHEIfp1NBq99957f/3Xf3337t3PRdovLxAAkVF4wJToAdHPjHmnyA3zmlQvBsFbUbyulN5p4BHAgOiWc5dN8Y9FPiBakeqrYXgJdVPIUAjBDMCl3ZMD9ACMEEqpJKnUWou1Wg0RRqPRVq83aG8Veb7XyIiiqFqtNRqNWq2OAgeDQdreGg6H1jognwPgtk5ARkEoDECP6abzf5/nd5yrC3FR6VfD8KLSdSHETheoZd7w/oox79ninnMFwDfC6LUgPCNlVUoJAORLV6MF6AIw4vbOoLFQbbW01kVRdPv9fqeTZZm1dpfwSqkkSRqNhdryQhKE1lrb6WTdTlEU7H3AbKaEYSEt85D5jnPvFflPTREjntf6pSD4qgqWSut+6uaWuUt0w9oPTHHL2ILhnJK/HifLStVRBIjAXOY2OYBhKbwQgdbVaj1eWqxUEmfdYDC43+uORqOiKHYJL4SI46Rer9cXWtVKxTvX63UHnU6WZd67iCgfa2NGYCEcioKp7f3PrH2vKLa8X5TypSB4JYjOSVXZGdxngIzotnOXrflpUWwSNVC8FUWvBMGikNsB3bEizAEsgBRCKRWGYXVpuVavCyHyPN/sdvrtTlHku/ItEFEHQa1ardfr1WpNB8FoNMy2tkaDgbXWey8BDICSUuvgqN/KHHN8sVAUxfe+9721tbVLly5VKpVJ3c4h+vXKlSt/8Ad/cPfu3XnA9eRgYEN8n9w/5vmG9xeU+u9qjdLxqBEVgNqTJyoAakK8qPVFrS2zZb7v3QdF8Xaefy2M3gjD5s6MKalUo1ZbXlkF5m63d//+Peccc+m92+37LVEUhbW21+uiEEKIaqXaarWWlpY7nU6v0y6cm5xJAD2ij635myw7I+VvxMm6UhJAIZY/YVfMDwE04hkpF6Poa1HkmD3AT4v8r9JRXeBvJZW1ndVjAjFMktbSUiWppOno5s3PytT0CfYK75wbDodpmj54IIQQQRAuLCyce+Z8Ohp22m1O04nHlQAK5o+t+WGeZ0RvhuFvVSoKUCFqBA0o9gy+QmwJUQ/Dl4PAMRvmO95/L0sz4t+I45eDMJ66okzfX1xaajZbRVE8uH8/yzLeHnq/78gTUZaleZ49fLiJQgRa1+v19fX1oii22ls0HMKUSnPMD8i9W+QfGvOc0r9bqS5LOR55UHvSoxEgEuKi1ueU+udx7Bm65N81xX8YDs8q/WtxvCDEI2sUUQlRrVaXl1eCIGi32xsbD5xzxExEvN/gM7M1ptvt9vv90pmcJEmr1Wq2Fnvdbru9xc4BgPXOmJmCu3PM8cUFMxdF8e677/7t3/7t4uLiyspKefxx+jVN03v37l27ds1NLbJzHBtD4tum+MTZGopfi+NlqRannHUHQQAEiAEAIDJAgtgQ4qH3n1rzo5xfDnRlHFjUWrcWmrpW7/d6WZbmeV56Sh9//zIEW1oniOi9N6aI4ySpJKFWdmvL+G2f9j1nP/K+S/5fxcmSlMtSVg7LKUYAhagQy8AzA/xCGD2j1F3n/lOafjWKLkjJ27a9SCrJQmvRe9rYeJBlWVEUs+SoT6letNZaa5MkSZJ4cXExEwKHo9LjPiB615hN8he1fkapRamah2Vzl1VVEiBELDV0IkRVVNref2rtiPl1HZR6TQgRad1cXFRKb25u5Fme59ksX00pefkznbXWuVGa1qq1VnORdJh126UB6wEuG/OhcwLgX8WVFSmbUkaHVe0IAIGoEROAMok9QrGh3C3nvpuO3oqieBxkUEotNBq1ajVNRw8fbmZZbsx0PHd/7J05hTGVpJIkyblzz2zeuyuMsdZmWfb4+wSI6mQlSMxggPffxcyM7bkKePwkfwYGdgD2xJJIxOBkVVnMbAFOmNY+HhPYkzhxBBCzA3CnZ6KVsjxtJh8zX7169Yc//OE3v/nNpaWlslzncfr12rVr3//+9507xZH5+YVl3nTuhrUh4itBeFap4OgzFgEqQiRCrEqlAT8yxRXDL4TIKBCxVq/HcTzIsk6nY0xxjLdWGiXO2qIwxFRNknq93h+NACBn/sy5LtEFrd8Iw/BYnxsCLEu5JGVTSgfwgyyLo8hJCYhxHLVai5Z8v98fjUbHqv5i732WpdYa7129Vq/XGzERIo6Ybzp705lndfBqEK7IQ1OJ90HpS6iKIFVMAPecuwxmLQgAQOsgqdeUUv1+bzAY+GN9MkRU5Lk1xlnXarWSJI5tRYxSALjv3A3nHPNXw/B5HRy6J9sXIeK6UotSVoV4vyguG3NeB8QMiJVKpVKpGGO63W5pdh/15sxcbm6sMUS+2Wo1FppBt3NoaS0CvBGELwfBAan1PAlZI8BBsVsL/IM8v+OsOcFKFSK+oIMXg6BycDFUGYHGg0PIGdMt535S5CeRRCE+q/Q3ovgAOWYak4z5Z6a4bA2dQJKKEC/o4DmtDx4TPlSSPvtr1n5iTH4CScoqbRQiSZJJ9lDJvnDse546er3etWvXPvvsswsXLiRJcoh+vXLlyne+8525cj0VjIgfeCcRXg3DC1qfpJwRAULE18Jwi/ymcw+cBy2EkJWkQkTt9sO9ob4jgZmNKXrdrhayUqlmxjLwQ08DolWlXg2OqVyn5V+V6mshfmiKh85liIgYhlG1Ur119/ZwODxhjrpzbjAYAsMzKyuJMVgUffIPnGtJ+VoQLh9LuU4LX0F8IwgHRPecqynNiFrrJKmMRqNet3tC4YloNBoiQrTQrFVrmOcAcN1aw/xyELwShCcUPkK8qAMP8E6et8lbRClFkCTl6nA85ToNY0yv1xNCLDcXozwPw6BSSR5/ydfC8N8kldrUkbJQioCZYRLVKB345Z+7qqdS5r734N0ulpVpaotHHvRJlvnUyQQQo/haGP3rOFp+lDu4LQmPE7bL67ZlQBR7JGkT/YMxbWMy3lks90gULN01wAyPBOHpJxLAG1r/95XK9Oo8loSpzJzflgRwHNrYJUmX+T8ADKzZ/a2WcZxyNIQoE9lh/Bt3jUlLiH8Whv8yipennD285wUBgoADJbnt/d9gTs4Ndm2ax8O4PSyPhqP8345XOQToAYTV6u/8zu+0Wi0hRLfb/fjy5Xd+8pOnx71KRFtbW9euXXvrrbcO16/tdvv69eufo3hfZoyILNFZqVelOpUESgGwJmVBtOk9aK2URERrzAmVa4mxOWKiSkUIQQAPnKsgPqv0CZXrBAHii0GQE6fMpf+JgWdxaM8C712eZQJRK4XGpMx98r8cJ7VTIskIEZeEJOKO9wSAiETee3da1WvD4bBIkrBWFygAYNO5FcTntD6VmyuAhhBNKS1zAaiVBkBjrLUn9GtuwznX6/XOnVlTWlUqlWazddCZ5UK8ivgyYnNslTngrqc2+ZQYmAXuMpEwRmxJWZdiEnUeAqwBGMRwYtghBkEQhqHaWznMpWfblZkH5StjgADhrMCXAde2zwLP3CPqkB8R887cckBAwFhgU8gFIdT4o3iAeF+KNxCy8a/DcTK8lGqHpt/+VeycM4Upxg4nAsgBLwK8BqDHkjjmLlHH+4ypjKeUwfPtpyLGQrSEaEyK0BC3AD5CuAEw2ZEJxCDcrrYaj+YjTysDe+eKwlj7iI+vAXBJiBcRzgIjYClJWfiQMQMwcpl2/mhcyrdTE2Lin0sQbyGmAD2AUsEKIbRSYRxLIbd1KzyquhtLUkyvBncBbiA2lpb+pz/8w3Pnzgkh7t+//xd/8RcffPjh06NfAWAwGNy5c6fcpzLz4/TrQUklcxwDEkEC5swncRztQgHgANT2NwKTssVTeWtYlsqO95QBogHIDw3KzQwCSIlriJOKDWYuH3ryVR4RhRTMTEwALAAkYErkmE+FKJEADLAH1tviTmmA04CUUqAg70t9oRE9QH5KE4cBPINjLlPSmBgBhDhJiG0HSho5IgaGMAzLjfxjIIgEESBa5gfeDZnuWnfb+673AiAQosw/tsCGGQFrQpxTakWqJSmbQgQAgnzIHAJIACdkFAY6CJIkSZJKEATjLDMqV3YhBABaa9J0lGV5nmfWGEFUA6gASGYALhh65B96/8D52871yCOCBix1hi2roQAaUpxVek3KlpQLQoYAwKQYFgEeAHghgiAIoyiK4kqlorWeXlRRCCkEIhpj0jRNRyPrXJ5nSNQAWCIW3rMQBqDtfdv7e97d9m5EBIABQgBYlvlZZg/QkvKcUmekakixLKQEkEQBUVjqeCl1EARBWBL7TSTx3iOiFAKFRARjzWg4yrMsL3JjjCKqAYTMSAwIOULP+zb5+87fcHZEVI5JiNuSOGACqKE4r/UZKRelbAgZIArmkHkBIAUgIXQQRFEUhWGt3pBSAgMxeSIcvx1EtNYMh6Msz0xRFEUBRAFAJIRWKo7j8pxGo3H+/Hl5MnfUqSPP806nk+f5TPwSc+fwaSFBUZPiobO3nIgR471slUcBA/SJ7jtnmJ9RchPAO+e9jwIdx0majk744oQQYRgGQWCdJfJCqlUlr1rzqTUVIVZm4EJ6PHLmB87dcfZSGBVCsHPeO08+imJjT2pIlbZLpVLx3htjmKGKIpLyU2sbQmrEE5rgHuCh9w+8FwBNKYUj8sREWqsgCE5uBQoharW6DnRvXE91RqmOtdeMqUdhfIL8m/G2hh44lxK1pAoRrXPK+yiKwihyzp2Q97Qc/EajkeVZaX/McENm4Iz5jnU/LnIDfE7pb0SRLF2OAOUPpjFbcsF81/l38nxJyheDYE3K0p2DAFqpOKk0Fha01mk62tp6WD59wjsy4VeRUpUFi1meDfoDl2eSSAAA8JDonvdXjdkkWpfqF8IwEQgAYpz6xAwlFUjGvOn9j4q8KeQLOjgnSwISlgClfVar1aMoyvNsa2vLez/lm4ZttyiAkDKO4qXlZe99u93O0pHwpIAZOGe+491HxnS9P6vV18OonLoCUW57dLfpry3DbWd/VOQVgb8QRmekYuZtjhel4kqlWq8HOkjTdGvrofc0kQQndiyiFCKOk2araYzt9XqcZ5OKtRHzbeeuW9MhWlfq61FUptdNxoTGY5Iz33f+A2NqQjyn9ZqUxFwWQyulVJxUa7UoirI829jYIPLbr59527BHRAApZRTFzYWm827Q72ejETqH2+dsv0IppdL6tDaFp4XxmsOlnTPXr58TEiFWlep6d91ajXhW6Sri3oKcQ0EAlnnEdNmYPtGqkGVAkcgPh4NKo9FsNonJWXu8xLTS+AiCoFara607vV5RGNRRU4iaENeJPjJGIC4IsbcgZxY44IL4trPvF2ZFqmUphwIZOM+LQb9fqVSIeTgcOndMR7EQQuugUqlUKtU0HaWjEeugIURd67/L80+sYYAzSsZ4nP2NBzDMfaIPTGGZn1MqQgQGa40fDivV2sJCs9/v7cuENQvKIp84juv1BrAfDAZEDADPaf2x9zedrRpxTqmypuuoM6csRx4y37T2mrNlltktIiKfpmmkda1WZ6Isz4+Xn1X6ToIgqFRr1Wqts7WVZakx5tD8YQAoiO97935hFqRoSXlW6mUp903jYoCCuS78khT3nf/YGsdqRQgGlkJUq7V4YcFZ2+12syx9TAq6lNIYUxR5klQaC41iKMVwCICW4Zqz160FxNeDYEWqlpTxAYOdM7eErwtxx7n3iyLXqqV1OQkrSaKrNQDodjt5XuwtIJ5ASGkK45wLw7DVavWEsMNhSW19y9ur1oaIb4Rhaa8f9N4Nc1WIhnMPyb2T568HYV0IBBBSVqrVSq3miUomP2MeNybWWmOiOE5arVbe76m8YEDDfNXZz7xXgC8FwZpUi1IetEnNmRvCP/DurnMfFEWmtRKyHJN6tSaqVWLudDqFKfIsO+gbL9+OtTZO4sXFpZ6QDwd9+CI4U8ttS/ktyD2ccXM8KSiEZSmFDq5Y+9Miv+vcK0G4MvXBPH655PGfI6Lbzn5gjGc+r/UlpaQQpUd1NBr1EcN6Y21tfTQc9Hq9ojhaFjEiaq3r9Ua1Wi15SQbDoQcs/cOXdEDe3XTubureCqNzWiWIYjZ/6yQhYsv7j0xx17kayrfCaFHgTQBgNsZ0O916c6FerydJ0uv10nR0JC01qcJsNBaUUqbI827XGMMqCBHXpfpaGH1izQ/y7Bml3gjDqpB781MOEr7c2fSJrhlz2ZoY8QUdXFSqA9shtHwwIIDSXhkOB4PB4Ej7GxwneTWbzTiOjTGDfj/LUkYBAC0pXwoCsu5dU3xizVfDaE2pcJxLMovwpXK96eynxnbIl5QmArG0CdI0VQj1Wn1paTnLsl6vVxT5kWjGy21Zo9Go1moIotvt9vs9431hTJqmh15+zdo7zjak+GoYNoVUB8+pMkXrGaXOKrUk7QdF8UFRfDUICKBaq9WqNVNagVn6eOG992k6StORMabVatXrdXIOAe46d8dZAvhqcHgeYoS4rtSqUkvC/qgorls7AEApgyBsNBYyok6nMxoNH//byfssS4siD4JgcXGp0WgUAjnNHnr/gTELUr0aBGfUIUkbAeIzSq1K+cCr94r8Q1NcUAoQq5VKo94orO31e9nB+mwyJqPRKMuyPC+azWaj3gih7wFuOtu1VgvxchA8o9Tj09cjxHNKLUvZFPInRX7d2oZijxiGoWg0Bt53u93haPh48m3vfZqmRVEYUywuLtXq9cR7PGwkn0LM9evnhwjFRR0EQnxizIDo3SKXABUhziq1IlUF9w+A8XafE7rr3ab3OZNjBoDng+CS0gtCtMcz1Tk36PdT75utVhhGS0sBEZXRnelN6/S6s53VKEQYBEmShGFUxja898PRcNDrOiJU22k1y1IGUkZCXLP2qjXXrQkQW1KdV6ohhDxgZ10SCW14f8fZAREj5MTLUr0ehKtK8Zi/iZmLIu+0O/UFjqJoYWGhXq875/I828XcNHYlPXqa1jqOkyiKtFaIAhHTNBv0u5DnE0rCCPGNMFSI15156P3f55kAbEq5LuWilNEBTtdSLbXJ37auQ94yeOAI8bUgPK9UhNgps2OYrbXdbpeJa7VatVpNkgozZ1k6SlNrzFS+6pgeecIQKVUURXESa60FCiFlURTdbpfTERGB3F7hzyqlhRQGOt7/zBRXrIkRV6RaU6qCeJBC8sBDovve37bWMjhgz/yMUq+FUQOxO54J3rvhcEieFhYWdBAsLi4yk7V2NErzfHtRnhZ+Ir8QQgdBHMVxHJXBM/KUZaOtrS3BBIjW2DzP95Vt6oXCPefa3v9qFC9KNaNfQQCcU7rn6adF1vbeMtdqNSlUe3MjTUez3QPKVDKtg8V6vVKtQpp/YkyC+HwQXJw5m0wCXNA6Z/6gyD+xtqV0FEWZEKPB4FDlOgER5Xne6bTPnT2nqjUzStvep8xfUWrtsCbeEwSI60pZDv9TNoo9eoA4SbTWDzvtNMt4NvuvzGBXSlaarTAMydqrRdEEfkEH5w5TrhOEiBeUGnHwqTF3nbNKVeNqm7nf748OU64TlPoeAM6snqlUKiI7fKP2tGGuXz9XSIR1pZak2nDuqjObzqfMOfNd5wQgHWCOIIJjHhKNmBXCulSXdFASyeLOmUpE+WhUFEUcx9VaLQwDJZXWimg77XC6KmE6jVEI1DrQWlvrBoN+mqXOWiTaJU9NiNeC8DkdfGyK284NiAu2A/IKgPeTnQEEQBldGxBlzMtSvhEGa0qVHlq/82RjTbu9FYZhtVqN40QppaSMomg6LWkSvpr8JwJKpbRWiJhl2WAwMKZg7/fy8l3S+qxSd527Ys2AfME09D5ALHMj9/kByAhgGPqeMuYY8WKgz0tV2Y9ZlLwvS1wqlUq1WpVSCkStA2ISUzlo04MPDIBY8i0LKUxhut1OnudEFO5cDRFgUcpfieIB0cfGPPBuCJAxb3gnYX/3BwMLQA+cMvU8AcBZpS9otSRVgCh3FagQZVlqTBFGUb1WD8NQSSWlSpJksvHbR34ARKGU0lozU78/GI2GJWVYKZNzzh7WnMcCIEIFRSSOFnFAgJoQy1KlRIY5lIq8z/PD3dG7kOdZEYYLcYxZ8cD7rwTB2ZlV2gTrSn1q8DPnlhADHXTy3JgjZ/Jba8uQZA5cMK/OQOGyCxIgEVhFAYBOoEDhvXPWzqhcJyjZpOtCoJB9orNSLqv9PfYHQSCuSXVfuPvOIYoojtPRKM+PVgBGRGmaAnOZ8vGFi1fO9evnBmREAJQAMcJaoBeUKpgs813n7nnf9c4y47SNsE1shDFiU8rzQdAUIkQRIU6a+XKZvup9Pi7BNkRozMj7bp5LIZTScRxHcRxovU0OvDPXlRmss3metXvd7YQU5z1t8/vnAAKBEFiIknk/ANAAr4bRcwE75gHzdWu2vM/H3P675FeIDSnPSPliGIYoAsRknGHEACQEExmAAYAsvx/nUqKBMUL2pJRRGCZxEoShEPKRThrLz9u0DMUgS4te4b0jT867cjVxACMAA0CIgMhjHsoLQixp5ZhHxPecu+/dgGhvg/qy2jIRuCLVq2FYE1IhxELEj1r4AAM4gAFAWvLjk8+LfOTs1mgoAIMojOMkChOlFO59tQBEbK0Zpmk2GHjvyPvtRjoAHiAd7z8YBQMLxAgxEOIrQhTMBfMW+dvOdr0vePfaU0oYCNESYk3pN0MlEGPECFGPB5+FIIAcIAXQAEiERKn3g6IQQpaR4DiJtQq2qx+n6f0BgNl7n+V5dzgomSzL9KjtIlGADCD2zpjdrNFby0WmAAAgAElEQVS7QMyIqBDF0ROwBaKY6hm1ZxhmAjMzU+mi98DiYH/AY6AAtiVBQESm4/A6MDMTjwtmyvLWI0MATPfxYDqeThpnP43Loo7xdmSZoL69IRbHa2xaXoOztut8unDK+lVrHQSBEKLkY5xzP03AiCQVjZcoDaDldkiyqoNzTJb3/xDKVT5ErAiMyjy/8oaT2zKz920AB1CZrIHel+y1QhSqyOVgUDZ321c2YvLeu/1qTzOABMCWwotHHdIqUpbPWmBe0LpsPrMvWQ8iBIgxigqixB3CAwCB8s50AT6bqKiSd54IrEVEWRQqTYWUBy01DEzeT6/s00O3ATBAJCG8lBNDIAQIx8I3A/0ssTtgWUYECRgjVsrmeo8eCgBAiESUIt4CSAG2mw8yg3PgHABIa1SWSSkPSgVj4LJL3aTtzLTwGUBR7iGUmqzWCFCTsgpAAAtMZyg0TP6Aj6ycOQliaQbtnTneuQ7AXYBoevCNKaMGqijUcPiYmcPlzHHO72yuV4arNwFCvyN/eN9RLvX9iP2IqH6UvHoP0CffIXpWSI3Cex8IDMIwmyHiO0GZ8KyVLt34LSkzoi3v64fRZ06DAba8L5OMymBBEEVBoLPsaMVmWmsUggFCwBDxuvcDotXZuvmW8AAj4pypikIQMbPSSil1pLK3sgeU1pqsAaIE0QD1ySdH2Xl4gC75nDlCtMzGFGVJgjlKgn35dhDYj2vVPmeUKSklX/8kN3j2y09Zv66srFy8eLHZbKZpeuXKlQcPHjxV/FX/lEAkpfxuKwYAoAJQme0evOdiBiwdSkOAzT0tSOHRcnnMt+ABzgIQACnl91NxCqA58932uqg8A5GzAA8B+ntX8SlddTyUv5yEIKX3NkCXADWA2v6XHi48AbJzHqAD8GDfwR/vco4HD7BQPkjuP3MigGi2W+3nHEQiT4gDgNv75nkRARmYrfX6XpQ9kc5s19Ts+pcdkAiJEA8c/MwUC0LM7hEdEN11ruP9V7QOHIxGo7jRWF5evnnz5owRvu281nojjuL+5oMmiFd08Ik175vi3J5mVo8BMf+wyIdML+qgR5ybImouJOSHw+Hs7AdCiMXFRRRYFEWIGArRMWbDu3VS1dnGhAH65C9b4xgqApUHay2KSrVaK4yd0V9dapRqtRoEoR2NgOgZpbas+diYRiRrsw0JAeREHxZFn/wzWt8h2hoOqmvrFe/TLJu9Bkwptba2xgyjdLSPQ+AJG2+ldj937tzy8rIQYnNz88aNG0cyGk9HvzYajZdeeunSpUvLy8vNZjMMQ+fcG2+8MRwOP/roo8uXL29tbZ3Kg77QYACeKeXzqMDt/jCnfd8S26sjIh/daTYDttNmPMCR42azPwCQn4z8jFAqwic3+Pxo8E9Zfh7PHLO/Aj4pJrQhOx6639J0SesA4ANTdIm+GcWHpst6gDvOvVvkPaI3wnBRSgE4HA5CIZJm89lnL967e+dQU6NsuFQ2xO72epBlEFfWlQKAT5z9y3T4zSiZ5mY6QBLuE303TXtEL2t9Ruv3iIqiKLrdsFo9c2at3d6ahXUyDMO19fUwjPrdbtrvI8CalK+H4Q1nh8RvhuGhY0IAt539QZ63vf9KGK5JecO54XCgpEyqVaHU1tbD/LBaqbJnYrPZjKK43+skWSaD4Fkd1ABuOPe3WfZLcdQS8vHavuxK+ZMi3/T+VR0kUt63NsvztN2uVKti9czW1lZRHJL1hohxHC8tLYdh2Gm30zTdHUJGEIkKz1fFpynlp0zhFMfx+fPnX3/99VarVavVKpUKIo5Go06nc+fOnQ8++OAxPeVKPpOZ+CVmwfLy8ptvvvnmm28+88wzcRxP6n9XV1eZudFoNBqN69evf/rpp3N38Rxz/FxhOuQ2/vs+K0BLyGogGGCL/Nt5VhG4JvVFras7nbQeoEf+tnP3nBsRIeALWr+odQCAAMba3qCfMydJsrp6xnuXpulwOHLO7sqZ11pXKpUkScoCxX6/n/f7Fe8ZOBL4UqC1wJvW/W2WRQLPKnVO6boQ0/4JYu4z3XLurnMZMwK8EYYXpfRCAJH3rtfthcRJkiwtLTvnsiwra4F2LYClpZgkFakUE3c7nUG/B0WBYVgT4tUgkIAb3v1DnlWEOCvVWa13udAJYOT9p9Y+8D5lUoivBcGLOijdHYUxvV7PMYdRuLK84pxL01GaprtYUMrC62q1Fsdx6Qvt9bp5r6+ZRBDUhFjUgRbigfd/l2UK4FkdnJOyJncoWg8wILpt7R2/PSavB+Gl7Ro28N51Ox1NFCXxyuoqEw2HwzQd7SOJ1tWpt7O1tTUcDJy1e/bHKCIVrFXwloBDlPXR0Gw2L168+PLLL7/44ouNRiOKopIlqlScpYP2xz/+8dWrV/etd+IpnFS/NhqNN9544xvf+MbZs2eDYEdLJSFEURTLy8ta68XFRWPM7du3T4Udd4455vhCYMaUFgGwIkQtCO+Tf7fIN613xBn5XT2mGCAn7rDveqoL8ZLWZ5VKEHOi0ttPeT6y1qej5eUVoaNYyIrStDM8jYAlPZkOAu99p9NJ0xF6L8Zx5qYQr+mgheInRb7l2BENvQ/3+Ipz5i3ve0Qh4i+F0YqUEeLmOHEarEm7HbSm0WgkURgJUdGavN+RpMAgpQyjMAxC7/3mw80iz9l7NSbkXUTxlSC45cQVUzy01hP1yU/qnieVzYZ507ke8YIUr+lgTckQRa9kHGSmIk87juNkodmsRFEssKoDIpp2JSAgChGFodaBtaasopGehJIAIJiXhKiKoCXc+0XRIwLmvpTRnrdTMLc99cjXhHhFB+e11gAD75FZMIA1o04bbHVhoRnGcQhQDcox2QEpZBiGQRhYYzrdbpamQCSY93rrUaJM1MkIzXZACBHH8cWLF9988821tbWS5kKOUZ6zurpaatwsy+7evbtXxZa14OU25UT6FREvXLjw1ltvra+vh+GOzh5lb8jBYGCMieP43LlzX/va14bD4cbGxtyEnWOOnx9Mf+77alsGUTZ1qQhxUYhzUuXMn1n74yLvkCeAiTZRAGeUelmHvxrpsuq3XPNIoEWwZUqzc9b70c3PpFK1Wq3ZaIbRtCJAIsryrN/vDzc3SuOppBLMARwAAwrABKHsEzwkvubMFWM2vHdTqlECLiv1sg6+qXXySBIGEAQ0BDClJP1+bzAozeV6fSGJS17UiUEPRZF3up17Dx5470s2FQTwiDkKRiEQa4gvB8HzWo+Ibjj7kTEb3o2jlwjAAnBRiq+F0VmlY8QJqxojFogFADA7awvX74+GUoh6vd5oLIz5DcdjwlQURbu9laaptY6ZmFkCpIAOsJSkgnBJBBeUtgxlBfam9247QgIAoAGXpHxZB78SRTUh1JQkDnGIYACs991+vzcYSCHqjYV6vR5FsRwrSAYgYmOKXq97b+NB6e8sx8QC7OMCPu2YiVLq7Nmzr7zySmkullm65atJkqRUsSWPyuuvvz4ajb7zne+k6W4mk8nAIuLx9WvpZllZWVlbW9ulXMtUq62trTK2X3rS19fXFxcXe73eofXmc8wxx5cDexzC+/iHSSkTxcWU1zMCeIH5uamzt5vGTP5ELOuvyjW3IOqk6T8C9MtAMjMygzG4tYWdzoRGZRwL5kkvtikDDloA64h5FBdTxa8VgNeYXxkHwidF0uXCLgHETkmMcz3Kvg3Q3s4sYGDGogBjsNOd8OuOheHS1TxN3oEAFYAFpYokoam08wTgFeaXxg3spiUR5f/L3gPj81Pvb5ni7wDsuGwJy2y7dhs7HRy3rXn0loB3SQIAzwCsCWGjqJCP+GM0wOtceW1qTGDP2+EpSXJr73n3HwE2p8eECNpbotOGSds+eLQB4z1j4gE8QPVIk+/oCILghRdeuHjxop5iF3HO9ft951yzuZ3KKaVstVovvPDC5cuXb9y48RiNdnz9qrV+/vnnX3rppTDc7TsxxpQC7Tq/9GXP9escc/zcYIeJwbvbek7Owl08m2JnSdP+7B9Tl3PZ32kf7T1r5pYB4LJI/WBJDhEDAAQyQgF7AoLbLeAOFwMBNIBH4J3co5OOs3sq2A+6EZaZa8WuMTnwHewDg9u147AzgXlHfe2hwiCW2Zf7jMmR2FtnP/VYCMPwzJkzZUBzry+6VGq1Wm3CXNZoNJ555pm7d+8+Ef0qpVxZWTlz5ozayXVSFMVoNNpbliOEqFarZev5n1uUTSVP1KBkChP/2AQ4xqncfy/9rwfYXWR6XOC48HHqEIrTE75MRpg+QgD+lPrr4bh2fholteRp3P5RisSjIwAe+KA61yMB91AQPLmZIwSerFPUNmahWeZ9reOZwYCHXjvj6JxEjH0KmE4mxsnG5PDnzU4/fsLJ+6T1q9a61WqVqcJ7/9V7n+e5UiqKonJKB0FQrVbVY6m+TuQfDoJgV05TyXab5/neRbhMUXva2gl9nmCAEdM7RXHTHsJoMwuI+atR9Ip+tF9BxHq9vri0HEczVkUeCGYwpuh0Or1ed3LQMd+w9qemKE6sYRm4IsRvJ9VpjtcwCFZLotETr8jWuX6/397amtT8OeY2+R/neXcP6eMxECO+EYYvTA2+1nplZbXZbJ5K89p2u9Nu76hhGJL/xNoPikKc7Asqleu6Um+FOyZJpVpdWlpO4vjkX6ix9uHmZr/fI9qX8XOefjHH0wgpZRiG+gDeaWZ2zqVpWibHlRrXjdnWDsLx9SsRDQaDfr/faDTKwG/5+IN6tjBzSaJ27Cd+0cEAfU//cTh8v8iXpFQn2JAR8MfW/ltoXJpa4oUQi4vLL730ShDok3QhLXdC1trPPruRpim47d2AA3jXFP9Xv9vEA7tTzYiH3ufA/yyKF6ZUaZIkz7/wQq1WP3TWPh5KKgZ+8OBBlqYT/WoArln7fw/7Q0etk/RkZiiAB0y/X69P69cgCC5dev7suXP9fv8kwiOKarVy6+bNothBYNsm+vss+/fDwXmpjsHeN4Fn7jGd1/p5HUyn/TSbzRdffCmKQudO5KEIgoCIPkYsy1EmXU5LzHMb53hqQUTW2sdwX5TpTlLKMkM4z/N2u/14/pDj61fn3M2bN2/cuLG6uqq1nnQUOkg+732/35/X54SI/0VU+Z24Uj9O+9RtGOD/pbcl9ixWiDAY9G/fvtVpb81OHLMLUsqFhebKygrwjpKz0sNzVqj/sbawug+//RHwvSL9P0e9XQEpRDTGXP3007t37xxafv4Y1Gr11dUzu+JopWd+XaivV6JfC+Nj35wA7pP734c9u9dBI8Tdu3fef+/dk0zyIAhefPFlY3ZvUomhiuJXg/jfVuu1484cBhgwfSdL3/PFLvEFijQdffLJx1sPH56kxfrS0vLa2vqjzNTT8znPMccThbW23W6PRqOlpaXHTNo0TRExDMPhcHj//n27xxk5TqI7Wf2r935zc/PmzZsvv/xyuWktCYf3PZmIsizrdrs/5/q19M5VUCwK2TiBfi0AwgMar5L3RZ7v6ul2JJTE7t7v/yoVYgvlkjiBCQjQwP35hJnZWJNl2TG6oEygtbbWar3P3NaIdSFOIjwBGGCNuF+yCjtnsyw7SQaf997a/d08EjFBXBLyJPo1YKwIsW8KABMVeZFl2V4m59kxZh1/dGTXUjW3YOd4OmGMefjw4dbW1tra2q645zSYOcuy4XB47969jY2NffWrH+P4+rX09966devq1atKKaXUY5TraDS6detWt9s99qL/eJQuTSFE6RN/Eo84NSAIBAnH6dExgWM+mO8eiOhIncl3gbax/1IoAOWxGozsuMnBV5fNTE7iSNydGjQFhJOOvAeQ29089n30rIwKB4Ee23cFTzZzGEDyfjzJkxOYt9/9cTEuyJnmbDqEf7gEAdijj1uZaPaozAbFUWj5p2SaerQ7bgainMr2Pb4kU4N/vHTCsmnV1JgcM8WMdkjCNFP6825JJD666tgJgCdZzY70lDRNb9++vbKyUjpl95UWEYuiuHfv3scff7xvy3qcwkn5mzY2Nt5///2yEHZfnT8R+oMPPjhhaOoxCIJgfX29Wq1ubGzMKSzmmOMpATN7T5O/P2bvMSS645yf4is4/OYAMeKifKTXwiisVKpHTaHy3hdFgcV2yUPb+zaRO6IkAnB5TBeIiFEUhWFYdi09EobDIRSmVK5D77fIF3wUSZg14prStE1cjWEQxElyVBXrvc+yTIyX67b37SOGDRhAASxK5ceSxHEcBsHRlT2ORsN9fULHat/3OFhrr1+/Xq1Wy1zifVWs977X6127du3q1av7Dkm5oSlzkk6qX9M0/fTTT4noxRdffPbZZ8tuzNMn9Hq9GzduXL58+ebNm0/IeBVC1Ov13/zN31xdPfP97//ndrv9hB40xxxzHAl+Z386gAPt19vO/dlwUEXUBwQ+9mLI1JTyl6J40g59sbV4/tmLWTo6QocTpZ13Ww8fFvfvl8J9YMz7RY4AwczLtwMeMn8jjl8LAgCQQrRarbJzwOxrESLGSXLt6qejBxsAYJivWvvjPE+ZktkkYYCc2SP/dqW6MA6CNBqNs8+cBwA/q2MPtVbOufv376l+vzz0fmHeLXINoGZ7OwRggQHgzSgq0wkFitWV1YWFBUAkTzPugaSUURxfv37twf37n4PV5L1vt9uXL19m5ueff359fX1XQSkzdzqdK1euXLlypdvtHnynbZwCv3+/3//444/7/f5gMFhcXKxWqyXL/3A4HI1Gd+7cuXbt2p07d56c2xYRa7Xa17/+jXPnzl2/fv2HP/zhXL/OMcfTACJf9k88FJve/SDPfjNMqjP7Ve951yG6EASrY593Y2FhbW39ypWPyM/a3jwIo0a16qx9+OBBeeRTa64Y+5LSldkkYYAh0XsmX1Sy1K9CiFq9Vm80nHWj0azNaJVSZ8+e29zYmOjX+97dcLYOYmW2jHcC6Hr3rst/MYxrettMrFSqi63Fbq+XpTPlNAghkiSp1urD4VCORuXBT6z5xNhX1e6OCwfBMWyRv+FtTcrthoMIi4tLSaUyHA5mrG5ARCnV+tp6u93e2Nhgv7fD5BPB5uamMabX67Xb7Xq9XqlUgiAoDfpSo3366aebm5uz3OoU9GsZ7719+3an06nX60tLS41GAxHLWHG/30/T9EnHREuyxiAIlJLzfMU55nhKQFR2yH2Ex6yrCYpfD5Nzjy3Yn0ajkFfJTHsbEdGY4vr16zRzitbi4tKZtbUdEgKsSvnrYXL2sJZwk/Pb3n/ojN9JtTwaDre2tjY2Hsz4c4IguPT88zjlPlUI61K9oYKv6N0EtPuCGN63xRVvAB+JwgBplt29c3tr6+EsN5FSLi+vrqysMD+iq/IAa1L+izBZkzNF/w3zTefyYgfbIgoc9Pt37tzu9/uz2K+IWKvVz507J6YofWf5CScEEfX7/U8++eTu3bvVanVpaSmOY2ttt9vtdruj0Wh2jXY6/V/LwiBjzGAwePjwYem2LoqiLNf5PKOh88DrHHM8VdhRJfXY3C2N0BRyUcgZF9GGEAHtXnGJKD9KCnRR5N7ttrBDEC0pFw9rdLr9RABk3uVMLpNIi6LIDmu5OoH3u+nFEDBEbMyc8e4BFrzYTeKzLUk+oyRSyvG6veN4iNgUcknO9HYK5oGgaI+t45wrijzPD2+Iu201BYEn+vwX9dJazfO81+ttbm4qpYjIGGOtPVKy1eno1xLMbK2d+2bnmGOOEmEYVCqVncfmW+A5vgAok/GMMXu5fmfHKVCDPmU4UXXEHHPMcYpYWlo+f/785D/n3+Ycx8YXkavkNO3XOeaYY45pNBqN5eWV6SNzDTvH8bBdnD2u8SqKvN/v8z+B8/gImOvXOeaY40mhKPIsTQOtiamMXc39w3McD8w86Pf/8i//cnlpKYqibq/7Dz/70dMWjix5DMvc4xPxN81xDDCAZb7t3bu2qJ3A12EY2rRvuTcGQdBqLUop3QEEh4dCSlmv1ZMk3pf6a0D0gS3uH/fmJa5au2/+iZSyXq8vr6ychEezWq1Wq9V9f/6Q6KozLXP8sAgBbJIf7FdzgoCVpLK8vFycIGAT6KBWq41Go72dZwzzA+/ftUXlBPxNI6Lbfv8lSSlddpAmOn4fvFarFcfJYDAo/zPP8yxLkyQuk32MKU4SzZrj5xxZnr/99tvNZrNRr/f6vfdvfOjxtLp9ng7KSpZqtVqv179M+vUL45cvmP9znv59kZ6k0RgD3/f+1yHZe7xWq62vrzvnTtI/RwiRpVm/399BJAuAiHfJ/q/99gn5EYdEoRCIOxhYmFmr4Lnn1i5dev4kPF9SSmvtnTu3p0egbDd7z/ufFIP/JxueRHjHLBGD3STATERr6+vNVutk/XMwiuJrVz/dNcACccj0dpF97Apxos5L4JhfD6Pd0jMlSfL6G185Ib+jVqoozKQoZXlp6eLFi1prrXXF2izLOp3OsW8+x88zEHF5efkP/92/a7VaQoh2p/29H//n/+3//T/+qeXagQl5U9mM9UuiXyeL0dMc3REAi1L+D43mf1Otn3BHwAAE/IzWEeKEN4yI7t290+/1tFYnHQcE71xa9ncbF+QFiP8iTp7X2vFJtzMMoAU0d1ZiDAaDd975URAGJ6c9I6I8z9N0NDkSIr4WhP/z4mJOR2CbOwgacW1nmWae5+++99NPPr1y8oAQIqZpmqYp0SOy4FUp/0219itRjCfeSyJAXYolKQdT+4CNjY3R6B+01ie8PSJ474fDUen8yPJ8OByWaSmIaE+WjTnHzzPKrnALCwuLi4sAEEbRc89dkjOVUP2T4UuiX78oCBCfVer8zBX0j4fEHTYUM+d5foodirZNmbF+FQAtKRfE3rZ4x0HJQj5dZOecm27nfnJM25ESoCbEKzo4Ff7rklZ++oj3ftDvD8Z8cifEXiMyRFxTavUknWvHwP3kL+vXT37zEqX8JcnMZ5999vWvf337+DyFeI5TgpRSa/2UOy6/PPp1vCQ91V9vqVSe3P1P6Nw7FHLPuny6eELtH0oIgJP45Pdi10A/UeGx/Faf2OA/oZnT7/c3ppjkcE+7umkBMuZr3hQzf8K3vRvu6c5TRpH30iMchFq9EYSBtTv2FgP216zJmGZxpRBwj/yIafpURAyCoFarz7jfRQSltBBq2gVHzH2iW87VcKYsHmK+5a1h4ikPUylJvd5we2g09oWUslav7W3W0ie64W06W9sDw3zH2T755s52TWEUNRoLOFuDRRRYrVbVwdbIU73WA3xJ9GvJHnXnzh1EGAwGT3SZm2OOOWaHMWZX55OD9GuIGAvxvi1uzpw6d9NZITCY2nQYY5yzZ86sE9OMq2+SJFJIa93k9KoQFvg9V9wgNyM/YsokBNTH3gUGds5LqZqt1i6C+MdAKmmMsWZblQoAjVgAfexMb/cu4iBJeMP7RIgyuaGE8x4RW63FKIpnuYkQIqlUhBDeOzl+bkOIz4DftXnNi1kiCJ65z2QBKogTBVvkeaVaW1xartXqM/I3BWHgnDPGHHD+065hvwz6lYja7fa3v/3XKysrV65cedr7v84xx88tDra/16T653E8JGrDrBmhVSXWlTojpR7fttNp37lzOwhnVWkAQEzdbrfTaQNRaWG/HASGuUe+M7MkgPCLUfSy3n4ueer1elrrpFKJ4mh2YW7d/Kzf75V/DxDPKnVR603vZx8TLfGXg/iMVKrUgszDQX9zcyOKotklcc4O+v3BoN9wDnQIAK8EQcE0JGrDbNYLAiK8oILngyBELK2gjc3NlqcwDMNoJjplAACG27dvd7sdIvrCkUt8SfQrAGRZ9qMf/UgpVRTF3H6dY46nE49ZIM8q9V9V60f9dBVAhJiPzaxOu93v94/qRWdiIr8wtoVeC8Lnjx6nR4AIsU++3PF32lu9XheP2uuUwTlbVgUEiM/r4JzSRy1AEQAJYoeotO+63e5gNDqqcmJm71xlLP+rxxoTARAi3nZ22wraeLC19fDIapLBOUtE8jSSDz4HlKZ2GXD5kuhXIpqdR3uOOeb43LBjPT2Y4k4jNo5roBTjmKD33h2tC/gU5PZiGCFGx5WkTG9jYO/9EfuRbwMBAEX5lwAxOK4kk8uIyB8355HH+vX/Z++94yQ7qrvvc6pu6jw57c4G7SrnAEoIIZAQGWGMCbYx+DFgP4YHDE7E134eHtvY2ICxDdjCmBeMDMgIZBAgCZCwEkJ5tdJKq02TZ3qmZzreVFXn+eNO2tmZ1WxPd0/PbH312Y967r3d99zbt+tXp+rUOQ5irFpL5peTCSHgJBhcjEo7RDR1cLNGo9nQbMQxPY1mLeAiNon/qtFompMFgdViqzkJmE8xsSnr52g0mmYEjzs+rNFsPqr0Xw2AFMBK4d5Rog3DMLhhMMS1p+OpGoLZxHVCyGiSfKW48DJAofnDvTWaDQUe90+NZnNTpb46ALsA+mBp2LhpmpZlWZbtxGKJRNyxY5zz9e2xEqlQCM/1Km7Z87zA94MgWLKGhwMcBngKYPNPvms0Go2mIVSprxwgBZACmF86zhgzTbOtra29ozOTycRicdM0oxzH662vkf8qgiAoV8r5mZnJyWwhnw+FoLmVPDGAuO5cazQ1Z8nPXw8Oa04mqo9vIgABEMV9M86TicSWrVt7unvT6bTtOMdJarUu2ABxooQQ6Y7OdGfn8PDQ2OiY61ai4eITWI6u0Wg0Gs0qqIEKmqbZ0tq6pW/Llq39yWSyaVcBI6JlmqZpxuPxmBNz7Njo6HChUKhumZpGo3le8Gif9Tj5hzWazcda9ZUbRmtb27b+7b19fYlE4oTzlTQcBIjygkYRWIePHCoVi6BTPmk09WCJmmpx1Wx2ohnJKL/EmvQVAZKJRF/flp7e3kQiwZpeXCMQgXOezmQIIAiDgSOHwXWbunKsRrNZ0P6rZnNDi6heERHRNK3Ozq6+vi2J5IYR13k45+l0eseOna1tbUyksTMAACAASURBVM02W6zRbBq0nGpOKqLlqRHViyLnvKu7u3/btmQyyVmTzrkeH8MwUqlUf/+2lkxmw/UPNJqNwdHzrxrN5iYaoYkWzqxJX1taWlpb25o2oGk1cIN3dXWlUik9bKXRaDSaGlKlvjLGY/F4KpWybXtDKxNDFo8nkskNfyEaTROi0yFqTmaq1FfD4Jl0OpncDG4fYyyVTieSyU1wLRpN06F/VpqTlSr1lXOeSCRjsZUyEG8wUqlUalP0FTSaZkP/qDQnLVXqKyIahrGhZ14XY1q2ZZnrbYVGo9FoNg9rCZrdPB1ThrDueZI1ms3J/M8KUden01QP0YbIUhDl3F3r+lfAzaOwiJvoYjSapkH/rjQnG0Qk59CLPjUaTd3Q3qqmRmwA1xVgfuVrhM5bpNFo6omWWE2N2BASi4iMsSg4SfuvGo2mjmh11Zy0aH3VaDT1RPuvmpMVra8ajaZeaGnVnMxofdVoNHVDL8fRnMRofdVoNPVEK6zmZEXrq0ajqRc6nYTmZEbrq0ajqSNaYTUnLXr9q0ajqReo9VVzMqGUCoKgWCzOzMwopbS+ajSauoGo5181Jw+IyDl3HCcej0sptb5qNJp6octmaE4qIn01TdOyLJ1/WKPRaDSauqD1VaPR1JHF3qv2ZTUnFWvQV9og6ZZXA22mi9FomoXF48NaWjUnG2vxXzePICmiDVK7V6PZSOj5V83JTJX6SgRSSqlUre1ZH8IwDEW4mXoMGk2ToPVVc9JSpb5KKcqVsue5tbZnfSiVyuVSmbQDq2kyEPWwqkZTRxCAAbDazV/M6wgRVbk+R0pZyBdKpZLT3rHR+6dKqUKhUCoVtb5qNLUF9fpXTbPCEW3EFGMJRAlQUqqsVEC0xlFZIpJSCiGqX/8qpayUy6ViMR0ElmVtXIklIs/zSsWC63paXzWamrNRmwbNpoYD9HB+mmWfapkZ5AJgUoqDYfhM4OekXIvE4iKqzy8hlczn84n8TFtbu2Fs1DwVUsqpqclSubzmXotGo1mKzo+oaUIYQCc3XhJPvC6ROsu2JAFH8In2+P7NxcK9bqWgqo8tQkTGGOd8TfmHhRDjY6PCcRwnlkwmGdt4S2mllKVS8fChQ+Xp3Brup0ajWQE9PqxpMhAgxfj1ieSrE8mtpnEoDEZlEEfew41dpvmGZMonut9zy7VQhOr1lYj8IJjMZjPpDOvrSyQSG6ujKpUqlooDgwO56RwLw/U2R6PZnGysZkGz6YkhnmqZL08ktpvmgPB/6ZdHZWgibuXWJXbibNs5Lwj2Bb6nlFzzudY0rktExWJheHjIMAzW0xOLxTbKb0kpVS6VxsfGRoaHPdeN65lXjaYO6NWvmmaj0zBeHk+eZlkmwLAM9guvpBQChET9htVvmNtNs9swJqWUa9aFtc6bhmE4NTUJCFLJvr4tG0Jio4DhkZHh4aGhQj4v5dq7KRqNZhn0/Kum2Whl/GLHiSGWlSooVVEqSpYUEvmkBECfYfQb5nNB4K27vgKA7/vZiYkwCD3X7eruTqfTlmU34XQsASmpPM+bmZkZGxsdHx8rFgpaXDWaOqLzN2majJAoPxtuE8knRi8QZxfCdnGj1zDMWjy3a9JXBsABAICEKEzn3GKxMDPd0dGZSqXi8YRlWYwxxnBdQ/SjxIckpfR9v1IpFwqFifHx6ZlpEYYoZWS/bgA0mnqh9VXTTBRJ7fP982w7zvh208pKJ6dEQCqFPMY4B3QQYshYLWShSn0VAHkAC2A2LogIhAAhpsfGjuRysXg8k2lJJBKmYTDG1rcDG4lrEIalYrFYLLiuGwSBCMPFnr8HUNTZETWaWqO9V02z4Sk1IoQgSDN2lhlLIx8QQUmpBMNeblqI7toWaxKRUkopVX1+CQ/gAMDQsZoUBBAEzHWtQsEwDGQMYb0zvNHsBYciFGG47DocBPAA9EixRlNb9Pyrpm4QKarCKwqJ8koqAAaQZnynYXdwQxKZiCnGTUSfyCOlqnW4iChSnDXkRwQoHG+3BD2vqdFo9PyrpkYsqcUkhPB9vwoNVAACiAAUgEtqWsmiUjZiHJkJiACeUm4t8ktUr68ajUazKrS+amoEm5NYpdTg0NBDDz0kxAmnLkAAA5kg2hf4v/C9p0PfU2Qg9nDjEtu5yLZDoIBIVTtfOJ8ckTGm9bURjEt5u1t+OgxqEpO2hLJST/p+pW75p0pK3ee6ZaWsOhivCA6K4IgQNf/keQ6H4Q8rpcd8k9XafALISbk3CCpV/xafD1ep293yvvo8OSWlngr8KSnrF3lw/Pqv0XnzpEZFWFrDioMyUUUptbbVFAqoSDQmRTVjjgCzz4NS02pN2WujzykrNSKEuYbvfEqq0prbBEGUV2pMCEVUtS3jUhRrlB4vDMOnnnoKAIaHh5948skH9z0cGsGJfggDtBB9ovt89y63IgG2cp5X8oEwnJCihTEDYC3t0Z6+y36BPX2CBsvaf20IwyK8uVi06rNoSRJViNb+W1qJvFK3V8r3em49AsEJwCNVqGdyyn1hMFaUZh2GKQlAABVq0ZCtREWpm0tFB2veNwAAkEAVpfKqbr0DgNUE5+8Ngu+XS84avh+faECEwdoKdPiKng78H5UxvYabXSJ6Jgj8NRhCACHQ4TD8XrnIq/4UgDLRs2Gwxlm6ilJPBZ4JkGLVfz05pZ6uxVpSIprJ579zyy0z09PPHTgwPDIcGIL3OhSc2K+PI9iAZaX2BaEB+DIndqFtHwrF9yulZ8PgiAi3clMSVd3N2oWlWw6Vs8p+MCe0vjYCj2hUivoFUFE9g59DoqwUk/WcT69r+x6Vnarf59f15kuAsXo693U1flZcF7XMx7qzBHCPW3nQc9fSgSAAj0isrQWvkHrAcx/2vbV0ghWAIFqLvgJAQPRE4D8TBmu5JwogIBJr63MUlLrHdX/hrfWehETBmvVVKZXL5W6++eb56m/AEPMuiRP7ZAZoIJRJBaRONc2rY/HthhFD9mhgTAWyrFTA1tTjjI/tO9ea+el4+uy0Hh9uCPVuxerNhrZ/QxsfNU8bF1pUbnolX9ZfsyDVBGomS4JaCNLaUU1zTyKUUpVKZdHf1UyTRg1CmjECeND3OMJ5pn1EhHsCv0zKQbbWuZjO7feUE+dsZQ9PV7s+R6PRaJ6XUqmUm5qaXxSIiFHdLo1mvQhJFZR0kJ1n22NS/LhSuQfdAMhGdm0scYFtF9c2gX5/bPfvntr96zus5wqi6bIYajSazQERTU1NHT5ypFwu+75fLBZHx8Zyudx626U5qYnGqw2AHdzabVoMYb8Ip5Tq4fxM02rnnK2tpuLlh378CjjSbuElrXp8WKPR1I18Pv/oI49846abDMPI5/OPP/744ODgehul2RysLIP0vPMqKACmlCgpxQEZgAEYEoxLWVBqjYGcUeamaIZY66tGo6kXvu8//MgjDz/yyHobotlUMGYYRsqwWpbdSyoM/JyUlWX3IgADCIge9/0HfFcQbTXMds4QYUSKvFIMkAHWJO+g1leNRqPRbCQ4T7a0XtLZ/bJl9/rexNjoD0rFZ5bdG7mnJuJu09wvTAZwQyL1klg8iYwj2IjPBMFa5k2j5E2GYSCi1leNRqPRbCyQMZPz+LL7GHcQjxdGhwhxxGtiCQlQUupiy+5gfD5/DkLNkuZrfdVoNBrNyUK0PocjbuX82ljCI9piGMbSZdm1WZKk9VWj0Wg0JwsEEGUENRH7DSMEUjQbURzVUq2qKs/yaH3VaDQazUmEAiIAQTQogkERhEBJ5N3c7DaMODIFIKH6/IiL0fqq0Wg0mpMFAhAEBFQhtSd0f0mhkUqnTau/7F4oaTu3FFRfPGcJWl81Go1Gc7IgAXwiSVAhWUK0untPe+FlnOH0/fePTuV7mBllS65JXlKtr80KAqwxj8hKEIECaExO0TpeBYBSdU5OX6sowmOozeDTMTAErE+9VUVQ3yo7J8JciQCqWRjK2sDoH0G9S1WcgDE1jNFZM/PPY3PYI4gKSgkgn5TPWc+OnS94+SvK+ZmH9u4NJ6cVUJlUiWpTEkTra1PCESwOjgEWn200awUBBBI8Ab4EUc/U8bjoKsy6XYUnoB7VSxmCwcBkYLDaS6wkCBUEspaKhQgmA8cAm9feZqnAk+AKCOX6NpHIEC2GnCEDIFCSSCgSde5mHQeOzGBzzzaBAgqJ1lr+tXqQM7TYfJQORfenjuV9V2GPgbP3h4CEArmGwuU1IgTIK+WRqpAKESzbjiUSXqk4vzInL9W0lNWVYyKiMAzL5XKxWNT5m5oSk8HODOxuhVYHol9vLSEQCqZ9OJSHZ3J1lFjHgG1p2NUCbQ7wml8FQChh2oeDM7AvV2NfnCN0xmB3K3QnwOY1dgcJQCqY8WBfDkbLsNYCnQBRbyBjw1kdsDUJNq/9gIFS4Ek4UoAnJ6EcrKPEWj3x9KXdZocDHAFAlUXluZnynpwshetgDcPYznTy/HajNarPS2ImqDw7U3psch2MAUCDxXZnMlf0oMEAgYQKp7zKUzn3UJHChks+Apo8cWZr4sxWljSRISnyB0vlJ6eC0cr6Sqwi8pUqSUpznhTh4X1P3/7Vf3UrZXd01AQEoCkpc1JWXRWSMWYYhs4v0ZQwhO44nNcJ53VB0lw02lMrCAigHELShJESzHj1GqjM2HB2B1zYBYl6XAUAEZRCSJowXoa8XzMvls9ZflE3dMbBqEMBDAIoBpC04K5ByLk1uP9JE85og0t7YUuyLuPDRCAJuuIQSNiThcY31gCAwGNGbFcmc1Wv3ZeIrlH5gqfNYLCsKqLxTbaRMuNntLRes9XscCJ7ZCHgSbP85BTJho/NIpgdTvKCjtZrtyJnAECSRM5DhsGYK0Sje0XImdnhpC7qzFzRw1MmIIIif7QsS0Ew7q77XEOZ1E8r5VckEmdzKz01I+//RUKplKIObu7x/Ud9L6+UqqrXHlWIsm07Fotp/7X54AjbM7A9Ay127X2+eQwGvUnojUMxqIsL6xjQl4RtacjU8yrSCH1J6EtCOQRZo/rvFoe+JJzeBj1JsHi95l8NB05thT2TUAzW6sIiQNqGU1uhNwF23Uq/EUBvEna3wtNT66SvyOKG2enwtMVis60Ws5nR4rBY3b6m48IThtkeM1rseXvQdMyuGJqcpGzwZCMimm2O3RvncXN++hWNmNkVQ5tBCRsUbzFvj4Fmi212xXjGYnOPpdOfMlocaIKabWVFP6qULMRLHOcsw44jhox8pCOhuLNSftT33LXVpZ9H62tzgYhWJsENB8sLbQYhhBaEZu2cQIaQsqAvBQfzUPU4yHE+Pm5Zfa3cicHRV+E7UMseHUNImNAZhwMztfpItDjrTWFbEhkHNWc8geSkatiIc4SECV1xGF/rEDEictM0LYeFfP6rJATJKbCRatWWIUCMz/b5cB0CVTCafDUZLvbOEZHXJ3puNSbNTi4u2hJZuF63yEA0F029IyBHNGqVqf5ErUE02OzZ57eZDI31+bKWIIGGhPjPUuGwCC9zYlsNQxEMy/DnbuVhz5uRteqta31tMhhh37SVPmBwe+GHG1ow1qcmu4j4Mk8nR9af7FRAw6VJufqocpNBiw2MAdTqWVogRsaWciJ5eHaeLCK04MgpqpQGVSsvCwFMDimrhi4y4zwRTzoQg5KxOO6xGJeufbx7i4C9ibaMlRgsZUuh+/xnMhm0OeAYkPfXaHBa2d1DZsxduK2SQz4lx7aBF69hn4yBxcDi4IoGO0OLaIrWeZ7lrVlPG5vp/jSTLcciiUaF+Em5fL9biTIPh0Qlpbwaea4RWl+bCwRso0S3yljCmt/oMlmUlSkV0NHK5HDrk5e9811nvSptxQHAl+FX993+p/ffOO2XPnnpOz96yduO/fwD+ZHdX/8tiJw/sw7BsQAAYIPRBal2lVnsQLlcjlG5DAIADMbD3/sRALz19r/4j/0/W/zea/svuuN1n1r2Y/u/+rahUnbRBpwN9K3dVdiCb5+J9wxl2KKZV0n0dH95xApouRNZ3PjwRW/9gwvemLES0Zafj+z5o/v++cHxfce7li++acgeh+U6TCcEQ5ZAq1ulWsRCra6AlBG6UyrwgQjg01e+50MX/Oqyb9/5///G16/78JW9Zx+768tP/fB3fvZ3R21CBF6vZ0ajaTAEUCFVqb1/sYDW1+YCAQzgDpoWM+c3Ksb4crMW337Fx1+z4zIAGCplXRGc2rLl3We/+qy27Vff8sGsN/PMzCAA9CXaU2bck8GR4jgAHClOLJypbi0lQ7SY4TBr8WieXOEqllAOvcjyFivZHW8FgGdnhqJwkVAdM5a9xlLIx8AJEgHPVAzO2fxHS5KWYCuN+f39Vb//nrNfAwDTfnG8MnNqy5YX9517x+s+denN732ea6nFmiUE4MBsNJxFDwyiNMlAEM87OBEocaQ43hFLA8DuzBaOLOcVs94MAIxWcsucTIurRrNqtL5uVF7Ue04krp97/JY/uOcLBPTBC371b698z4t6z7mq99zPPX7L5x6/BQBufsUn3rjrqr25I5d8638u8ykNbC7nT3XDKVee1botev26nZfvSHXPH6OI/vrRb57x778NAO899/Wff/F7AeDib/3PVY241tTUxdKHKw8YOdx6xxnXA8DdI0+84tYPezK4qPPUe9/42bQVf9+5N/z+zz+/4rVUarikZOm3uES3//T+Gz/2wFfm/zyjtf+BX/28zc1bDt47Up769Tv+Mto++T/+s91Jf2Xfj//w3i+t+lQajWZFtL5uVK7omR3T+/Rj345con/Y891Hs89l3ZnDxfH1tu54/MZpL3vjrqui12899Zq3nnrN/C5J6q8f/eb6mXbCZOyEzU0A+OGRBz0ZAMAj2f1/ct+NLXZib+7Iels3i1BSzDmyp6R7v3X9x21uDpWy77nrM+ttmkaz2VBKSSmFEHp9zgbG4rPfnVCzTWcgxc+GH1tXo1bF55645dZD93/12j8GgH/c870Hxp8GgNNb+j92ya8fKoyd2GfROiddG69MD5ay/cnOl/df8pnH/zOQAgD+/olb1tOmlXnJlvO/df3HO2OZsUru2u/9SdbNr7dFGs1mpgnWImmq4unpgejF+867IXrxO2e98h9e/N5/ePF7HW4d960A87lA10Oc/ntkzzf2/zR6fc/o3q8/85NvPPvTl269gIDetSSg5vlZ/5Smv3HHX45Vci/desHgb9105+v/+o8vfPNq39nYKNx3nPHyO173qc5Y5unpgctv/l/RxPCJsd69GY2m+WGMcc6jFE7af92ofP/wAwcLo6ekez9y8Vvfdto1BvKtyc5o1/v/+5+e//2KwK9rOtkTmKl7/3m/ckXP2V/a+/27hh8/kVMQKFr3pLg/H9nz0u/+0b9c88Ere89+2dYLJ1fpFBJAoOqSPHk53rjrqn992R8i4F3Dj7/hh38245eq+RQiWMdkvxrNRqNKfUUAftwWFCOWRlqsE0RERADHWdqk6rEOtJ74Mnzlf33k69f96Qu6Tt+R6nGFf9/Y3it6zi6F7qpWwQYKZnyoTZWINbEr0/fJy945WMr+8X3/cmLvjCSqGKxvurWLO0/92Rs+nTLjX913+21HHtyfH17V24SCYghBI+5/0ox94er3I+CD4/te9f2PuqKqFbdSga8g1Pqq0ayWKvXVAugFaFthuAgRDcOMx2JOLG4aHNcpwcrsgBZRGAZuxfV8TwixksRmAUYA1l9tToRnZ4Ze+O33bk91Z6zEc/nh9557wxU9Z+eD8krHI+CL+869e+QJiOJXh4og1rmxJKIbr/lg3LDfdNdnC0HlOEe+uO/ce0afXJoU1BOQXed0pn980ZtTZvyxyQPv+MnfrPItL+47956ph1S2Am4dsmctd7rOWAYAPvqLr0TiGjNsADiO0CZM58zWbQ9NPDv7d9SVKQUg1foll9BoNhhV6msc4CyA3cf4fI4Ti8VjtmU7jtPS0trS2mrbNl9XfZVKua47M50rFAue63m+51YqQRAsPowB7AGYAAhW/qim5chctHCrkwSAlYb+zmrb/qWXfAABX/SfH4CCDwMFGCrWt0TdKvi1U69+yZbzv/bMnbcdeXClY9qc1Gdf9Hu/fdYrrC+8UtHcE0cExQCGSzBWWt+r2JLoWPxnwnSG3/Efvgw/+dC/f/6J7y45ePZaznyFdecL1EQZ/EYUfpmfjw/nioL860s/9JZTrzlUGDvla7957PGv2XHZP774fV975s4FfQ0kjJXhcL5hA9oazSagSn1VAB5ADmDW40A0DCMRT2T6+jq7e1LpFGeccy4MQ66fuM5DmUyyszMmZRiG+fzM6OhoKTtRqVSkmG1uEgB+M4duCAU5D/wCHJ2/6a0Xvrw72T7/55WtZwBAvlCAw4umACshAJye3vLYr32RIfvEj78EB/NweAYez4LfCOdpAaFgvAx5F5CAzV7JG3ZeOV7MfeAbfwWVwtLjt3jR/x970xdaY+nb9t0rD00vOE+K4FAeHs/CTNCIRn/KBa+47J5fPrfnyt6zL+jY9dXL/uDhoX2/dv7LMlZCKnXPw7+A4bmLWriWL7bGUrc98d/yviEoBPUaMFEEbggjJbBDAPrF9IPhy4XJjS9e+b4vPXDLjtbeX9t9NQDc+vhdRz0qigDgnae9/EMX/OqMW/zvxx6Y3UsAeR/2TcHjWQg31iyKRrOeVB/fpABCgACAMeY4Tqaldfv27e3tHbFYzDTNaEy4WeINOWemyQAMIh6LOelMLJ0eGhosFApBEBCR3SR2roQn4WAWpoaAaPF89ofe8c8Xn33BkmNnjozDrc8t/H1tCc6FpB3f8+xT/+Mj7/vlE4+CIiiFMOM1eljVFfDUMJSngRRwAz4F0VTCez/6wdyPH1nm+HQWboCoDNlvfuJ3v37rt47aqwiKAcz40IBy1gTw2DjkRpcdGv0/d3/ssn/efdkFl7z94le9/eJXAYAf+H/wFx979KYfLHct4W9+4ne//s2bIOeCV7f+jVCQLcPjA+CXAWgYnvuA/PDfffiTZ3Tt+Mzr/iA65N5HfvGR930I3EWJOz4qIQ5t8fQtd3z/9//8j0azc6uoFUAgoeDXNCeGRrP5WWv8MCLGYvHu7p4tW7d0dXXbtl0jw+oCItq2bVmWZZmWZQ0ND2Wz2cBfU4L1RiAUZCtwaGaJIv6fj/15Z2fnkmMPHjwI+xfqyXzh05//0X9+v1KpfPvb3w7DEBq+LGQBQTBSgskZkEoivuvd7waAYrF48zeXTyjx02/+4F2D00R06623ZrPZY/Y3tsTmeAWOTC/bI8nB9OUXvfD666+/6MILW1tbjwwM3HrrrYODR61+WXot9f4KFEE5hIECFAvRXfqnP//bW7/8zde+9rXbt20rlUqPPProbbfdtuRNH/hfH3AcZ2Bg4Pbbbz96T8OrmS4LAcljoqvW1bBlTk7r9vMiBcsUwV2vZXgUtTO0dONJQBRNq5RSSq1VX03L6uzs3L5jR0dHh2maq3jH+oOIiURyy9at3DCCIMhNTdWsemj9oPlHdoHvfXfp9N6x/OTOO+tp1olDsw/gjf/yPNHCT+3d+9TevY0y6/lY7v4v5sc/+tGPf/Sjlfauw7VE1i6yeWhw8Av/dLyFW1//2tcaZdwJQwTSFWLGp6Pn2kkpEusj/ypUdHQ0NSmiUFEgG6+xBKDKoSwGS7aSpPWZMieiUJE4SmJJyJNh/n5eXNeqrwjQksls7e9va2/bKOI6j207XV3dQeD7ngfFoo6K1GiaFyLlCvdAfvquYbPFjmZJSJF3qBDO+DUtKbZaZCksPzWNHFncRANJEvnKPZindak/TxROeaVHs4BzyzUIlFCVp6fletQTJKnCKa/08IQsBjxhAkMKpCyG7qHCppdYRGSMMcaIqHp9ZYylksmuvi0d7R2WuYqEQU0GIjqO09e7pZAv5IUA19USq9E0LSQpGK5M3z4A86UDCZQnVEWsj/9aEeWnct7hApqMWZxCUqEkb51GwghkKSw9Oe0eXhSFJ0l5QnnrkICFJIU5r/DgRHnfNI+byFH5UpaFKATLDGJvLqLUD2vVV855V2dXX1+f7TjruMJ1LTDGYvF4f/82LBWZ72+AUWKN5iRGBVJNy4X6QFGHeN3mO4lcoVyJCMAQ5lLYrI81s/aEanHQ3DraQ0CCRDGQ5RA4IiIpIkmzcxYnDdXqK6JhGOl0JpVKM7aBkxhzzlvb2maSKZ7Nan3VaJodapp4qzljiGB9M5wssK4CvwxzE8DNZFNDqVIaDc7T6XQqneaGsUGd13lM00yl0ol4YqNfiEaj0Wiahyr1lRtGKp1OJOKbQJEQMZVOJ1Mpra8ajUajqRVV6itDdGzb3IBhTcsSj8disY06i6zRaDSaJqTa+jmIjDFkuDkG1rlhbIKBbo1ms4IckSEpIrV08pXFDLs/wWNGtGYmnPREvs55xBGQI3JGimhJwT4EHjPsHSlmMlIkCoHIesqT9Q6aRZMBASk6dibYyNhWT4w5HAjCSS/Meaq+hSln7w8gklxqD3JmtNl2TxwYkIRgrCxmAlrvLOj1Yy3rXxFxk+grAjZHIT2NRrMU5GhkbBY3xLSnXLlktavVGet+86n29hQiuAcLM3ePFB4YI1m3GCgE5MzsdNBkshDKQrDYHuRo9cR733mm0WpTICtPz+R+OuQdyJNf37pDVldcCSWnPRUsPUtsV7rjhp12bwIU5X8xPvPzEW+gREHdYjkRmGMYLRZIEvlABUdpObNZ6uKujtfvYAaTvpy+Y7DwwFgw4TZLwFotUEpJKYUQUso16Osm8vY20aVoNJsNFjfSL+pxtiQnvvWcOmaBKRpoZGyz1UEGRsZmMdM7XAjG3Dp5RcjQaLM7f+WUMOfP3D2yNGUSMmZxs8022xwgMFsd5vCJbx/wh0sU1ktDuMm73rTLPVzI/WhgGYNtbrQ6ZodDAG3XbwOCqR8NBOOV3MQ8AQAAIABJREFUOsU8o8Fiu9KZK3rc5/L5+8aO2Y0szs0OhxnMAOi44RRm8clbDym/JnpPc30divy/Wnzm0hOc0PFrzY+o0Wg09QMNtLpidm+CxQ1YabUrA2QADJEhj3MeM5G59XJfTWZ3xqyuuHIlsuVbcGQIDAEAHW602Wa7HU5UZH3yOqHF4ue2mb1xf2T5ws8Y/UNEBHQ4TxjMZoj18hiZw62euNke8waWK5SJgIjR/UEAnjDMdsdosYPx49V+XgUkpV8q7S/mnyQKDYM6O9jWvjNmy8zMLqMizjljy6guEam5wsY4e7/m90D00Akpi6XS2PjY80osY4xzbhgGImp9bTrm01fOb1n8ekNABNElLO5CKrW0OHqTQrMZuhc2NLfdRKSIljwwTW7zCYDI4waLG6sdZUIEA6Fu0z3IGYsZaPLVnAEBmMGYzWEFJa6BPQzN9hiz+CqOBYDZXkidjInuD4+ZaDJYReoPRESTMbsGGRSIROBni4W9SgWxmNPVua21pXW+/RFCZLMT552ze9eOLQzZkncWs7mRPc/ISsU2eNw2TWO2ZLmQygvCihsKwiI3BpNJnMAT+mVpfW0ulFL5mWmDc24sfDWB71cqlQ3UYoZhkMtNCSEW66vve36wPqliV49SyvO8crnE2OxvjAiklLOlh5oPpch1K5OTWc/z5jeKMMznZ4QQTX63V8sJS0KdoylOTL7rHN2BiMYJ3p91vDnHPo9Yq/k5Igql9JXylWIMwZgLWY26m1O5qZ6O9AsvOM00l6geTT5zqOWZfXHGWhJmwrFMc7azIqVyfSxVYGLGfTYUw8YJr5fR+tpcKKWGh4ey2eziR04p5bruBmorK5XK4UOHljzHSqlyqdTkvngoRHYyG4TB4mEkRVQqlZrz/ksp8vl8EPicL3gwRBQEgd/8hRfrhA6nOA643jfo6J8RIjYg/oWIwlCMZyePDI1Yi0rRcMZSyXjS5Ke2J0/p6GxJx5YdPd6zf3xiMA8nPkes9bW5IKJKpVKpLJ2NaM7GfSWklKVS8djtTS6uABAGwdjoyMT4UXEZ0Yh9c34FRBQEfhgusyKl+e92XWhEcz3Hap4IBGBNJfmNWiqxyp9LA7+vn9z9y4cffdo0DURQREBg29ZF553+st396YRtm3xZQxDRMrll8ioq/2h9bTo2QbO4ZP5yA0FEUkq5oTJRb9y7XS8a02CvULp86QYGyOo4H9zUrL7/0RBm8gUpZXtr2jTNXK5QrrimafT3ddEpW2yTHyeRPufM4BxArHTASmh91Wg0m4vGaBmuONe47CRjs9BIU573XLOTrw2ySQi5Y1vfy158iWPbP7/vkSeees73AyFkFPR7HCMQcLm44+dH66tGo9ngEAHQ7NQiQl3jY08UXKh43jQ0rP+xysMaeHt6e9ovveRcyzCODI7uPzTo+6tK9VW1gVpfNRrNBmFVbXGj5hdXGRUcVYdtHoVtTHzTys79Msc2sP8xMpK954HHLNM4dGTYdRcFAB53KHv1sy9EJIRwXbdcLq8tf5NGo9E0H43xX1eQ12Oa4ob5Z03mJa9SNRGxYfOvAPDswYHs1LRtWROTOdfzLcuaW0GuaGU7oiXmVZxO66tGo9kIrFKoaraechVnWv5Ey0lsU9EYycfVO6YNukF9vZ2dbS2OYzOGbW0ZIrIsc/u2Xm4YfiilWlFfpVKrjHlERMMwYrFYIpHQ/qtGo9lcIGBj/KHVj382akS2qcDVj583yvTLLjn3yheen0rGoz8JgDFMJWJmNlcoexkmTQDOZ6O9o16SIhJCVSq+H8gqAp21vmo0mk1GQ9rsaGK1OWyZP1UTseJAAi09rAG2IDKG/Vt6zjhtp22ZR+0jmhyfGs0Ww1GvtyWRTjqmwSN9lUoFgcjmy0PZUilkYDknel6trwAnNH+t0Wg08xOMq4m3apjen1DWxnq3esv7r8utXarzvUGGpmlu37ZjZLxwx92Ps6Xph8GbzheMhElWMjDsksEZIiIQKEIhsSzjxYQ9pQgWpSBdJWvQV6pbhcWGQ0BaYzWaZgbhRJydBsgZR+C4KqFqmF/ZPCFOiMAR2eruTy1uEGNWPLGzo+slpIRtg2Wr+Y9FQMMw2tracnl3pjiwfP0cK44WISASHJUHEYEcW9ngBUHj9JUAFDVpxrgqkFLJZk2Ap9FoosKizOHA8PnT1DVEZZjFmL2qKjoNgiPwBkbiHhdkwByOFmuAnzx7QmYm4/1JuxOAOK841gGE6cVHMMaUIqVWCFM6TpoLRECgRuaXIKXCIBRCrLoqUlPj+97Jmwxdo2l6kIHRYtlbk2LaX1xIFTljtgH86Ay/DXHjeMYyWmzkSItLKyGgsR7pLRCMFttss5fUe0eTocOXBnw1wrlnZqvN05aY8WlxvlfGlpm0roU9HKgNwg4sMyCBXhHkCTXoUa2s59l/4lSpr1LKUqlUcSupTKa6T2gqCoVisVDcBIl/NZrNCWP29lTmip5guKRcEY00IYDRatk7UjxuNn5o1O5N2P3J8pNTKlhoN1jMNNsdWJoovu62IcfkOe3heMUfKi8UA0EwO2NOf5I5RoP9bLS5syPl9CWCkQopOatcCEbS4Anzed9+wqcDSlBwRfjca71HHQjHTeNWO/kUOosbdKUU5yukQVSESrGV5VUB4apHN5VSUkohRPXrc4QQ+fxMsVBIdHXjcTM3NjkEoKQsFvLlZi1AptFoAIE7RvKCDrPDCcYqshSSImYws92xt6XMNrvx47RGq916zZb4rkwwUZHFQHqSxQ1nSzK2O8OTJ1wodM2g2em0XtcfOy0TTnrKU0DEHG71JpztKSOzYE9jwpmZxayuZMev7Eq9oCvMeuG0pwJpdcVjuzPO9hQuHseuhTXRRZkk4xA4FMZI8UXOqFIqCIKDhw6+8bXXXHHpuce48zT13MDQXfdnDGpJ2JbJGWOIAASKSEgquf5Atvisq7L8hOWy2vFhoiAIisViulKJx+O4cuWBJoeUKuTzpXJJyBOujaDRaBoHgpGy2O4We0uSQkVEyJDZBotxXL6wWJ3NMZjZGeNp23HTKpAkFDMZT5g8dbS4Yp0z2M+5hmgyqzPGM5aqCJIERGgwFjN4NGndYBCZw51tSavTka5UbkiSeMI0MtYyznT9rVNKlctlIJFOxpKJ2FFnJnBy01bS2pIyWtOx2eBhgPnKVH5ox4Ng0l9aM3QlGGOc86i6e/Xxw1LKyclJo2V869atlmU1XQ7rVRD1EkZGhvP5vB4c1miaHQRmMWYd1ztEbJicIEce5zz+fFEo9TZnfvUDRx4zeOy4rXrDGmoENBk3LZ4GgNhxD2wQjzy+z3W9eMxBxCjfocH51r6uHQZrS8U6W+xkYvlHKzvtpgoC/AbWf5VS5qYmpeOkksm29nbD2HhLaYUQ09O5oeGhsFDQg8MazSYAEZjRRPn0cVbvm8YgBtBMw43IGlfv6IGH9jzyxL50KplKxkbHJv0gdGzr6isuesvl53U5Jl85+trkaHB29MKdVbGmG62IJiezAwNHisXChvP/hJTT07lnn32mkM+fVOKKy7HeRp0wm+MqNgQb61YjZzxhNEuJOgQwkNkcm2ahBTM5t1mzyD0CWhydxt2dnq72a666+K1vvL5/a7c1l8iJI3J+vDAixhivqlOyVqczCIKxsVHOje3bt2daWhhfj5mQEyQqITQ5NXnk8OGpqSkhTpaZ1yj3tG3bhmEubiGDIPR9bwPdB9M0Y7EY5ws/SyIKw9D3/Sa/CsMwTNM0jMUhlCSECIJglQnEG08ikTDNo2I+pVSe5wVBMy5pYw53tqfwgbH1NiQCecwwWm00msVlNFoso91ZuqxovUDkKdNstRt2wtN2b3/1dVfG47GBobFy2Z2eKc4aUp/TrVVfo3njkZEhIcW2bdvS6Yxpmpzz5uzhEpGQIgyCqampocHBiYmJwPdPHueVMZZOp7du7c9kMmxRd2wimx0ZHpqZmVlX61YLImYyLdu2b0+nUvMbhRC5XG54eDifb+qrSKczfX19be3t81uklFOTU8PDg+VyuQkHgRBx585TWtva2ELQB7ieO3DkyNjY6Hpbtww8bsROazU7YtKVFMh1T8vGHG60OzxposFIrP/3a3XHnZ3p0hNTKvBArfPdQQQjbVndceZwFagG2ON5/vRMURFNTs34/qq7GNXaVYNJUyllsVgMw9Dz3I72zvaOjnQ6HUVPNbh27kpECkpEQeDPzMxMTU1OZidnZqY9z5vddXJkR0RE23Za29o7OzsXO39CyMlsdl1NOwEQ0XGcjo7Otra2+Y1hGEilspNNfRWR5W3t7X19W+Y3CiGUVBMT44irDVBsMK2tbT09vfMdMiIqlUpN+8Cgxay+ePrSbmAYjJUpVEf9vAmICBSRakh6VwS0uL0lkTi7TXkyzHmzyacWnZoiYxoldTxtxU/NpC7sKD48IV0Ji+9D1EwqiMKPG2ENopG2nF3p5LntlQN55QpQR9+cmn5ZjOGRgdHv335PIu7s23/E8wPTNKJpVzqum0XVZgOuPj+iAJjP8EhKuZXK8ODgTG56OjfV2taWSCQMwzAMg3ODsXXTWAJQSolQSCmDMCiVirmpXC43Na+skWEKYP07lhqNZu0gMoe3vLjPaLeDkYqqhMpXJAkUkVQkSJbDIOuKnE9hI370yNHujbdc1Wt2xoKRiqyEFMjInmgwQOSDMFsRM8EqPqxG9vQnW1+21eyMiXygXEGBAkVERIJIKJH3gwlXFhsyfIzAHB47JdP2yu3OvulwylMVseDlE6hQBROVcMqnsAZDEbGYgwyz2VwWIJWMJ5Nx2zJ7ujs450IqohXH8JUi+bxZOeegOZRSVeprCDABIJYEVBFhqXiwXDLHRhOJhGlZlmka0XBxdadZM0QgpQiCUISh53uu64ZheGxPhQNMaonVaDYFyNDqjrV2biWhlCdURShBIImEVL4S+aC8N1d6bDIYqzRmwJY5Rmx3xtmRlmUhisGshEQek4Iw65b2TJUeyYpCgySWx83YaS2xUzOyLGQ5VJ4CoUgRCaUCGYxVSo9Nlp/MyYpohFeNaKSt5AUdiTNbwxlfFsNocXM06kC+cA8Xiw9nvYGicsUaJfbM03ZefP4ZvV0dkXtORJyxro5WMwjKXhg6GIPlc0uFQgbhasMjImWVUlavrz7AEYDhZYdViTAImBBNEm1Ii1ArJPFHgFDrq0azaUBEDsg4mownTJgd7yRQQJJ4ylSukIWgYZIGiGggT5k8YRw12klEp6TNdocClb9/tEHTVBhN2yFPmjxukILZ0WACIHK2pXjMEPnAO1hQfkNi7hCQI8a4ZcWo3Vl8c4DAObWFxQy6W3mHitX1hxCRMebY9jlnnnrxhWc79lHhVAZnpYGR0kzFkmEQqtk44jnJIoJAiImCXxJqlcttotMxxoioSn1VAD7AiuGDRNCswZAajeZkAeeXnx4VIGp1x+2tifIeDoUan60n1oGAY15WHduPx9mSdsd6G86OVPL89vwDYzWf9bSY2R3rKIWV6SB/7N6kFW+3W3P+TEkszP2jwewtSXtr0h8sQa311WBGt9NeCiv5sLh0H6JlmT2xzopwp/yFKEUWNxJntXmHCv5giVZYHBDNsPtoFNDxwSgiF0drIee8vb3dD2BgeIotLQALwcSkX1GTpXJmJrRMvjiUTxGVXX+kogqmBeGq1iZELuWa9FWj0WjWi6++6G8ubDvr2O3fGbh9Z3LrSrv+7LHPRa+5w420jWYt18xc3XPpR879vd5YJwBkvdynnvzS7SP3AMD7znj7u05787HHD5ZHX/2T34les5hhdsZqW8nNYMb7z/ytN21/ZdyIAcCR8shf7vnCfROPRHuTRvxj5/3+9Vuu4sglqZ+N3f9nj/19ISwBADDkScNstWubdfLc1tM/cOY7Lm4/hyEDgOkg/7UD3/23A98Rala03n3aW96x+41JIw4AT80894nHPvts4VC0y+xwzFb7+GuaQ+BjLPOYsd0kWeBqBn0iNVs0GNHgRnt7Ry5fcfcNHLsYh4KAzDiX0pTIjxZmIgiB+XEoSgn5Zfoox0frq0aj2WCMViZarTQA9Cf6OLJ8UIz8s0kv5zBrpV0L7zcYs2uZtfic1tM++4KPcuSjbpZI9cW7P3Xxn0z6049M7c0F+cOlIQDodNoTRsxXwWhlAgBG3ImF9zPEWuec+sR5771h23UAcKQ0nLFS2xN9n3vBx3/17vceKQ0DwF9e9IdX91waKrG/cPCUVP+1vVcmjPh77v8YzMU8s5pmLT4tvfMrV37KYuaYm71v4pHeeNflnRf+rzN/a2u8588e/3sAePuuN7z3jN8EgOeKRzrttrNadn/p8k++/qfviSQfTXb8BcQEGKDxHO+eZCkkUtx18RDBghOMDG3bDkIZhCtE6ZvWCnOvsyIZVlXAVOurRqPZYPzpI38Tvfj5K25qsdLfHbzjb/d+eckxx9mFPNKzmunH7532No780dze3773wwTqS5d98tLOC9592lt+9/6P//vB7/37we8BwN+94CPX9l55oDDwlp+/f6k9tbJjjjMyp0Ti+skn/vFbh29LmYnvvOSfGLIXtp93pDR8dsupV/dcCgDve/DP75t45JL2c//1yr+6vPPC81vPeHx6X6RGtU2I8aYdr7SYKUn+xn9/aMKbAoD/fcEHbth23eu3XfvpvTf6Knj3aW8BgC/v//bnnv63Fiv1vZf+c7vd8ms7XnXj/m8te3+ISz9VLm5Z1EeRKj/tDU1VQJFhBC2WHwNa9zyZWl81Gs3JR+3E1WbWZZ0XAsBtQ3dLkgDww+G7L+284IXt59nc8uUqQqhqrQMv73sRAEx4Uzcf+SEAFMPy9Xe+U80VOr+6+1IAyPkz0XDxQ1N7xt3J7ljHVd0veHx63+xkNday/9HltAPAuDcViSsAPD6974Zt13HkrXamN9aZNpMA8P2hnwLATFC8d+Lh12y95qruSyJ9PfbuKFNWOmfkGYcXNnkCns7Bc+MQSsfh8XgiFluIY4pKuSQTsZizTClDFYSiVCEhEWj+yThqyTSikNWEVm0qfe3gPM6Yq1RWR1dpNJoVQKyloPUnek1mRFOq0Zahylg0A7ot0be/cPj5PiCyqWb2AMDp6VMA4MmZZ8/M7L5h23Xtduv+wuFvHLw1iirand4GAIOVhRSSQ5Wx7ljHKaltc8bUWPCjQek2KxPjjiu96KYBQFm4Y272RV2XRIct3MDyGACckty28BFH26O4DNKVcMvk7N9EUA7h0AiUB8CXSsak2AFgz+0kKWVuOtffu2vH9r5jEg2Tm50uTk/FpLANNleeDmnuvULIfCBHq5KUTaWvFzux003rQBj+oHxMcJpGo9EALLgmNZKQVjsdvSjPReFWhBe9yJipld9XRzqcVgA4Jdn/9av+Lionfm3vFa/e+pI33fU+V3otVnqxtQBQES4AZMxknez52sHvXr/lxb2xzn+67M9vG7qrJ9b56ztfp0h9eu+NoRKRPaESgZpNalGRLgCkrSQCLp84CYmYInMuoJcIDAEYgvJBSaU40WJ3k8IwHB8fa7/ynIvP22WaBi6UzQWGmH/uyOTB53bGza5M3DhmYLzkBnsHcveXgoPGSjO0K7Kp9HWrYZ5jO02d312j0aw/tVwGM18cR84toY9GiQEgipVtPBazAGBHcus3Dv3XdwfuuLLrovef+Y5tib6373rDl569KTJYLVKg6HX9qvxkvdxb7n7/X138R5d3Xnhx+zmR5/qRh//2jpF7AMBYwR4ERMS154cniup/iKeeORiPO+2tmfmkuYyx9tZ0q8l72xLdaSudco4dFI+nnWzJT3oKVictUXIJKaUQYlPpKwJxWDnJlUaj0QDAbIrd2nyYO+etWmzWv7H5bJnuxT7i8ah1ut9oDHbUzX5qz5cIaF/+wEt7Lj+39fQXdJz7pWdvivbOWwsAFrcAIFoFSwAgCYSqoU0I+BcXfejyzgufKx759uEfbk9uedvO1/7fCz844U4+Pr0vssdgC2IU9Q9c6c2Kbo0SxO956rnB4fGYbc1/mGWZF557+st29acdy7RNXK4ELGPMsg3L5HAi2S1m9bsGVjcNKcaTjG2qLoNGo5lPMHRcYtw5u+XU1ewiqShUVKPkf/MrbdqsTPSi3W6JXsyH8ywBAS9pP3fBHqA1ZI8joqXZ58fcLADkg+L89uHKOAB0Ox0AMFKZAIDWOWvnDZ61loCkUlFdhBrxgo7zruy6OIpnvunQf/3Vni8+PPWkw+1oTU5kG0c2P5w+a487d/dqpPS56UKxVElnkju29+WmC/sPDj6z/8joWFYqYZrsOAVg+YnUf2WMcc6j9PsbW185gIloISYYO8U0TzHNXtPsM80dpukgOogWIl/vEG2NRlM9RNITynue8JKru1/43Zd+8aU9l69mF4WkPAGrzth+tDmkQgWLKglmvdyomwWA81rPiLac33ZW5D5mFy+6nWNXatu/vehT7zvz7QubFJCoVs8IRCEgcdSbH8s9DQA7U1sjEUXA0zOnzCvonulnAGBncmvKTABAykyckuwHgCem982aEyjlyipVjYDE0nJAUdqN+YneKKQZAHrjXYvPe17b6dGL89vOOMoeQaoWmaKJaOf2vhte9ZI333DduWfvTsZjUd8EAdlxs1dUneV3Azt7CNDOeSc3TMQMZ1c58fNsu4cbFzvOm1Ppn1XKBOgrNS7luNRzshrNhoQkiZwvcj4JQmP5Nu6G/ut+a9evFMPyw7knV7NLuiKcCVR19XMEyVIoKwIkwVyGiu8N3Pm7p7/1zTtfPRMUGLK37Hg1AHx34PZj370jueXbV38ekf3jvq/Pb1SeEDNVFqsnofwjRVkMYFF+3NuG7nrvGb/pcPsLl/3vWwZuv7Tz/J3JrQAQpZS6c/TePzr7d5Jm4m8u+dM7Ru69vu8qgxmlsHznyL0AAIpkKRTTHlXX/wiVLAXKl6BoPkPF0/kD0Yt3n/aWG/d/qz/ee3nXhQCwd2Z/5L8+PPXkxe3n/Mk57+mNdZ2a3nFOy2kAcMvAHdG7xIwvCkFNxhvaWzPbt/Zyg52yvW/fs4ddb3W3HauMhtvY+nptPPmmVLqNcwMhjizOGAPYwo03pzKvSaaAYEKKm4uFm4o1TTNaZ5btKG24IvCb4yo2Cpv5bhNIV/hjFX+oZHbGkC+zdCRjpX4yfN8nH/mHY/3FZXZJCkbK/sG8KldTgk2FMpyoeAcKdm/CaHeiJFD/svemF7afd1HH2R84653RYQ9PPvnlvd9SixYKRnIVN2L784c+/tBnnsw9O7eD3IOF/L1j1X1fJCkYr/jDJbsvwRNmdHMm/MmP/fLv/uKFf3hWy+6zWnZHR/5g4GfffPa/FFHeL3zioc9+6tI/uaLzois6LwIAocTHH/pMoVwEAuUKf7DkHi5Wl9xfecIfKfvDJasrxuKz+rIv+9wXn/rGu858y7W9V17be2W08WBh4G8fuzE6y//3y8985SV/sy3R97Hzfj/a+9Vnv/PgyGMAAIpKT0y5+/M1qSf47IEj37vtrnQ6eefdv5zITi/63Rzv5lO1E+QbWF8JIKfkgAhLSnLEXsMwERExBMgrOSgEI5iUMq82Ul0cRIzFYtGlzG9USvm+H4bBRmkxOeeOEzMMvrjXp5Ry3YoQTT2WgIhR0eIl28MwlE05CoKIhmHats35QvAnEQkR+r4vN8VCcPJl6dGsKoXOrgxPGLNeEQEAfaL0F7bpDOdG7376viXv+kTpL23TXtg19yTKfODun3EPFJ53zHkFa0CW5czPR4Ip1+lPcccABCJ6w8/e9orzX3b+9nNCEe4ZeOr2J+5SRy0RgS+P/tvt7Xe6ofv9R24XUka/byKQldA9kK/sn6l6vpME5W4b8A4X7f4ki6b8CP4DvnHfD+5+5YXX9bR05SuFe575xS8PPDr/lm/Cfzzwo3tfc+F17cm28fzEDx69Yzg3CggkKJzyKs/MBGPl6orVkCJ/tDJ9x6A/XLa6Yjj3Zf3fu//q6x3//tKzr+pr7Sn55X3D++988i451zg/DiMv+clrX3/xK3d09s+4hXueeeDRw3sIgBSpkig9mg3H3bX7r6Zp5HKF+x960jSM3HTBMJhtWZZlEoCUx6ugHlVfq+KMG1tfn/T9gpIOMgbQwfkNydRuy34m8G8tFSekRACPaDBsSKHgGsEY6+vb2trWahgLX43v+8NDgxMTE8d9axMRj8e3bduRSqcW9xJ83z/w3P5isaiauMdj23Zf35bWtrbFKysUqSOHD01NTTVh/4Zz3tLS0tvXl0gk5jeKUExPTw8PD7quu67W1QaSFE55pcqUN1RiFlucV+jGO7+40rtuvPMLy25XrhAzgXJF1e01SeWPVqQrvP0FNHE+F8HXfvyVr638rlvvHFr853ySIAqkyPuytKZmyhsoimJoPjsDs2E4BAA5GHzsmw+s9JZpGHzspsWdEoRocLgcinyg3Gp7ZgSqEroHCuG0z5NH+Qk5GnwUlnaDFvYCfO57Ty0ZnCAi5Ssx5Uk3XHu81Y7+3u39vclEfM5SMg3j1FP6Lcv0AiEEgrXMOYhASCmq6m1sYH0FgCERDokwejRMxG2m6SDb4/vfKRXD5msKVwNjrL2jY8uWLZZlzW+sVCr5mZlsNtuE7fuy2Lbd3dPT2dm5+NdVqVRGhodKpdK6mvY8mKbZ1d3d379tsTsopcxNTeVyuSa8/4yxRCLZ29Pb2tY2vzEIAs75xMSY53lNaHM1EMhKKCtN01cmEtO+mK5y0rT2EIicJ3LeetsBEEmsL4PR1a1NaghRfNL555x25WUXpFMJnA1JJmSYiMfY2ES+6LaCcBD4MXFOfijKJc8LBMAJrw/e2Po6DwEERJNSjkuRV3KDiqtGo9FoaktUjTURT3R0tLdkMsbRi1yDQE5Pl6cKvlvx2sqhYRwlsARD658ZAAAgAElEQVRUccNDeT+vqskZuUn0NcIAZHo1jkaj0ZxsMISECZ1xCCRYMbCP8jUNw+jt6xsey//8/iePDQYMi2WXrKcrIav4y1SHJQpYPJ8AqDy/Rx7lOvZ93/M8KeWm0tcJKQ6FwYTYDDEdGo1Go1kdCCaHbWkkAKlQGlByYG4yAREZZ6lkquKJkfHpY+sCkZTKioFprzTFS4hBGK5GX6NATiFEGIabTV8f8rz9YVCoqpCQRqPRaDYkCIxjssVJIUdFlouxQRMLi/cj51wpCtQK3hfnx59eVasLxUdE0zQTiUQqldps+jokwqFmXEPRjCwOe6lZJtZGQTAbM7+whRZ2aGpL9HjM322iGmWD1WhqBBIkJF2aFS894NqCSsSfDvg48MWPKQEhIDu29B5F/xHQipOLVG2xpU2lr5rjQ0RKKSHCIPAZW+isCSGaec3MsSilgiAIgoXK1WEYCiFUVWvUGgzRkp7B8RbeNQNCiMD3cS7/KhGFQbg5VtZqNgcIYAs6bSp89TOVeKjGTCPXak/ErLleNympisXC9q3dnR1tS4eHCcJCKRgaNcPQMbjB8eid4PthWcEknWT5ETUnChFVKv+PvfeOk/Oq7/2/55ynTd3ZXqWVVpLVmyvuBZuADQYDoXMDuT8SSAGnkOSmEgjcm/tLfqk3BAIB8oPQITYYgzHGxt2WLUuyettdafv0mWeeds753j+eLaPV7mq1O2VlP++XMDvztO9zZub5nPIt5vDwUC6Xo2XfsmwuZ9uXTKAkIpbM4tDZs5n0TLIeIUS+kLetlRGfMA+IaJrm6MioXRaWKqTMZjOOs3IDaUZHhs1icdorBAFcxykU6lBiuSJ10Svcn1laXtrJY6cHTxWx5FxrFn/OshvAyWRFlbDHn5YFstx5peX/LhA45+Pj41fs6Ltyxzp2XpGcQv/Z/NBga0gmIqrCJoe40zNili0GUqUDlhy4+GqDgb6+ipBSmqbpOA6ltPxXJQRf4WmVykHEYrFo2/5dzLztF1yso2GLoVgs2LY9PHxOriUhhOd5K3MKARGHh4cpHS3/wiBKz6thUxNCQ0xrCaktxlQFsSU9cwnxE/Z6adsdt6TFl/jgJ0ANRWsLKQmdqssokUIAEKQnvaTlDpeW08FS4praFlIS+nL1FUFa3EvaXtJaWv5hACCMsIiqtoaUuAaMkCVI5JTCoURZ4u5IiRdcWHI+EEQpZdEsJtPpXD4fi4anZ4UJJdFwKNIYbUgYvQk9MVX/lZS1n5QIMHF6pLiEGkeBvr668Av/1tuK5XLp3oVvubNi0hIsBqfe5hKFGKuiDTd0RrY1U225Jb/QlebLqcwvhu3+wtJS2hKVGr2xxA0doY2NLKQsc0gtTK+4N5n+yaCXXmo7UxLemIjf0Bnqa1hmQXcU6KXtwvPjuSdHxdJS6hPCImp4c2P82o7QmhhRlhUyiVy641bmkSHz5ZQoLj2FEyIKIZ9+bt/w8Hh7WzNj1PO4lKiqysZ1qy9vTTTFjHhECxnqnIfHQpqhKuBc9Lcl0NeAgIAVDTVYeHNj4uYuJabBQmXEFodERHBGLW/CXkrVGkaUBi1xS1fDtR0sphG2XHtQIFWpKLjJBwaXMhdKgOosfkNn/Ko2FplbHi7GGlBbQ+hKZ6hUOpJB+6JnKYhC9J5o4pbu6K4WFmLnB8NcrD1aZ0TaQhS90pHMMlP8j09k8jlz8OxoQzw6PpH2uNB1jSDuaIwYmnL+vPE0jFFVoUvQ10u7/mtAQMArG8KI2qjrnWElrldAXAGAEiWhaR1halx0ujsAoCpVmw29I8yi6vLFdfIGW0OhjYmlKRFRaKgvPlk8pwLWANWo2hbSusJkSVPfVGdae0hrC7Gwslxxneo9hNY1GKuiFejKIG7d3PfB9979nre/fvPGtYzRUslyXA8QKF3IVkrIgttnX0VK6c9UBePXgICAFQwlNKrSqcprFYFojEWV+arJXuBYSlhYJdqyR2az7dGWdoOEEr0ttLS+wjxnJCykKDF1aVPNRKE0rC5Nm+dDias0oixYAX2xdLQ1X7lrM2PsyPGBU/1Drjud0bpinyaWEehrQEDAioYqlCiVfF5ThVCNEbo0ASGEkQqKK/juPEu+P0KIrizxXuYzRqVUZ0ucLSAwZ43eZUEJmX/y9qIYHk0+++LBeDQ8MjrhlAX4VRBCCGPML4AW6GtAQMDKZq6H9fbGjde07GrQogPFoZ8MP17wzPP3CSuh13ffBAApO/PY2HMzGyhZpt/N3NfqurE32m0L9+mJF19KH57edFfPrTrTZu1/LH/65cxUiXVYnmDPc+jCTdQVbr+987pWoylpZx4eeXKoNDZ9MsIIObd4c0Vs6gy13t51fZvRnHKyDw8/ebY06r9/XdvlHaHW8/cft1JPjO+ZrH6zDFPKeenlY/2Dw+1tzf2Dw7bjhgydEEAEKRda+p4Vs74w08YSQgJ9DQgIuMT4+NYPvX/dW6Zffnjjez745B+eMUdm7fY7Wz74zjV3AcDe9KFyfZ2Mo62cvvZGu790/V+36I3+y49sfM+XTnzn7w59yX/5iZ0fPV9fv3Lye9P6Womw3tks3ER39dz6iV0f1emkVfdu+cDH9/z1wyNPwrRBtJLtAwC3d17/v6/4A4VOKs5vbXr/H+z560dGnwaA9/fdc33b5ecf8uzES76+VurDYoypKnM878zQKKUkZOi6oSmqKgE9ISTOO0QWiGJJ0UqBvgYEBFxKXN2y01eOb/Y/cDzf/8H1b+sOd/zFzt/+f5764/LdLm/e+o41d/pZ8apt0l/u/FiL3ni2NPqVE9/bEF/zjjV3fnD92x8be+7F1EGFKr64/tfgT4/lT08fcih34pxTVNTGhZuoN9r9qV33KlR5Prn/ZyNP3dlzy47GTZ/Y9dHHx593RFWmTGNq5JO771Wo8szESw8NP/5LXTde07rrk7vvfe6n+4q89GzypaybK9//yubt7aGWAp9jTmLJEALvuOf266/eaRj65FsIlJJIOKROJAslp1knIW2OUTsiOi53OF/ChxToa0BAwKXEPavvAIADmaOf3v8vADBhp//h6j+7umVnV6ht2Br399Gp9pe77uVSPD2x96b2q2adYTKFU4WyFK2OdF3evBUAPr3/X54cfwEAdjRu3NSw7p7Vr3sxdTCmRPzdfjz0i6cmXpz3LBVN3rVwE7137d0KVU4VznzkmT93pffTkSffvfaNg+aIRtUq6esdXTdElbAn+e/u+UzRM386/OSjr//PuBq9rfPa+8/87Msnvlu+8/pY7x1dNwgU/3Lka4u/hP95SuL/my2EhBCFKa3NTau6O1T1XNVDTA2J8bRJcvnmsM7YuQsHCCXbPTteLDgS2EV7aAf6GhAQcCmxvXEjAEwvcE7/saNp0/DQpL7+5qb39Ua6Pnv0P5v0hnlOUzFB8+0BgH1TluzLHNnUsG5n4yZ/6Oa/mfeKCS3WEWodKU3kvHOzS1Y6A/XCTXRt624AeGj4CVd6vvr+4+H/KLOloikS/esmNgLAycJA0TMBIOcV+otn18VW72zcfP+Zn5XvSQn95O57Nap+6cR3ThQGZmy6kD2SgKmSiQgLcZKmzGFk+ghCiKIobe3tyXRpz76T9Fy/LUQwJ1JZoZ5xMOJJRs9JeYmIlospMDIGgOfBRRLoa0BAwKVEu9ECAJmpGcWMm5MoKaFdoTb/nW2Jy96/7p7j+f5/O/7N/7Htw3OcAhFFxRS2zWgGAE/yIp+sD5pyMgDQGW4r19ePbv6V17TuAgCJ8kdDj31q3z9bYjJddsUTTy/QRIywnkgnAOS9wqd2/87N7VcrhD2fOvA3B78wvTqLElHKCiT+naIt1AwA6bJJ4JSTXRdb3RVum7Xne/vu3pa4LOVk//Xo1xd/fgRwFHK8RXtwY1gVYAs6WmAwNRT3a8Z1dXaNTBRGJg7PfQojNu/ZVYAIOI4DqeTiTfIJ9DUgIOCSgRLqL2f6Yy8fT3KdaWElBAAKVf5y18cA4M9f+nsu504/hAKQy0oVVIgooVn2OMLz56gZYdP6ek3rzv7i2UatoUGLvbHnVgT8kxf/tsymitgCF2yiiBJihALAb2x6n061rJtPGPFbO15zWXzNWx75iCNdQACB6MkKmuQ3kSdm7HGlCwBhxSjfrUlP/MbG9wHAF45/c7rzsZjhNBIoUfJMA32OKCAxbNO1A9Do1mLpfQ5jgvjXgICASxG/nB8BUr5KRgkFAIECAD604Z0b4mu+ePzbB7PH5zuJdIUwPeSVERCB0g/5mX7HFzAElCjTTu4bp38IAD8deeL55AGdaf9yzV9e1bLjru5b/ublL/hDTBRSOqJSerZwE01LTt4tvO/x30s6mbtXvfavdv9ud7jjrp5bvjf4ECBIW8iit+R8+ufjNxEpC/L17eHnVjv/wLq3RpTQuJ36dv+D59yRK9Bd0H8XARwhDyXl08PgSa4asrkHwg3TDYCInudFwoahz5HHQ3pcmBaRkk4V/Ck/sT/ZIcRiU0WugPxNBAijRCFEoX7WK5QICIQAUAKEoEDkEl2x5BoOc0AJYYSolDBKKMwEnE0WIkIUiJ6QHlZwYiQgIKCCIGDBM+NqNKyE/Xc0qqpUAYCMm+8Ot39owzsc4Z4xh9/YcysA9Ea7AKBJa3hjz60HsscGikMoUeRcd8JCtzIlIvJewR+tUkL9CsT+SDrrFhDwWP70Zw58dnpnR7jfHnjwqpYdlNA10Z5MOgcSRc51zhYrYswFm8gUlj9X/NORJ5NOBgDuP/OzP9j2a3E1uj7eCwjIpZdx3HELecUKOuXcwvQo1ieihAEg6+an3wkx4+1r3gAAPxp6bGbkjYCIzojpJS1YSAsQhIS8CyNFcASEBEQ4hKe2IXLOJyYmVu3csG5NDz0vb4Y1niq+PBHyHENhtGyzX2PH5SLryaH5o3dmQcqoh75SwsKK0qirjbrSZLCQIj0hCh4KyXSFxlSqUWEJL2m5I6aXdFBUYKaCMMKiqtJkqM2G0qizkALn1rlCV/K8445ZXsoWRW+ZiaQDAgKqxMnC4O6mLd2Rdv/lqkin/8epwmCb0aJQRQH4xK6PlR/SG+3+zOW//+kX/s+psX5pCet03j6VF6XKlNg7WRj0B2RdoTY/Z8LqSJdvDwA0ag3toWaNaPvSh0EgCmR88gFum5YwPXRE6Ugm/+xYBXv1CzQRl7y/ONQXWxVlEekIlAgShBQAwAQVRY/nHOtkzh4oyMo9A08Vzry2E3rCHdPvrAp3AMDJwpnJ1wg3tV0VVcIA8ODpn0uLT7aGRGlzc1/KOpW/sN4jgkSQOGtC2dfXVDoVDW9Zv7ZDO8d/mFBKTJVkTxzvbgzFwxqdlQkLgUt5YiRbzDpAFpWEkhBCKWWM1WP9lRAWViJbm6K7W9Qmg0UUYfLS4YzIOOAhGKC1hSLbmgglXsaxTuYKz43bZ4rLVzulQY9f3Wb0xf2qhNSYyv41ra+e5EWXT9heys78fKiC3cmAgIAK8vjYnt1NW25ouzKuRvNe8e5Vr/W9c/emDzXpiX84/GUAQAmy5PGMc/u6my5ft+PsxNBXHv7Go/seT54+LR1hDxbtU3lpV2b8ujd1yORWRAnd1XPr5459vUVvvK51NwD4GS3etfaNH9n4HoHynff/xt5j+9QcvO3yOwCgaJlP//+POp6NrrBO561juQpOmy3QRADw89Fn+mKr7ui6/m9P/VP/0ZO3bryxUW8AgOceeSb58ClhetbpQmXHr4+PP/+hy97ZHmq5vHnri6mDN7Rd2aQnAOAXftIPBOmKa+M7ASBlZp747qPoCfQkehI5SkcU9yfdkdJy5jIR0XGcg0dOqgprTMQn3wJgjLa3NrWHtEhjZG2TEY8Zcx5uOTxm5uDi+2O11leqUn1VNH5tR8Nr2oESb8K2jo2VDqb9QlEkSaXJ9a5oeHPC6GvQe6IEwJ2whbesqCyiUr0rnLipy+iLE42Rc8ObUCJQ4mfJgk2InnRTtjA9nqlP2Usp/UrhM90owXmlfDFqAyL6NdvLPd35pXIXCFO/vksDOfWNmX6Hcy6EuHTu4OL4Vv8D7+27u1lP/PC1/5Z0MutjvQDwb8e+6Uk+ZiW/ePzbyGXhxQnrRK50NNv40c9cvm7HwPH+P/uVP5g5hUR/QaoiONL94vFvf3Tzf/vNTe+7o+v6jlBrVI2M26nv9D8IAN8ffOidvXc2GYlvvPGfj20/3tXcmWhIAMAn/uITZ791aMaein5aCzQRAHzh2f+8u+PW1ljLQ7/9zRMnjm/bsg0A+gf6v/BH/2yaJuBU+1SOl9KHn57Ye23r7s9d+1enC2fWxXr9/sfL2WMo0Eva5sH0hit7AeDw4cPJ+0+jK9CT0l8f9P2tKmHPnr2HT54+29LUoKqqbTtSSk3Trti58XUb1yTCmqrMOzxVVaapCvCL7pDVWl+JSvXuiNEbIxqTJe4MFsz9KZAQ2dpEYypPO/aJXOH5MbXVUBK60qAZ6xqoSpbVzyRANao06iyh+1UmpC28cctLO8Cl71xAQ4raHlbbQoRRwmhka5MzWKyLvkop0+kUIvrTCz6u6xbNS2k87TjuxPi4bdnlvgKu49q2vcJ1i3OeyaaZwmamiRAkylLJXJmWSylLJXN0bLRQnAmp5JxnM9lLpkNzkeS94q8//aef2n3v5ob1CS1ucusrJ7/7lZPf87eikF7KyTx0xjqdF0VvcpIToaorPl88/q2wor+3782XxdcCwP7MkT9/6e/9cJ2Rwtj7v/rbv7/zQ7dceeOWvs0AMDg4+OnPfPrzn/t89exZoImkJYb2Ddzxn3f+wx//zU3X37hrxy5EfPjhh3/t136tmC0s4txL5A/2/PVf7Prt2zqu3dSwTqB4cOixT+3/P4AgLV46lknef7rpDxoAIDk07o1bvo9WxcNwOeeqqrS3NYcM4/Cx0xOpDKN07epOlFJhbIH6PIxStqRqBzWfH6aERVQWUYGAtLk3YfGcq7YY0SvatK6wfSpvncg5Q6Yoen6pIxZRl12qghCF0pBCFQqEIJfOkJl/YsQ6lvUniBBRievxGzoTN3eBRoCA3hVRm/RFnLnySCmHh4bGx8bLR34Spes4Ul4yS8KWVRoY6GfsnGRjUkrbtlb4E99xnDODg6Mjo+VfOkSwrNLKtFwIkctlLcsq75AhSs6549RnAqYGHMuffudjH2vRG8NKaMQa98ricKQl7P68PVDwUg4gfvjXP/zhX58rBLaiIOA/Hv6Pzx39RnuopchLaSc7vUHaYv+B/Xd++o0wznu6ui3LGhoaqrY9CzSRl7Lt0/mXHx+85cabm5qaWltbx8bGstnshc63XHJe4Xef/0xUjTRpDSknY3ILAABR5F3nTNE5U+zp6al8IPC5IOKGvlVvfdNtCmNSynyhWCrZnAuAC9R/JQBLKzFQ8/Er8YszkGn5pBoVBQ8Amc5QIEFQoirV2OTOy6/5RwAoISr1HZqQS+tIJv/sGE/Z0xP6nmYZfXGU6F+MRRSqV66e4sWAiJZlAVh1uXqlEEKYZiVzh9YMKWWpVAIo1duQxeIHHngXn1nmFUDSyYCTmfWmtLh1MicsXvsoAEe6g+bwbHtswdO2LHG3ZJ04cWKeQ6vF+U3kpWx3pISuBIB0Op1Op2tpT9Ezi2VlfBDBy1XYV3lhQobe3BhXGGtqjGuqWgJ7EQctnXrGv7KoavTFjXVx50wRXckLnjdhUZ3Fr23XOsOLOMGi8cN+APxAIJ5zedYpXy2XrkA+k6+EEKhwfceAgICaIF3pJe0FYzlqCUpX8KJXyTjD5SFMTxTclTIZgyhLXBSqkvR4Tl56+ZhlO4l47OUjJ7P5skW3BdtjyY1VT30lKlWajfCGhDtayj87Rg1FFLzQZYnQxkYWn8ykTCpRWYKUFRAkQIhCqEpFWYISqjOisUBTAwIudVCitFeMbxcC+HH8FXUXWg7IpeSVzM20LBCkJ6Vbu5WviWS2aFrhkJHPF7kQhqFTRhGRS4kwb4SrnzJikZdYAfklfCSiK3jW4SnHS1qAQEMKDTE//JQwutyyw9NQIHQqL4dCjLXx8KZG+3RBOgIo0JBirI2H1sf9TBcBAQErGgQUEiUQSgg7LwUewqTTaS2Zqs59/noWIkC15eP8FvDT9dCZebvyrRVMzLQo0P/fPMkKJdRscL9964Y1q7p0XSWEIEpAUFVl3ZoeTddtl3Mxr75yIT1xEfpa1/yIU8VyhS3swWJxf0raXO+OEoOhLazjOfNASknoWqcCFSuLSKa7JlSh4c1NIMBsT4sSJwDUYFpnRG0Nz/FdDAgIWDFIi7sTtsi70ubIkShESehae4hFVDg3604tQJCW4FnbSznIJUokClUTmtoZoUpZasLKFcKbGzL1XwnCdN1xW5geehIQicLUZl1tC1GNldlTK3FFEBbnKZvnXeQSgBCNaq0hJaH7/jfle9YAQuD6q3e+9uarDH2m1j0Bwhi1Tg3m8lYjuroIUTarmDu6Li/mS7bLARabX4IxVqf8EmWIrGMdzngTdnhTY+K2bn1VzDqdH//SYfNgJrylSesMVyw58+T6KwE/CabBwlsajXVxRASO3oSVe3JEekLviRBWH7emgICAhUEu7YFi6oF+83BGmh4CEIDwxkTTG1ZHd7TSUK1/uehJ+0wh9+Ro7vFhaXNAoAYLb2tue+d6vSNMlMWm06uQNSAsbh7MpB8ctE7n0RMAQDQau7K9+a5evSdKNTq1Y03kDFHa3D6Zzz46VNyfFKYHQFhCa7pjVcP1nVpr6Jz+R/UhhKiqpqoqAPVm+VJ5PF20xtJFmHDceNjQp4u8Et+48UxhMFUqSAUW5/Tqr0XWLz/iFDSkqK0hFlFYXGMJnUYUGlJAY0pcJVpFv50ECJmcnUAurRO53OPD1rGc/6tALtGTiXh9AnICAgIujEBnyMw+PmwezvCUPb2caR7KoEStPWKsjtZ4/skZMXNPjuaeGPbSjj8oFBYvvjiBruj+yDYlMfM8wUrHcc6BRPNgKvPTM+ahtPSmSgVYkHtqhFBouadP74zUspaMtEXpaCb90NnigZSYKhUgbZ5+cBA4ttyztlr9D1L2bwpKqWEYmzZuOt6fPDv2izmsdT0eaVYRFUKJV34uBAAeDjs6Fl0PchcdxVRn/2G9N8oianFv0jlTpDoTpidyrnFT18y3s4JDWADf/cEbLTn9BS9p+/UDUCChpNx/OCAgYEWBiF7Kto5lRd4t9xWSjhAFD7mYXOGb2rsGJnkTljtUFAVv5nII0hE869TemwkR3ZGS1Z+X5UULEGSJi8J53svVtw5d6Zw1nbMFac7U4UGBouiKUjViyQgxFG17m94SpgJ1j6mZCHHKNxNd1x1XOO48cYN0fimkDCjwJX2mdfYfZlGVGMybKLkjJgAAARZR9NVRJa5d+PhFXsWPo532H2ZE647Eb+yUjgRE9KQzZNqn8rMdJYKl2ICAlQOCtPjUSt6KQJieKHgrxTEYQZa4rFDFguWDQvK8y4t8UV2d5ZdvAQgh2c3ZdZamcrQEHZQsA6T8xIhIqR9IMvvhTlASKcmkD9b5HmooYX7f4gWpd/3XycAZMtPGhChxjaqVnT0g5TMGRGNqe1ht1NXWEFGp3V8ovjCudURmfP8CcQ0IWGkg4CJ9OGsiedKV0l1coAvWZsxYc8fg+UFE6Qj0xCJuvAIrwgQgzOWuUef9ewthT46qynca1WxInSk9KkQun7usb1VXZ0t5GVp/u5PJm6fPhLgXNzRDV6dTOSGgEDJftLOuGFuSYfWNzwH0pHTKirwioEAvZetdYRpWoRrzw5409yXzT48avbHIjha1PaQ06Q239DCDlS0JBAIbELCyuLhncA2Exk+QWxP9qALVTkUIIBBqHyg1py2IruueOnXqjpu2v/61V2valAeTv6SAOHHg2MDRQx2eva6hobmBKVNCICXarjiVzx/OFF8CdcC46KxH9dRX6Qqec4Ulzlkv4Vh6Oa13hvXV6kIHLxWiUGNdg30qX9ybLOwZpyElsr0lsqPZWBevxuUCAgJqTk0e6pM56BdhywrQmDow912fNz1bw/YZG0ud7h8KR6aK0CEQQsKGTim0dzaujqvRWIhTImbGrwCIq9saiqeSx4cLS4hjrqe+oidE3sXyBXkKJKSEtzUpzZOV7is+kCSM6N0RrStivpziWZfkvYI9ZvfnEzd3qbd1Ey2IzwkIuJTBGs7HLs6R6lUqryuvY/HzJ/bsO3hC0xRKqV9dSte0nVs33LS2KxbWQ2GVasosqwmAqjA9pKmaAvaFBdafi/Y8z3XdOudvQg9lySuvG0UYVeKK1h5mYV/n5liLXi6EsJDCwoqfGQr9BNwZRxQ9xGBeOCBgpbLo53WNkusu/iI1UZqLu0gt5s8XNzm86G7K8hkamUhn8o2JeDhsjI2nSpatqWpjQ0ysatPUspKU58EoURhdTCIuX19t2y6VSlLKuuorIgo8Z00eATmiLZAjUf10EJW62tSQH5GbHp+sf0doSI3saNZ7Y6FNiSA/YkDAKwCskYsxzuVPVL/5z8WrVI3kbFFF42sRHFzG+rU9N1y7OxQy9rx06OWDJyzbAQBKCKMLRU8TQhasXzcDpVTTtFgslkgk6jx+JX7ZuDJVQy551nXOFtWOkJLQKy2uflZGdIdNnra1roiSaFSbjdi1HcaqKNEXqq8bEBCwcjknnx3WZjyEi5KPyV1X0ExprSbPV2Y2gbW93W+4/XpKSTZXOHXqrK+vF2TJwlBXfWWEqoycOypHIUvHskZffDLFRDVmiBnRe6KR7c3GugYWVQmAc7ZIdUXrjkwOYatw0YCAgOUy71jw3F9sbcJUFj1ZveKUplb5mRc5P1zLGOLhseTTz+9njL18+GS+uNga1ZdkfTogBM4vfyHBm7CENRUoXXFxpURpMvReCRJF3hUFl2ec4ktJY1VUbQ8F+YcDAgS3nPUAACAASURBVC5psGbP63n0Y47O+YoT2JpwEYP7GrUPIeTYicFkKksISWVylu2oqkoIQUB5wfp0SzKyLvo68w2cKRtXtpEajFYtFBUlekm7+MKEO2JKTwL6/k02CysrJzq7ejDGVFWl7JylZs4F554QYoEDVxSMMU3Tyv0REEEI4XFPruy78NuflXXjJi333MUXmKwxhmGwc/udUkrP8zhfKdmCZrOifscIsGLKrcIKbJwauhk3xKORcIgLAQDxWCQeixi6lkjEAIjjCjl/iQghpVh0fbpy6py/6fypE6rSyNYmpaVa2fZRoDtsmgfT3pjl51pDiQRqV4OwjjDGGhoS3T098XhDuTglJyaGh4dyF5+9ui4QQhKJxtWre6Ox2PSbgvN0JjUyPJzL5epq3QVoaEh0dnU1NTVPvyOFSKWSZ8+eLZXMFSixhJB16zY0NjXOZL1BtGzrzJnBsdHROhs3JzV7Xi9yFQlXWqRKrRaDFzkyqkF93CluvfHKK3dtUZQZHWWMNiXiei6fKzktYRoy5hZE1xOOx5eQJLGu/sNcSpOXx+ewiBre0hje0qTEq7b4qhCjL970htWT+Yc5OmeL9rFsretJ1QNCiGEYzc0tra2t5wyhpEylknU17SIghIRCoda2tqampuk3Pc9FwFQqVVfTLsBU+zd3dXVPv8k5l1KOj49bVqmu1s1Lc3NzR2fndIcMEYvFYnolN/UKErPFp3mqJSvJmFpNDxOA9Wt7XnPltnJ99b/PowdLpyZyZ4dGdZUZmqKrjBKKgFxIy/a4kGNFd0IwYIvKin+0bdc+0trNcdSqS331KdCTouiW6ysCSk9aJ3IspqmtxoJHLxHCqLEmpvdE/U8VObojprUurraGZiR2ca7YAQEBK5CV5K0bcC5zhC9VvfNBCFFVtb29fTxlPvfScTbLoxYhNzLeL1XLtAGFrhFNJZQiIHIhLUcIIbmiFwwNvEUtiLRp+F9n3Sz1XsjwOs8PzwqJkZawj+coo/qq6KS+zlXuYHmXBKLQmbq3CMbauNYVIYycO4QNJDYgYAWAIB0hHUENZXE/yio/sf2o/YsINkWQ1VR8icLkF1FWqNpyhoDyYnymEZfvj4YALiOnE8qjfSGdY4bDqUJxImlOnxcRFUU9cOj0sZNnzz9ccOFZnmQqIlBJiAuTpXeQSKoiASDEcz2zVFrMfTWMHemRmR+NRFeH6lxfnWmdYa0rIkqcUCC6QhghjNCwUrtUDwSISlmFy/UEBARUCIki6/KMo7ZSuGC/FwEloCOqFxODAoXpCdNDfuGwVkSQnhA2r55Ls+9QIky+KMlHRI6SV1HvkUtheugIWEQ+PJQoXXlOitylXZRAUaO/WBt6sVsnCCJpWT/p945nK3mXCEIu6ntFEu0HHaO3iR4v1DV/E4uo4e0tSouRe2qMhZXIpkalUSeUEJ2yaFWS+wcEBFxaoERe8NzR0qISM0lEkzsjZvXKxEpXOMNm6XhOljgs7BSJgK5wJ2znTFHa1XJrRyGt/rw7YYlFXAI58pwjcm719F6UuD1Q0LujF75lBGlxb8LykvbyrysJFDVa1CgAgElBcnAWlTui4uyNbHjXmrZ39upH8/WdH6aEhZm+Ktb0Os0ds6QrJZd6V4QodKbjU6VxLILMuXzYRleqayM0rgbzwQEBKxNp88LeJNWZKMwhDO6oNfLFwyyiTg7Psq50RDXnh0GaPPfYEEo43x4Uwj5bPPOPB6hGAUEKyVM2z7lVjP1DQE+m7jstLS7dOXoVpSOZ4c8fZIYCBJBLd6QkTK9axgCARHfYzDxyBh2B3uzIJGnx3NOjzmABKAEE6Qp3pPQKi93Yfubxu5RreiPrOjVW1/p0Je4NW8qE3NzWt37NWmF6J86cPPj8EVylGZfFlUaj8pKHgJaQpywctBNqfEPb5t5Vq08nzxx/6VQx4ZL1BolMNUggtwEBKwMUyNM2kLkXDoXlmUcyk79YP1lBtWubSnTHLZjTD1eCML3i/tTkA6Tai69T2GcKc9sD4GVdL5+e9NmsiT3SFu5IaU57UKA7ak62np9p6xWXfEMVrgaCACi0fvE5MufFMuo6sqkj0bi1ZeP2TdtQ4iH94Kpis0ioQ9nkiJ2xopycl39iGZdEVsJ4OtzjdLdGY23NrVu3bF3Xt+7IkSOHzMMTRn6M54+M9UPLIt0oAgICash8z2G/lHeNfYYXuBoCLCkXwbJYyB4EUfOYnAWuJgFWXpx3laiHvkrEgqfnlN3qhvfe8sub122aDq3bsGHDm9/8FiHEDx/84Q+OPny0cRj1ynwvUKJaIl3QvJ323X7DDdu2bdM0jRACAN3d3bfddlsul3v++Itf3fv9U86IZK+Wjz8gICAgoErUWl8RES0uDxQub7jyV9/93rWr1p5fdY8xdtfr71IU9atPf/t4+1gFli4QMcebR0J3X33rLVuub25snhUCRQhpaGi4fttr2iKtH/nUx+xttDwqNyAgICAg4GKpdVwK2sI7Zl7GV7/+ute1NbexefLpK4py7TWvuXP77an/OCnyy1qNR4k8a3sH841D+upIV1NDI5urji4hxNCNnvauK3t20D2meTi9nIsGBAQEBLwK8WN4EBGx5vmbCJKIp29o7tu6aUs4FF5gz8ZE4/ruvjWhriO04MCyvNulKyNobO7Z2NHUpijz3jKlNBaLvfWNbzn6t0cGJk4s54oBAQEVhzByTp1mBORSurJePjJEoVSjMG2PRMklzuXEWyN7VEr18ryniJ5EXrfyAkSjVKXT6fCQI3riFeYtfD6IKKaotb5SQqOhaHtTa6IhsYDU+QPKpqamHTt2nDp92ll2JFMsEt244bJEIrHwboqiXHnFlQ1GvI4/koCAgDkgoDQb0e3NaqMOjPh5nZwzxdLRjDDrUcmHEK0rEtnUyGIqEAKAoujZg4XSoUwdjAEgCjV6otFdLcAIEAJC8rxrncw7Z4rViwZeyB6VhvoaQn1xajAgBBC9Cat0POeOW6/sSmWkjJrrK6W6rhvGonILR6PRvr4+TVtUVuWF0XS9ubn5gtf1M7DPN2sdEBBQHwhQnYXWNTS9frXREyWMIIC0RP7ZUXesJEqi9kNYGlYiWxqb7+zVmg1gBCTwnJt7ZsQ6mq3DEI2AktCiu1tb71kLKiVAUEgvaWceOeslLVGs9RCWMKIm9PhVbQ03dLKoSghBKZ1hE79/2kvatSyoXnsIIZRSX0Tq4N8khOCLK9JJCFHUyiVyWkTWfr9pVlx+f0JAIUCXbRVjoNAKnGdp+BFhy4+4IhSUCoZtvRIhAJQCq0Qrkfp9Yc4xg7CopnVFlIROQ8rkLWpMaTJoWCEUsOZlf9WEpneE1SaDRiafUarBtO4o0Sla1UxwMReEEK09bKyJsZg6FbzPiEb1rgg1lMVmT6ygPSpV20J6d0Rp1KnmD1cwtK5BaTFq7vNTT2qtr0KIbDabSiY9z9N1nSyoZKZpDvT3e14Fso04jjM+NmZZ1gWHsJxzXCHhWQQgpEJCh5AChgLLr6BHGRhRCCu1fmJGVGjQQWcQUYEt+y4IhXAU9OrPMRAAnUGjARqrWJcrEYZ5akxWBoNBTIOwCoYCeiXMJgQida4CMll2hQJlhNBzOg2EkoWfIVWEEmAE6EwuGkIJYYQQCqQOS8KEEaKQ8k+c+BbWp3kIYRRYeX+aEP/jezVR61+OlLJQKAwPDyeTScMw1PmHp5zz8fHx/QcOuK67/Ovm8/nDR45s3769sbFxgd045wMDA6ZpLv+Ky4UAGAqsbYBdbdAcqsy4UxIo6lDSQdTwW64z6EvAztZKClXegJK2PKe3RaAx6InBVZ3QbMBcPudLwQqDHYYqLRcSgPYIbG+FVTEwFGAVqj01FoIK/AQrwUqaWJq3cetp4zzXrr1JVSjdfSlSh/lhx3FO9/cfOny4sbGxoaFhzu4nIiaTyYMHDx49erQi+prL5Q4cOHDTjTf29vbO51clpczlcl/92tcGBgeXf8XlQggkdNjWApuboUGvzJeVExinMMbAqmE6l44IbG+BLS0Q0ypzFxJglMEYhWrXI280YFMzbPXbvxKmI0BSg1EV8hU42RwwCt1R2N4CHZEKzBP4IEBeWSn6GhBwSVGHmR/O+dGjR3/+yCPd3d2bNm6cc8LWcZznnn/+Bz/8YS6Xq8hFbds+fPjwo48+2tbWtmHDhjn3SaVSjzzyyP333z86OlqRiy6XmAar4xA+J1/jNe2bXtuzu8mIH8ue/daJx7JOsfyIhbfWh44I9M6+CwCghNy99rrLW9drVN0zfuz7p54Q55ZHUanyy+tvCiv66fzoz87urbXZANBswPoERDVfXFfH2t7Wd2N3tGWslPnuycdP5UfK993duv7W7l2d4aYhM/nY8P69C8R3ValfTwBiGrSFoUEHRhdu3ohqvK3vxssSPQLl0eyZ7518whaBhAYEVJg66KuUMplMPv7EE/GGhtLtt2/fti0Wi01vFUIMnjnz4gsv3HfffS+++GIFLzo2Nvbjn/xEIr7pjW/cuHGjYRjTQ2chxIkTJ372s5/9+Cc/GRsb47we7v6zIADq7AXL/++GD//OzrdNv/zzq9538/d/72RueDFb64ahQEidNbkdUY0H3/iZG7u2T7/z2PD+19//P6af8le1bfzibb+3vXktAHz35ON10FdKIKxCXPfb/23rbvz66/5YpZO/l09d84F3PfTp/zr1pP/y7274yMd23jO90ISA/37oxx/6+d/VIrP7DARiKkQ1YHTh5n1N++b77vpkW2gmVm34utTdD/zZCxPHa2htQMArn/p4LkgpBwcHH3jggYmJiZNXXdXe3u7P2UopzVLp4MGDTz755JHDh227AnUBp3Ec59SpU/fdd18mk7n66qsTiYSmqoQQIUSpVNqzZ8/PHnlkYGBg+bG2FYMCqHTa3e62nl2+fH725R8cSJ3++O53rI13fP6W33ntfR+/4NZ6Qs7xAfH5w8vfeWPX9hJ3Pr3nawjwZ1e+9+auHR/f/Y5P7fkqAPzxFe/+5DUfkCiLnhVVQ/UxmxKYdNCAhB7999t+X6XKw2de/PbJX7xj/c2v7dn977f93iNn9+bd0lv6rr9351sB4Af9T//0zItvWH3VG3qv/u9b3vDjwT3fOfmL2hlMADQGGgOyUPNqTPn+nZ9oCyUGC+P/fOC+Rj36O7ve1hVp/rdbf/fyb32kdtYGBLxCQUQpZX3yS0zjOE5/f38qlXr22WcbEwndMAiA63n5fD6byWRzOdu2F1MsfvEgom3bg4OD999//5NPPtkQjxuhECHEc918oZBMJjOZTEV8lSsG8b0BJ6XpVze/HgCeHTvyG4/9IwAMm6n/uvMvb+vZ1RtrHyiMLby17ncyS2B9a/9p/3995oWvA0BbKHHvzrd+cPMv+fp6Z+81T48e+vVH//4/bv/DK1rnnsyvkckEAODt626Ma2FX8Lf/+JM51/zOyV+M/+p3GvXYPX03fOXIQ29eex0AnClO3POjTwiUnz/4QO5D9+lMvbFrW0311e8TULJw8+5qWS8RHeH9t4f/+rHh/f5cwkd33LO7db1CGZc1D3MJCHhlgWXU0/Pe87x0Op3NZhljfpZ/X/Zl1cJjEJFzXuOLVopr2jcDwFOjB/2X039c27FloDC28NY6mQww13Jjd6SlO9Iyy9p7d751bbyjI9w0Wkr/yTP//ovhA7WdXD2fmcAGv20PpvtzrgkAabtwNHNmS1PvtR2bv3LkoQ/+7P/99Uf/Tqeav8Cp0sngXJvXfkWTAEB3dKHmfW7sSPeX31V+jEQEgLFSJhDXgIDlQwhhjNUnv8T5SClrr211uegy6Y40A8CENenwNWHlJEpKaG+s7YJb68y5EtsdbfH/mLZ2rDSZUq431jZaSvvjqpXDZNvaM652Y1ZmC/T2xtr9l67grphcs//f131IYwoCfn9qdbZ2EABCuqOt/qv5mtf/e3Ws7YrWDTua+z6y7U0I+KfPfqnW1gYEvBLx3Xrqkx8xYGkwQkOKDgCOmJnBdoQXUvSoGlp4a51MnpfYlEnT1tpTf6xAawEgpoUBwCnzsPXHprOspYT87fUf/si2NwHA3+/73jNjh+thLMa0RTXvnb1Xf/bmjwHAQGHsNx/7pwcGnq2HtQEBr2ReTbmqLmUkoj9fSssCMRlhAMClWHhrnUyeAmfH2k4Hikxby8jk97D+1s6FbzAt+7EwOrttQ4r+7df/ue/o9LmDP/z9Jz9XB0MRABfbvAOF8Z8M7jmRG+6NtX/3DX/hdwsCAgIqSDB+XcEgAPrqRBAw6xQb9VhMnSzqpzNVYwoAJO3cwltnzkfQVWQ+xBlxaZnm5VXXI7UTtrRd8P+YtnZ6RJu0F5V5wVExa/By1fYcr6hxj1Ruzh9n1n99g/1RbLnB020bVvQH3/Q/b+razqX4+FOf//t935v7nAQ8BYuGyPCZaQbBualzQSuR8hwRENJTbbhw8z448NyDA8/5sUZ/euV7/+mm3/rpmRdOzBXNlTe4yoFOiTQilrhrs5XYEwoIuCgIAUWhuk4QwXEk5xX2+Qj0dQUjEQQCTq5fHkoPXt+5dW28w9+4rqHL/+NQevCCWyfPRyETl0W9yPg5S6I8lfNI9aKScLqX4L8+nhvyJFepsjbe8fMhAID1Dd3+KuaJ3NAFTycJZOLC1PK0LEoZLY8X8h6rnEsRAsjJkfeh9MA9fdf3TbXtdPP6bUuAfOuX/uymru2mZ7/9x5/88eDzC5wyF+WOJgb5TOAZusLJmzb1KlDixJPgiePphZr3mvZNt3bvajbif/T0F/yR7g/7n/nTK9/LCL28dcP5+ooEjnQUlXK3eokyWfLClYydCwioMYSAqhJdp83NWmeXxjkMD9nZLK+sygb6ulJBAC6h5EFM84MufjTw7PWdW9/Qe1WjHs04xV/ZeAcAZJzCk6MvX3Dr5CkJSJ24Kpl1IXRszFYt2SCX4Fd4nrqsxZ1Hh/bdseqKd2245ctHfkIJfc9ltwHAw2dfLF8/nhcCQiOWSkj5r4ARRA/cyoVXSQmuAFcA4o8GnvuTK9/TE229sWv748MH3tB7tZ+c4Yf9zwDAb+94y11rrgGA333yXx8d2mewyXKKEuS009M0noKcISmXUpujdKXlLjcjPAIUXTA9y7UXaN41sY7/ee1/B4CT+eF/ffmHAHBP3w3+CabdoGbhRKl7zlyBgJxAuMTcAwMCyolE2M23NF53XWLVakNRCCKUSnJgwHrwgeT+/QXOKxMcGujrCqbEYawEDTooGhD47Ms/+OiOe9rDjcff95WRUnpb0xoA+PSe//Qf4gtvnQYJYHnhGYmQtSHrQPXqyY+Y0J+DkAKRmfzDn9rztdf27L5j1RUn3vcfjNDVsTYuxaee/6q/9Sd3/y/f7dl30H3d6iuOvPff/Xv8h33f9+8CyjXKk1BwYKIEhYqOX3MOnC1AQn9q9OBPz7xwx6orHrr7fx1OD25tWuOL6/PjRwHgt7a/2T/ic7fc+7lb7p0+wQsTx6/81m/MPisBJDCzIi0RPA6WB45YdtFphLwLKQuK7qee/ep8zfuD/qf3p07taO777M0f+/jud6hUWRVtBYADqdNPTsXzzD4vLWtqRLA5DBUgZS3P2osHYY4mqmsM1xwXP8/boHZMLietGLCObXEBdJ3uvjx+3fWNvb2hZBKHh4SqQShEurtDb7izBQAOHizadgUeiYF/00oFEbI2HEzCQB7yLrgiU8i97rsff3H8eLMR39a0puCW/uLpL//tc9/0h1kLb537n8VhqAjPj8JgftkP9/kZM+HlJJzKQtGdvvTj/S+9+0d/NVxMrY13rI61DRbG3/7DTzxz5mV/67pY58bEqo2JVf5YMKaG/ZetanyOuyhxOFuA/RMwkK9wLyFlwdE0jJpQ8t71wCe/e+IXGlV2t66nhHz96CPve/Az4EnwpEbn6aQi+jvM+88RkLHhcApOZYEv23IEcAX05+FI+vGXn3v3A3M3b6lUuvN7f/S1Iw8LlH3xzlXRVi7Flw/++HXf/Ti33YW+Lf6/jAMHk3AwCema6isiCkfwnCMtjp6c/OdK9ATyWhcP95GelI5vw+Q/6XB0BHp1KPaOAML0eN6daRxPSleiK4HXI5JcInoSHYmeRC6RS/Sk/9nV3JTZEAKRCLv2uoY1a4yxUbLneTh40Ni/Tz90EByHbt8e3bo1Eo+zpVXMmk7exDnnnAfj15WKP913JAWehOEiRFQgsB9Gr/jxmzsSLVE9PJgacfk506ELb50DT8KoCYdSkKnmWlrRgxNZ4AjjFoRmsvx/a883vvP1b61u6UTEwdRI+XTM+j23L/bkCOBJGCrCyQyk7Ao/1wouHE+DSqErktaTb3/2NxtC0bZ482guWbBnKhiu+diirZ2FJyFrw9E09FeufzNchD2jkHe+dfTr3/nG3M07BKPve/Sjv6qoq5s7EXAwOeKdN489B/5oJO/A4TSMFMGubY5uBFni9kCheCCljZaAEUBAV5hHMrzgVjbR2yIRJrf788X9KSWqAKWAIB1eOppFrx56huilndLRjNYaAkbAXya3hHUiJ+1aF1cHABToZRzrRJZolIYVQgl6UhRcd7RU94UFSkk0qmzaGAmFlLNnRTrdumbNZtuy0pnDpZIZiys9q4ymZjWb5a570e2GiJ7nFYvFfD5fz/yIARcGAfIu7B2DvWPl9dEWLu5zMaV/avUgyDmwbxz2j8/KNCEB+uFQBc5fpceHREjZ8MRZUCjoDBjNAVSmnJN/ckcAlxWeOXAFnM7B6RwQsnDzugAn4MDFX6BuabWQS7u/kLz/NIuoRKGAIEyPZx1R4nUxSRTc4t6kM1hkYQYKBYmyJLysUxexBwSecwovJJ1Bk2jUVzhR8HjGlq6offsgl+64lX18xDycpRGFKETaQmQdL2WjqLPAqhptalZCYUopQVBWr1p3z1vuSaVSDz+SQjwNAIlGpalZHRxwXPeineQppbquNzQ0NDU1Bfp66bCiVlaWBtZ7uWxpIABHWMwI76LPXE2tegV8Yc5DutKbsL2kPdndlIgSq7i0cUF7LO4Mm0AJkKnlz/oZAwjS9Gybz/TFpURRvzSjEnnW4QWX+LWzEFBiPe2ZwtBJe7umKAQAhMCiWRodG02n0pZluw5yDuEwi0YUxhZxrgsR6GtAwIWoqhAGLB5ErHSE4nKor7qfz4qzRyCIFdfRY4yEQpQQQimEQ2KwcPrRR+9zbMd2kooCAKAoRFUIIedlTr94An0NCAgICHi1QAhQSgkBTSOXbaSaXjSLJ2QcQyHR2cVUFSgBQisgroG+BgQEBAS8ipgeT6sq9PSwlhZaKiEAURQlHCaqSqAyY1cI9DUgICAg4FWHlJjJyExGmiZwDwFA00k0Ci0tzK+7XRGJDfS1wjDGFEXx+z9CCsEvgcqydYdSSgjxQ8fqbUtAQMArHCFwbEwOD4v+fpHLgh+HEwqRpiayfgNTlYo9hwJ9rSSUUsMwIpEIIQQBOeeO7di2LUQVk6ETQhRFYYxVbFIDwI+PRkSCVc/CoiiKpmmKokgphaxALAECSiE551JKv02qGjLhtz+llC4tIn326QAQOOdCCN/+asd7+J0bQkhF7BdCVPXbHhAAAOAhpG04mZ17a9qC0kIO/66LBw96A/3gOBiNUsZ8X2IYHBQTSdnTLTxv6T86f5zgZ5kI9LWSKIoSCoci0Yj/UkqpaRoQMIvmhQ5dIhohEVUNhUOGEaLs3OcjLipWkQCZVf8cEV3HLZVK0vMIoimlU7VHPCWkMRRqiESooiDgjJYs3vjz6rcjouM4ZtH0PE+l1EW0pJTVuQUKEGasIRzWDYOwC+jTQt2fcztHplkqlUogpEFJWghPVtErlFKqTLHMLpqU0nVd27brEwMa8OrB4nA4CcOFubd6cuGcOZ4Hp0+JXI5u3Mh27lT9WJ10Wr70kjcwIDRV8mXEVCOiL7GIGOhrJfEnh9lU5JQ/ILBtu3qjkFWqekUo5FIKnIM4/+G4mIuedxSiROSaFlZVibjHts8spzu3IAoh2wlZLWRWzCrgs8gLzqUHiBKB6zpR1QRlpzzvJdu2qjAIJwBhQjcp6nrKgAuLzz/4JkBg8t8s0wmZ3j71DoANxNa0FkI3afrnctnhauqrEAIROef+KHY5p5p+rFTOuoCAuRASsg5kl171iymAiLkcjo0JXQdEyGTQNBEAmUIYW/ovwZ8K8lUg0NdKQghhjHV1dt1w4w2MMtu29+3b9+yzz1bvilkhjti2X3ul4o81nRABkKtmvhWBeNqyU45jVdp6AkAIMYCnpahSgh8EcAFHOLdNUwJ48w+5yRzD7NnvkLI/JIBAGKMkKURBiqrqFSIGM7oBrypCIbjySu3wYTk0JFIpyRgggOBAKezarXZ1ypdeWvrJSRk10ldV1RKJRDgSYRXJilFO+YTiOe/jXHtN/TnPE2v2Npz1/wCIHvdM0zSLxTmfSpTSjo6ON7/pbsZYLpcrFotV1deMEJaUTUy5yjAiFYrZmoYAQYA+Rbzo2MO8KvlmJWJGiFambdfVip+cABAgR103xYVXHYklAGFC+jStgZKLvcDCnxYCUCAOSn/SthrWa4S0MrZR01qZUo1CHx7iEc992aleaeFJGCHrVbWVMRXI7NWOReOgHODeuBDuMrp6KiFNlG1QVY0ssUURUACOcXHcW1a1Co2QHkXpUVQG560ALZoSyrPLbhOdkFbGViuqsdQ2AQABOCH4Mc/jleiIKwpZ26doumQMikVsaqKGQZhCDAO6uymiRyskU1XXV8ZYQ0Oiu7u7vaMz3tCgKku54qJaFHG2Ns5VPgrnVM2Z12XbZ72cPB5d181ls+l0cnh4uJDPz3I1I4SEw+He3l7GWCqVaojHK+P2Mg8SgBDSwdg7orFOpfISBYCDnpcUokr6SgAilFylG78ci1fj/ABwX7HQoCRjqAAAIABJREFU73klUfkpVgKgE3KZpr0tEutVq9H4kJZ8r+NkpaxGvkONkDWKencktlPXl/wIXgAb5TcK+RroqwpwvRG6QjdilC35NrJS3G8W87bt4tJH8zohfar67lg8vtQnNAKUUD5jWye5txynAYOQy3XjdZGIsYw+x5jgD5XMvG15y5j0jxC6WdPvCkeblzG4slHucezTXq4CjyEEKUFwBCCaBpEIae+gq1ezWIxmM3JiQrie5BVaEKu6vkajsc1btl5zzWtCId8B56I/aSml78vqL236azzTa0W+vPk+kEIIQgils9a5LqalFhrcziAEN03z6aeeOnzoZdM0y797hBBKCJuCVtStd04IQJjS9aq2ugqPeERQgESr2UXQCGljbLOmVen8zyhMqdonwAhJULZOVTdUx/5xTg1CKEA1JnApQIzS1YqySdVoFb6lJSlbKz5fNReMkM2afmMo3Mwu5GM2P2NC7HWcvWRZtaQ0IB2KclM43LIMfc1LmZFzOFNcnCWErFO1W0KRCFn6sPE09w577gvOstrEoGS1ot4QCnUvaXDlYyKWEBVCKtLR9Dx56rS390UcHpGUwsiodGzo7sHjx/i+fbytTdgVqsVVdX1d29e3ZevWeDy+5Hhdz/OGh866rtva2trS2uY4jlUqaboeCoWEEKVSSUoZj8cZY9lMRtO1aDRWbUlTFEVVtR07d1hW6djRI657blnvmZU0snyfkcVAAChANZ5kWJMSwYRUxXgfWplI8XkhpFqNX4P6zJPGL+MRvACULH3kdFEQAAagEqIt48emThq8XCiACkRd6pkQQCVEqUS7MQAVQF3Gh6sCYUsYEp2L/3RSydLbBABUxEr1khHBNOHxX7hFk65dy5qbyYkT8rnnvJZTxLKwVELPg0sm/jUWjcVjSxRXznkulz108GA4HA6FI67HhRC5XPbEsWPhSKRv3XrGWP/pU4VCYfPmLc3NzYODAw2JRCQSrYGkUUrb2ztbWlpPnjgBMKOvpCzzB5nysqm2MQEBKxNCSGdn52233nrVVVfZtv34E0888cQTuVzFqvwFBFwsiCAFehwoIV1d7Kqr1L618qmn3OFh6YurEMh5Zbzgq66vqqaqS523tCxreHjIMIy29vZoNKppGufcKlme52UzGbNYjMZiiGCaZv9AfyQSKZVK4XC40ncwL5qmaZpGz/MqOqfPHqhrwKsYpijr16//wAc+sHr16mKxaNv2sWPHAn0NqC+aDhs3KadOwZlBuWYNbtykehz2PO/19wvPQ0orld6/+vpKKaNLXYNxbDubyazuXdPa2moYIUTM53JFsxiKRKyS6Th2KBw2QoZhGMVCIZfLed5yluGXwgWHp2Q6OCMg4NUHY6y1tfWKK67w+6OtbW2xWKzeRgW8qiEEdJ3u2KEaBmaz0nUxFiNbt6qEQCxGCkVsbuZnBpc+MPIzN/kp2Kofn0OWPoRDQJTI2PTyEJolM51KhUIhVdVM09R0nRAajUVVRR0bGy2VSsteLLhI5rxa+fCVVmRNJyDgkqQ2/gcBARcBAUUh7R2suYVyjvE4JQQaGsju3WpXF3VdNE1IJZfu8EfK3G5qE/+6xDGlpmnxeDyTTuuaHolEENAqWZZVYoxRSpPJCSGEoqrhcKShIXFo0pW3/gniyx8owfprwKubhaLSAwJqDwGgFBgjjY3MNNG20bYkU0DTSEcHUxQydFYsJ1VobfM3IS55zjYcinR0dh0/fsxxHN0wNE2jhKzuXdPS3AIA/f2npJR+0E40Glm7tu+Ed6zuYhZ01wMCAgJWLmQyIth1cf9+74UXPMfGhgaydi3bslXt6KAVnHNc0fkRFVVpbGrq61sHAJRRRVFVRVUUFgqHAAGgz/efIoSGQqGuLtXQjWi0Fs7DF6LuBgQErBjKutcYDGED6o6feYiAEJBOyf7TwrZR10mxiLEYTSSIkCjEJeI/PGt+SP5f9t6suY4kyfdzjy0zz34OcABwAbcii9W1dPVSs/T07dG9MxqNbEwmmWzMZLp2v8fVB9B9mY+hFz3Ng8ZM0pVkUtv0zPR091RPd1dV18oqbgBB7Adnyy0i3PWQAAiAAOpgIVks5u+hrEge5AlEZoaHe7j/HZjwuJEjgBYkkQsbZbSoVma2m6RtB7WRGCxjo9uBJ7YMtYlmKhcBwQEjsEJWgo4xdMRIJJnP3xa+ePteUvLNpNT+L3nReOI08UUfCuvAOSaCJOFej8cxE0GaUpKcTwvY55LftGMDPfJA5asm6av8qI8b5B93Nq5XxpE8XLLGsXiURL/pN5ey8KiLVAR9tza83ehX1JFyWr1+59HyfJJGJ/x9SkpKSkpeVrKUV1dzmzMRZSntqsgrBZUKGoODgdvasv482mo8h/jwE2/OI62b9IP6xv3oiL59AFXl/uvXP/thd3kmPFy2NHbq5xvTf3v/xi+32kddpKvt9y4++uHVu7NRcugHmPHOvdu9fufc7etefYmSkled0l0t+YaRZbSykg+HrlYTlQrW6zgcsjEwOyumpoTWsLlh19ettefgwD7X81cGcMCZ8LE40q2UwgmTBWFaCQ43jSS1CjKr7DEXSaUFnZsgqQTx4RdhYXQu8JkkGz8fTbiSkm8+XFrYkm8YRByP/edfxO++q27dUnnOy8tUreFbb+npadzYsA8fpr2ePZeejc/cvvLB/GHmr08AYkQ+6jOIO+/sMRdBAGTEIz+DwPjMXvzSfS0peRou85tKvhmMx/QPf9+rROL6jeof/pH2DoTEIODh0H74wfCjj0ajoafTNtwqOtAUPHP76r1z3j+r3ijfPBCOtuolJa8yBztIlpS8GKylTz8dE8MPf5i//XZtZtZkmb9/P/3k4/FvfzN88CDNz9B7t3Apn5N9zbI8TdPnKQv8wimta0nJ4ZTOa8k3AGaIY//Jx6O11fyD3w1rdekd9Hp2ZTXvbbqzGNe9+hLM/Mzt68ry46VHjxqNhnounSBfPKX7WlJSUvLNhhmyjJaWsuXlrDjRIwKic6gg29VHFEI8e/u6svzJJ78H4Hang4HKg7Q+SGfNkWfHkeCFvP6rpm9qe+gHMi+/GDbkqpwdHXmRluK1XvQvKzMtc3gSMjA+WqksLg2Ho6OMIQaBqVZr4oT5wKUgYknJHk4v31ZS8kxhBu/5XPKYjuKZ29c4jr/66suNjfVLly5HlQopFMLPHJ24K4B/bsxvZecob5cAUpJjG89QetRFJPLvJH2p2+ro4x7rIMm+9P7w7xECp7szr9+6rY0+mbUsjWtJSUlJyfPJH87SdG11tbe5OVlt6ESKSl+XQDxBkjIAAB5lfqWQr9++ff36Da3ViU1maWJLSo6idGdLXhmeU/0rEeX5kZpN30CklEU3WT75cWoZHy4pOZQyWFzySiFe9AC+bZT9c0pKnlCa05JXmNK+PgNKC1tSskvpspa8qjw/fUREDMMwMIH8ZhTqMLCzLo5j54/UWTwdpT5iScmhlJa25FsP7/A89CV2UUrNzs7Nzsx+Q7QmiGhra+uru1+ORqNzvCxiaV5LSo6mdGdLvr0QUZZlW1tb6+vrz9W+vjqUJ7AlJTvst6ZlflPJtxohRBiG7Xa72+1678vz1/OndGBLSgr42D+WlHy7Ke3rM6A0ryUlJSWvPK+ufeVns5kulCefxZVLSkpKSl4inm9/daY0S733zEfpIyIKJE/EdNRJDSIiIH9dqbpAQUd+CxQKEv68M4cLSutaUrLNM9rGlpS8DDxX+0pE8XjkvUvSNMvyAwZSKxWGgQmMFJgm2Sgep+k+yScE0EbXa9UgMEyUpNk4Tpxzey8jEIPA1GtVY4y1+WicpGnmaZ+hVUpWorDZbCHK8u0vKXl+MJf5wyWvDs/Vvmol52baUagfL6/dvb9onZNSCoHOeSKe7XauX5mtVSutRj1Ok8/u3P/iy4fMHAQGALzziNCdbr39ndeajRoirq33Pvn87vLKOgNopZg5ty4Kgwuznbe+cyMIQpvlX91f/PLe4mhrrJSUUnrvmbnd7Lzx+rVarfFoefPcnc0yPlxScgyldS15dXiu9jUMzJu3r9+8fvGTz++urW8maTbVaVaicHW9NxrHN65d+ss/++MgCKLASCWDwDxYeIyAN65eAsS1jZ619o1bV//sJ+9Vq5GScqs/zK3tbQ2jKJibmSKih4vLrWb93bdv/fl/8Yd57pSSFz6fzq2Lk3S226nXKv3BaDiK33j9+l/+2Y/i1A5GH57771j2pyspKSl5ZdkVl3je9a9Kye50+7Vrl4ejca1WmZ5q/dsf//DC3PQv3v/w95/enZuZuvXaFSEkAtRq0Wd3puu1aneq9df/7Z9JKX/x/kdf3n040+1cuTyntTJad9rNqU6z027cvnX1T/7gu1qr//Vv/y8AvDDbvTp/od8fVavROE66U61xPPtXf/HjqXbj4eLy+7/9ZG5m6taN+aXVLa3V+dvC0n8tKTmC0nkt+daza1xfkL4EAiIIxEa9+vqtq69du/Rwcfnu/UdSCtz3KZBCVCvh6zevaiW/vLtw98HiXnWkItFJKTndab1x65qUslatxEkq9pg3gYgCK1Fw9fLc5UszxPz7z+4iohDP1AaW9rWkZJvyZSh5pUBEIYQQgplfmH4TM69tbP3y1x/de7D02Z0Hw1FMdHB3m+f50vL6T//hfSnF51/eT5MMeG8+IgPAeJx88dXDn/7jr4l5ZW2zWo32XoUBiGhlbfNn//ybuZmph4vLa2u9m9cvPzsZmfL8taTkCQdehTK5qeTbTmECXqR9ZQZiXl3d+H9++kuj1WicICLRwXIa52l5deN/+z9/hghZlteqlQO2kwHiJP3083sPFh4z8WA0vnl9/sBXEfH6xtbf/9O/GqOyzD6H3640ryUlR1Ka2JJXhhdjXwWiFMJ5n/SHxRtXrYYH3D4UQikJgIPhqNB1lEW28W58GEBKIaRI0twORsVrK5UQe8LMCCiFAMBxnMYJMEOlEkghSgtYUvJCKK1ryavDC7CvCGCMqtcrrWbd2m2Fh0oURlGw18TWqtHFuW6jXiv+KIXotBvNRk0IUVxFCNFu1i9fmImTbPenZqc71Wq0/UUIgTFTneb8pdndD0Shaexe5Fn8doiIr64qVknJUXBpXEteMZ6zvgRnwzjuDS7U6//dv/3jJMl2hZyklLPdjh/FWZZ7T34QXGnW/4f/8kdPDmURtFKtViPd6DvvjVECxdvzFy7WKruHqcwcRcFUrdJ/tDoaxVQNK0R//MaNNy50dy03Ik5PtdLNfrK5xbl9FtGq8vy1pORIyvhwySvDc7WvPklHn37phlvz7coNKTBEQLmtocbse+ujpaXl5V7mKLoyda1Tv1GVYidbiIGJ2I17vUePtlZ7Roq5uc536pGoSYHbZ57MzOzzjdWtu/fW7620Lna6042LocGmFk8+AJwNtj5biRd72B+I837bEcr8ppKSw2Au+9OVvFI8X/3h3NLCozDvdy91wkAJxG27CMwMznncHMOdx+B9XV3pimklxIEEROuce9xbu/NYSmzSpanZljgYjOUszd3SZvz+5xe+f30KZxrVcH/DOGZm3hgGawOdJHju7zuW/mtJyS7lu1Dy6vJ89SUkNutRa7al51oewO//VwSoGj3Tj5G5VasoJZ++gjaqWY/m2rVaoJr1SMinTzoxDE23VW2E+uqFTrMePf0BBOy0qhdyDPr5U/9aUlJybhwsz3lR4ygpeV4QkffeOee9f672FREDo8xhhrNACIwCjczyEMO5jRQYGhkFSh6dBSyFaNWjYy4itiUmzn9zXda/lpSUlJQ8b/8VAaXAY6STEFEKRD7O7iGgEEIKcYwZQ0RznP0tZIKfVewKn9mVS0pKSkq+yRSlpEqpF1BJcvzpJAIIBDxeoWHHNB5vwoQQL0roAfGZeMYlJS89ZX+6kleJ51+pOaFz9zWfweM/gsAvqNoO8Wu2ByUlrxZ7XoeyBLbkleLM8WGBKBAQ2DM8JSB8GMdtXxmAAPBY28hclPMAHxNGZvBEx73Kz+wtP+i8lra25FWmfPxLXmHOal9VXZu5KgDny7EbfI1cAwM7oqd1hp98gNk7zwR09HWYwXpvvSDmo7xvIkoy64+5CDxDB7fMbyop2aV8GUpeWc5qX8NrjfafX6bU9/6/RT/qsz/OZBFxktk0s97TdpbT7svHAMDO+UGce+ubmY084cEoMDNDktvBKPO5i6ZsJTRPRYqZHI3TfGuUDMepqQZKHSiiZWBIsnycZO5oS39qyuhwScke9r8Q5flryavEWe2rCKVsaPbMjr5Wm8V5Xh/ni/1ENRIt5b5IKjMRbw3Sh1tJnFneitPAKLkvSbjwXFd68WI/MQLzdtxW6kDCFDOnqV3bGK1Y+vhx75IQjWq4m7HMO2JRqxvDr9bGo9w9A3XEMiZcUnIkpXUteXU4q33Nlsb9f3jsY2vXk685f2VIiO6x8H33EQ1EUT6zx39l5iS1a6Ctkos9V7cjIZ4kCzEAMDuiUWwHGEiGO+tZJR4WPu7OZxgAcuvHI7/V6twdcmspjgJb2PGd41pmhsE4XY39umd3zJ5gotPkg3+BZXy4pGQHPBg7OvbDZ35xTn3mc+CLTzmSPYvJeZ0+nW4kB1yd04Xp9rczO4dF7bzuzjccZmZmIiKis9rX/HFs11Ng5vxrbqIn3xuNMue/Gsf4+OjBIaBAXMqO/AQCAyADjOJjvo4QRZbD5uDIDwCkNs+dO+oDzrkkSaLoaQWonaEyEz/ltJfyEiUlu0zcX10pFYbhSRtbee/zPAe/rQU3JhoQHZN4cSgasSrE7s8YY4wxJx0JM2dZBs4DAAGPicZE2QlHIhFbclt+BwG01sYYKY8U5DkUIkrTdHfiY6IhkT35nNSF8DsG0WitjTmReA4zMFOe54UGLQMMicZE7iQi1EU0sCXkSxT22DWu52Bf2RF7ggm8PSIajcfjePz1taHPyz4VG42j/qnX2/zi809v3ny90WxIqQ78a57na6sry48fO/dUz/bSwJaU7DLZ61Cr1a9du5bnufeTulvGaGvt+vq67W8Vf3PH5r9M0w6eoPg9A1aI17W+rLbf8amp6U6nw8yTj0QIYYxeW1tNl1cAwAHctfbzPB8TVSfWGCCADfJ/WonmlQYAIWW10ZyZmZVK2vypReYwEEFKKYRYXFwU41Hxlw+d+3WaIGA42cLKAAmTEviWCeTOT0xNTbc7U4XhmMQ6IoIQAhF7vU3V6wGAB/59lj1w1jMEEy/xFniT/I+j6Jo2E/7ICwcRhRBCCGY+D/2mibcWzBPdm28CRNTrbX74we/iOO5MTZn9d5eI4ji+f//eo8XFfLJHv6TklWTSlbRWr129dv3B/ftpmk64plSrNaVUlmVbw+0w1VfW/kM8/quoGkxc2b9Ffo28Bb5QuImInU6n253t97fSNJnE1UJEpdTFi5c80dLyCgBY5ofOfpZnhvG60hOOxDL/NB1f1aqwr1KIWr3e7XazPOvbrUmugIhRpTo9Pb21teXi7fDeorO/SdNrUl+UE632jmGV/Cb7mhAXdvYcnc7U9MzMVq+XZRPdHSFEEITNZhMQ0+EQAIjhkzxbsK6LsivlJI9F4fL+fRbPKXV54ml84RRe/vnZ128pxdY4ThKjjdivtcgM3vs4jvM8O1HHLUQMgkCd07OS55m1T6w7A6REI+b8PHYxCrGKGO7ffWutjQnOJQLOTHEc7w0YOuYBU0Z89qxuCRAi1oRQe/r+CiGCIBDiZNG2Q2HmPM/cnsn3AEOimCaqAf9aKohVIfSeeUbEYvLP4/LsvM+zfUcwGfOI6GRP8xFIxBpiZSe+evBZOewbEFEKKaVcWV0eDgYTDsI53263UTwJWiZMAPBvTBThpOHdO87+Kk+yPTdOKWVtvrKyPBj0J/PVMAjMhYsX1I41YgDH3EDxmtJ/YMLJBgIj5r9NRunuVyIiQJZl6+try8vLk1wBEae73W63K8QTFVoLECB+VwdvTeYC5swfu/wDm/k9/pDSyub5ysrycDic5BmRUtZq9TCKZJHHCsAAMfMUih+Y8LpSk9wdD7Dk7f+bjtPzeateAKV9PQ7v/XBw5AnuKVBKXbo8PzU1BWfOpBRSLC4sLC8/hp0qIwJ44Nz7WbrkrDhzkL0pxDtB8PaeBV0I0W535uevSCXPOHgUmGf5J5/83uVPWhhtEf0siRectWe7OANUUNzU+r0wnN45uxJCVKrVq9euRVH17CUi1rmlR4urK09WvZjol2nyUXZ03sDEeOA3TfCDINz1HgBAG9Od7l6ev8JnLipj4MFgcP/eXdizP3jk3L+kyZJz/tifneDiUBP4ngnfDoLtpJj9u7Fjpp6IkzgejUYTfleSxLV67cBybwDnpJrcvvaIIjwoVe6ci+N4PB5P6L86FxyYOQFYQTEt5NxkXiMAjPjgcR0zW2vjJB6PJ5oTRKzVqrR/k4cAIYppOelIMuYV8hU8KBRvt+dkNKF9lVI65w7c8KoQXSHn5ET2lYAtkHmZT9tK+3reMB8joCGl7E53TWDWVlfs0alVX4tAcePGzeFgsLq68sS+Mi97dy/PWyAuSmVOKy7tgXvkV5y/J+xre/a8iFhv1Ke704sLC1l+JkPS6Uxfnp//4ovP9rqAQ6LP81wxXJGqgqf3MrfIL3v3AOE2mV37iohRFHU6U0mcbPY2zjB2DIy5ePHSeDTaa18z5t/n2bJ1f2TC8Ayy3hnQhzZbdO417Wf5ySQoper1erPRfPjwvvOnf3KkkFPT0xcvXnq0uLDXvq5695XNWyAvSKnO0Pti2btl6+4J+3oQvDQRvZKSZ0NpX8+ZLM+T8ZGJzYhCG52m6fLycnYGX0dKefXqtd3Yyy45MwLc1OYtZSqnXeUt84J3iU3Tpw7MlVSIuLq6Mh6PTz344jpXr149kIzogC3zZam/r8POGaK4S96R5ZjZ79s7o5QKUfQH/aVHj059cUSsVCoXL13Wep/58AAjogaKH+qwccLU072MmVa8BwbH+0ZfZEw4Z5eXl/MzbG601lElajZbBxy8jJkYrmv1jgrPcgDwuc1jSwkw7aT58/6qlZKSV4fSvp4zaZr2tnpZloXhUecu6KxL0zRN01N/i5TS+8MieQwKsIliSsjqaVf5nHnIFO6cmuwDt7P/kyQ53cW3vyLPARifihwiYBVwSoqpM9jXhKkiRAqHaIkxUZ5lZxl8cY57aIiCGSLEKSmbZ7CvIWEV0R5m3xjAe5ckyVnsq/PeWve0AWUAidgQckrK6Azn6yskQvfkx4m8tTbLMmMMf436eEnJt43Svp4zaZouPX78u9/9rlKtjEfj1dXVp9diPrY0aBL4aPVkBBBF24XTXlxsdwk87tvPIw/mELYHD2fqm1iIfh0xfn66+v6kHPPjiMX4Tw9i0XqRnx7/zqyfbfKPVSjcmf/Tc2DmvfOrq6sffvjhm2++6b1Ps+wsYZuSkpeL0r6eM8z8xRdf/Mf/6T8CIhPHcVwuKCWvLN77Dz/88H/+T//pb/7mb6IoWl5eXl9ff9GDKil5TpT29fwhotxaKSUzO++OSXcqKfnW45zr9/tLS0utVrtWq09Pd4fD4YseVEnJM4GIkiTZ2NhYWVk5B/2mkqeZmZn5yb/506mpqTzPf/HLf/7Zz372okdUUvJiEELcuHHj3//7/9BotLwnpVQQvDRCPCUlJ0UIEUXR1NTU7Oys9760r+eMUqrbnfnJT/602WyORqOFhQU1cQFcScm3DCnl3Nzcj370oyAIRqPRU+ezBzmRwi0+1cCyOGCnkyjaH5rIgHiCkRz1yZOO5HARhROO5FBdyKLd9YQjKYbNcDC7sbj2CUZy2I0uhsHANEEBGB01Jy8P5dJ/zlQqlbnZuXa7XchvKqWUKie55BVFChEE4f5c+qOWTJRCVCrVwxPjD6NSqRptDpaoAT/ytvKUZMRRrHoXMwWwL19dKV2tVon8ZKlkGASB3i/KRsAx0xr5R35S/dSY+YAKP6Iw2lQr1Xq9PskVELESVaTYpz7IDAnRKrlHfqLEtZxhxbsh04H8e610tVqdMLdRCFmrVYzWWbavSmLItOxdZTL5G2JY8T59mXPOy6X/nGk2W5fnLxf/X9jXA4WSJSWvEBM7o568Jz87O9tsNidcUNuttpSS9jSxChEB8J+zNDyJfR0yzaHa/bxzTms9OzvXaDQmsq4AxgRCCrejGIMACnHA9LHNkonNQ86sBAa7M8YMwCYIpqen1WRrCALUarWif8sTuUeElPkjm29MlgjimBe83SKS8ETCyTmnjZmdvdBsJpP8PgJFEATaGO88E4MABIgQH7D7rU2XSH59lxcAAt4iAsBw0pv5jePc7GuhjxpFkVJqd0dprU2SJN+jgfeqUeiEvehRlJS8GHiyYihmHg76X975gk7SA6Q/6OdZ1u9v7bq8b5ogrnAgTlDfNSXkZaGvay2LVYt5bW3Ney+knHAkDJDl2cOHD9bX1oq/MYivaUPMfaLJa4kN439Tqd7aUUzz3vf7W48fPzImmLAiiwFG4/FwOBoOB8FO858bWv+kElnmCUeiAC9L/TriLaN3v3V1ddV5j4gTjsSzT9IkTuLe5mboLBgpAb4fhG0hcgYxWd8HCdgW8q+q1e8Yo89Qk306pJRBEIRhuBufL0r/0zSdPGX1fOyrlLJWq124cOHGjRvtdruwKMzc6/Xu3LmzsLBwojG97PDO3nHnFOcs9YQlJS8zPKlq03g8vn///sn7v7o8z4OdteWq0u2q9CfUidKANSHGOxfZ2uqNx+OTbouZKcuyGkDRXmJeqY4UJ+7/CtASsvCCiWg0GuV5Lk+YwEHk0zTTO199UelaJOzJ56QuxPLOxqW/1YvjsRDiJMKZTER5ns8wF1XprxtzSamTjkQAtvZ0530+GGM6nc7Vq1evXLlSmNiiv+/9+/cfPHiwtbWV5/lZ2LkbAAAgAElEQVQkW41zsK9SyqmpqTfeeOPatWuzs7PVarV4SZh5PB632+1ms/n555+PRqPJT1ZeXrz3ud3215mBnurAjgBKysn3pIcipZRSHdKbBMABj5gG5N1pd3w5wJAoYzaHiBwUrS6DIDhTVz6t9aGJEgQcMw/Oltc+IJ8yH/qoIQqtdRCcvgsNIpogOMoMZMwDprNkZYyYEyZgPCzpBqWUZ2uhg1rro9o3eeYxUZ99Nqmrcwgj5ozZ7IyeD8pxHDkzzrnR6JR1O8HO7agJUT+teFa8Y1/zPD99yE3IwiTUhKidSqiDAQZExf9Ya/c2yDrZdXb2BxFi9bQpIHJnxc7zPDvtnLBSxbrXEOLU0qHj5+ieGWPm5+ffeOON+fn5brdbRGSZ2TnX6XQuXLjw2WefLSwsJMnXty88B/s6PT39ve997zvf+U6r1dq77iBirVZ77bXX6vW61vqjjz4ajUbfei+2CInv/pHI791VFA2QL1y4oLV2Z9D3R4GdqamNjYOl+gSw5N3/7sa/zjN92jWSGPpEfaZ35MGlXKCoVetvvvnWGWP+7XZHykNW+QHRz11y19noDCcuA6Ie0SVzyLNdrVavXb/RarVPfXFAMFrXarWn/8UDfJxn/wv0gzPEsnLmT2x+2xh6yhRprae73bffecefocmNkLLdPvzXXyf/f6fj3+SZOkMobs37HtEf6t2Eppc4OaXkFURKOT8//4Mf/OC1116LomjXDSgOQC9evNjtdhuNhjHm888/P3QZLFLAiOgc6l/b7fb3v//99957L4qiQ91TIcTMzMwPf/hDa+0nn3wyefOplxTn7K6wcDHLe6fFe7++vq6Urh62QJ+IrV6v3x/s3a8gwJxSN7T5yuaL5M7SoQ4RppS8pnWIYriT2M/Mw+FwfX0tqlSiSuUsg2fgxcUFa+3eDWAdxS1j7th8mf0JyhoOuTg0pLii9F5XhpmSJNnc3KjVG81W6yyDB4aNjY3BYF/L6xDxLRNskV/ik4YnD169LsVlrZtC7t3qF+7doN+v1SZKJT368pzn+ebmhrN27wZnRsrXtLlr7QK7s4yfAbpaXlPaFM/fUwewL3M2aMm3HKXU3Nzc9773vVu3bgXB4X0ujDFvvvlmEARJkty9e/cQ+dsd43pW+4qI165de/fdd7vdLhHFcXyUiW21Wt/97ndXVlbSND2L3/bN54BBLWZ59495nn/55Z0HD+6fy3dlWeqc2/WWJOJtYy4qlfJhgd0TogBqQlQQ13Z+GyJaXV3p97fO5USZyGdZhnuW22kp/7pWT88sbcwAEqCCuNe+EtFg0P/www9Oepp1KER0QGS/JsRfVqs/jqKzX5wBqoh1IeSe1zvPskeLi+tr5yIuyM65LMv22tcb2vyPdXX2/uoMoAAaQlQQEwDeX19aGteSbzJhGL7++uvXrl0z5mDdVwEzB0FQqVRu3ry5tbW1urr6dFC2aAEihGDm0681QohqtXrhwoVut1upVLz3xUt7aARYStlqtWZmZnq93uBcO5Z/wzlQLsbMaZqk6Zmazxy4/m4JRJEBH0l5LovY9kX3XyvP81MfCB2gmJa9j7BGnD6nwT8tNM/M5P14PD5D77V9VzsweAnQFqJ1hs45e3m6OJ+Isiw7r1T8ok8A7BltgNg91ycHt3sJlDa15OVASlmpVKanp2u12lEJFkqpSqUSBIFS6sqVKxcvXrx///6BTmhFvvFZ7atSan5+/vr161EUFVoKtVoNEQ9NFS6C191ud2Fh4dtuX58WWzkQH3uG6w3u+e+5cEiLt2c8/medhv/sxv+yD/58n5w9lAa25CVAa91ut2u12lGp40WZTBAERePtTqdz5cqVx48fH9Np9Ez2dW5u7uLFi4U+ESIas125dWhilZSyXq/vfubbCiKctMagpKSkpOTFopSq1WpH9e1WSkVRFEVRYX0RsVqtzszMHC8fdHr7WrikBwotjDHFieOhJt37CfXGXmKEkOdywldS8u3gqTf+4J+7AFMAB1apIAga9YY2Roiiqe52TmaWZaPxaG/1oQCoAzSZlbXKP8ntYIYN8ovOrXnntmVvQQAYxK6U81o1cd8Jt/a+Sv47ABf3iAYjYmBMpVINiygd4HYHXeIkTeJxnOVPzqwVQAhQY9Z5ttcHIoY++YfOrXmX75xICwCN0JHyqtLT+x0mTdz1/gcAyf7JCsOwVq2ZwOyMBItMmtzmg8HA5vneDzcBpshLm6v98bQ15xe83fSU7zSRlgAGsSnELW3qQuxm7iOAdq5OdBsgAXB7BhOGYbVaDYMQhRCADMzA5Lfvjs0tMe1epM3QJjJ5qrzemxgyILpr7Zp3DqDQYhQAAWJHynml2kLulXkUgPjsa0+OknpWSoVhWKlU9t5WIcReMaVDOb0l8N73+/1+v99oNPZ+q9a6UqkUlcV7P1+0qTrGlf52IKU0pSBiSQnAYaHhQzbYLYB5gGAnMaTZaBYVxgJxN8eLi9C1ECQEBQExJUmaxGPrnGJuA9SYpXOF2bEAn+TZlicHbAEyot0kKwZIEZcd9nI0AG0h57WqoxAAkihkvgIwAnAAWulavWZMIAUKIYWQgIzbhwDMCBRVKAiLhW4wGHjvDIACrjArayURAYyYHzm77n3OnDG7J9oz4AE8wqYTgyxTgC0p3jJBsRwrgA752wB9AELUWlcr1SAMBIoiMrlHZV+yEF4InjKFrMRoNPREzFxnaBIL54pg2ojonrM9IsdsmXMGgm1j5wAI0QGM8twgTAt5SesGIgAo7ypE8wAeIENUWtdqNWMCRJRCCCEAYdvSAwMKltIFQbENiuNxnucSoAZQZ9K5lYoZsUe04Ny6dwIxZrLMzE/uToKw7rCfoUKcEvKq1jVEBBBC4DMW+/fex3H8dIpDIeS067kWFHIT/X7/+HTd09tX59zS0tLDhw9nZ2f3mnEppTGmWq0WmbTF+1SMZm1tLY7jU3/jS4FS6lsfAy8pORWHr48SQAIoKcMwDMKw0WhobbIs3eptOWcL48jF8baQYRDU63VjgsAERus4jn2aGNiW3MuIesyPnb1j7YhpRqrrWreFMICIWFhZy7zm/UNnF72vCj9iuqr0tBTILJglgBLCBEG1WqvValKpLE3jeJymGdGTugAhRBAE1WqtUq1656QU4/EYs0wWIwG2zKvkF51bcm5A1BLiqtZdqfRO8j0BW+YB8Z08W/W+TpIBpoWckhIRJYMuhGiiKIqiSqVqjEnTdDgcZnnGRLx9WI5CoNK61WoHxoRhrpRM0jRLU8kggREgYd70/rH3923eJ7qg1DWl21I+GQmzBeiT/yzPR0Trwg+YLivVFRKZEUAVgjZBEFWqhX0dx+PxeJRnmSfCJ3MigyCo1mqBMVEYaqVG4xFlmcTtOXHMK+QfOLfoXM+7WamuaT0lZbAjFk0AGVOf/APr1pxbEz5lvqxU+/zSHo/BWtvv98fjMRHtnvEVNzoMwwORWmYeDAaLi4vHpxyeyX9dWlr66quvilKhvV1iCoNPROPxuDDvzrler7e6urpXe+FbiZSyFPQvKTmaQ5ZKFKJSrc7MzIRRtLKyMhwuO+doz+4cdnqepWkyHA2VUs1ms91pV6qVwfo6pmmhP7Xk3W/y/Eub/1dR9aJSNSEM4t4QXvHdXSlf03pE9MC5j7J01fsfBIHeyfEKo7DemapUqhsba+Nx7Jz1+0dSXC9J08FwWIiuz81djEbDeGPDpikDEPOKd/+aZ2vOv27MH4dRTYgAUe1vqMcAM8zzSsXMi87953h0Veo/jMKuVIWgYKVSaU13tVa9ra3llRXvXTGS3SDAdoe+NI3jWGtdrze6M3NpmqytrmKWAoBlXnfugywbEH03CK5qXUE8dE5mWM4rPST6yuYfZtl9Z38chLbY1iAGYRh1pqTRvV4vjmNnLRXSdLvhCEQESNJkMBpqrWvVWrPVDqNKf2MdrS1s5xrRL7J0yPSWCf4sqhjEAFHuqfZjAAY5y+q6MkOi+87+Jk8XnPphGNaevf6w934wGGxsbCRJUiTt7vqKTxvXPM9XV1fv3bt3fET29Pa10Iv68ssvf/e73/3Jn/zJAVGYItdZCDEajbIs29jY+MUvfrG5ufmt129CxPL8taTkUI5Kv6hVq53OFKJ4+ODBeDw+XEi1OC9kJiLnnLU2y7JWqzXTnXUrjwvpqC+ybMX7/1BvdKU0eEieYbFGGkSDWBWiJWVXin9J039Kkj8KQgbQWnW6M6TUo0eLSXJ4Qf+urS1Gkud5lmWXL89Xut31lRUAGBL9Ms8Q8d9ElStah0cUjCOAQNSIFYAG4lS9/p/H4w+z7A0DABBFlUZ3NvV2ZWXjKHHZQ0fS7U63Ox3a2iKAR859lmUE8CdRdF3rQxUTir8pRlIVoi5EW8rfZ9m/pOllpQrj2pmaThFXV1bj+OvvjnfO5nmWpd3u7PT0dLyxTgAjT/+YxQ2l/jSsXJAyOiwJtBiJRDSIkRB1KTtS/h/jscrgLVF51paDmdM0/fzzz9vt9s2bN6PtyEHl6UNW7/29e/fef//9fr//9GwUgVvn3Dn0V+/1eh988EEYhu+9916z2dz7T0KIIhfr0aNHP//5zxcWFl6RRjqH7rTaALcBOnC4JqkQQmsTRaE2pih2KvoEeO+zLEuz1O2XOtrFAiQAAIzeKe/EYdsX3o4RuXXyYyK3ffSCCjFC7Eo1LWXliO0hCZQEhvm7AJcAjpI8l0pFURQYo6TaXtaYicg6m6RpfkRVNACMATIAQV5mqTxCnpoAet6ver8jLMwIIAEDFE2BM1I1j9ZiJ6UM0WWAWwDVwz6AAEKqIDBhGEqlJApALLJprHVZlqVpcvjSBpABxACGSNlMe4eH3SAGGBOter/mfQ7smRkYAQ1gXYhpKTtSHqWnSFKikADwA4Cp454cHQaBNmb3cI6JiXyW52mS2COenBwgA2gzSO9VlkryT0seF67Yqvfr5Ie0nRGDwAowRNGRclrKqkB5RF1PKhXyBA1kEKNKVWu9trZ6pHE9MDBm59xwONRah/VGYAIhxGd55ph/HEUXlZ5Em18ARIjzSq9rv2DtFzYngFar5Zj7W1txPJ7QGSjO7dbW17r1RrvTGfV6q94Dw2WlrmoVTeB4CYBQiEvC/CTiX6fpXZu3pFRCSSXHg60Jldt35mQgBHbaHQ5DzPLH3o2Zvh+EV48wrk+PpCbEa1pnzHfzfI0oRWzUGwDQ7/eP2nA8PRLv/Xg81rrXrFbrtbpLkq9sHgm8rvVFKcMJKiwEQAVxXuk/jyof5dkXeW6fvQvrnHv8+PGvfvUr59y77757oB1cgff+zp07v/zlL+/cufO1Wklnta/W2kePHv3qV78aj8ff//73Z2dn97rSRQD597///Z07dyZRQ37Zcd4R0f7VZrsqMgCYBujspCYigNa63mhEYSSVKraffreb1e6Jv5RYrYp6XUqFCNbm8Tgej0du5ylngBRgA6A4PULvC/NumdfJL1i74r1jNgIjEIWurNg5ImKABOCucx8TZcwCoC3la9pM71nxkREAJPAcwGWAbM/4641GtVrTWgtE69ye5PCduywEm0CEoZRKCkFEWZ4NBoM8e5Jy2QZYYwACQYTb51tIACOiBWeXnIuJEDBC1AKL5h07wXe2QKseFvM8ZmKGqhCXlbqidYQoAIthIAnJVAXo7nnWi1qyVqtttEYhisl/8nBykUyDqDUaI1otqRQTZXkej0d7BT4JIAZQAEiEgLv2NWZadu6+swNPCBggBgKLFX9n3WcPsEV+zeZjZsscIs4pdV3pltyRRSxuqMYiw3YGYHdzWhQSVKtVKRUAO7dH45oBi2QgISGKRLUmpRSIzrlxHI/Ho115EA9gASJgIELv9+7M1sg/sHbFuYzZIEY74cTd5ikMnAAtePdF8eQg1hFf02ZWqT2yN4xC7LXZR739hdhNYaVO1ALEOZckSRYEdaMlyg3vpxBvmeBEjW8M4mWlx0T3bE5CVqu1tSQ5qVJ6IR3aiSq1qNLb2Fj3fkrKi0pHJ1E6UwBXtP5tlo0ZpqRUCEmSJMnh27uj8N4nSeKbJKW0iAlTRYhZJaOJdVUQIEIxJ9WmcFvkMxRREKR5dqTnehjM7InG41E1CCpB6NL0kfe3guCyUmbi8kUECBFfN+aDLN303p+2S8HkFHlCi4uLzDwajW7evHn79u3KjhZs0dHoww8//Oijj+7evXuU1m8RWC4M8zmMOE3T+/fv93q94XB45cqVIixcbGHu3Lnz2WefLS8vvwqdcwDAWeedgyPUCR3ACCAHCMMwiiI0xoVRqo2U0lqbODdOE2ct7RhXRJRSGBNUKpUwMEJIrzUpJcIA8rw421bMxdNaLO4sRMq8TrTi3ZanDU8DIgZogmgqOSNlFUVRrczAniFnXvF+HWzPEzMMiTLnWkTTSs5KFRaD2MlxcAADAFC6Wq0qrSiMsiDwUiFCkiSjJMnzbNfKFhomRdFYJdRKa2C2SqGUmOV5lo7HYwRoAwhgLNqYobAAW+RXvd/01CPfK9r4IFyQclapphBm23YWSRncJ3rk3KYjy2yIYu83GNpSzErVFGL34WaAHGAMgEJEUSWKQtTahhEpBYg2z+M8S9LUe09EhR0QQkipgiCohYExATM4pVhJFUZ5nsVx7J3Te/enCIRiSLTi3Yb3W+TXiBJmiTCN2JVqSkqDWKTDMrMDGBM99m7o3IBZA4y9HzI0iS4p1ZJSEwE+kaxIAEaISqlqrYZK+yjMTCCEJPKxi+Mss9Z68rAz+YVfW63VoiCQUnpPpKQIDGRZkiRZlgkAs8cnZiEy5g3vV73bItogv8XsmCuIV6ScVaqKqBGLttieOWXaJOo5t+E9EW2hyL1bYpqWqoj+IfPTehV8mJyT2G5ldpologjEFUUlBIAI5uROToQYImZFiYhSROT9iTVcfbFFE4IAUuY2iqNiQsdQpHoJACGkQM7z/BQrZxGklcBFFx4DqCZvc79DEaHd9OQRUMoilnZSB6mo1UREAoiJaiiiifve76K2E8ifH9baBw8erK+vLywsbG5uNhqNIqaY53mv13v//fcfP348YSz2fHYE3vvNzc2f/vSnSqlC3qJI0d7nFrwC7IgPH/ErI0ohQq07nU6j0STy6+vro9HIOXfsZnm0ublRdD4Jg6DZbE5NTRPRxsb6cDiEPWqFRSjyEflP8/yBtXNSvW3MVa0jIY7Z0V/T+g8hJICMedX736TpZzbvWvl2EFxSal9aAaJWKqzVu91uGEYbGxtLS0s2z4pMh6OuPxj0i6oyqVQURrOzs6ZjhsNhcdoBe35xy7xC/gtrv8hzBHg7CP4ojFpCHK4ECgAA8wBvm4AALPMW0ed59mGeKYTb2tzUurvnJBwRlRBhpdLpTFVrtSxLV1dW0jQ9kDBygOEQ1tfXisZwURS1Wu2Lly7F4/HGxvpoOIQ90SHP0Cf/pc0/zvOE6aY2fx5VO1KaY8WaXwfDAB4gJvrS5r/L0kHObxtz2wTTiHsL3aUQgQlqtVq3O80MvV5vbXW1KAM9ZvK3trZ2C/WazWan0wHAfr+/tdVz+xeImHnJ2c/y/NM8u6jUO0F4NdK1nQ3BoVwH+EEABJAzb3r/6yz5JM2mhXo3DC8r1Zh4SfdECEKpw1sWHo+UUilNaUKIAsAzpMT6hGt4zJQQF+bQOycFKqVOqgOqlBJCkPcCIEQcM8UnX/osQw6sgZk8IZgoOGkb2qIJo5ISAVWRP0xk+bDNzrFkzDGRRFCITIRCSCnxJCYWAaSUQghiUgBVgQP2Y+bqiVrIAqTEcPTJ1DOi8F8//vjjTz/91BijlGLmol3giSzaOXvcRZBnt839K2Vcj+JJqZoQtVqtNTPrnHv8eClJkmL/MeEskfeF57G52atWq91uN4oqg4313QS2hOj3efahtV0p/vtabUrKAFBOsGghgASIEC8rNVOt9rz/OM/+MYmvK/39KNo9QDPaTHU6Ub2xvr5WeM/HW9Zdit+RrR05F8dxEATtdvvatesLCw/FTr2WA1jy7ldZCoA/CsNrSkdCFGHJSQ6NDOK0lO0weteE95z9LM/WvP+DILggt3tPKqWqrVa7MzUaDe/d/WrXMk04fufceDyO43htbbXZak1Nd40JhuvrRRc5z7BO/pdpsur8mya4aUxTiKL+YZLJL1opvBOEt7RZ9/6fkviRc++a4LYQRSgDEavVWmtqOorCpaVHJ35yiKy1Gxsb/f6gVqu2Wu1arbay/Nhl2y0KMoBP8+z3WVYX4q9rja6U4f4U02MGX5iTOSn/slIbEn2c5z+Lx5eU+tMwUpMl+jEzMRVB+zy3zJMGZoUQQRAGJrCDASlsC+nJ3bP2O8ZMMviCjPmBc+vk5pVeJD8ejUwY1uuNE/mOQohGoyGFSNJEC9GV8o5zkXcXlZqwWSEDeOZV74AhQnTeOYagFRZ9WiYPVgshCgEKJhLMocCBh03yTZ7Ud2SAnHnFuQ3vm1IEAEmSaqOr1ZqjweTbjkKwT2udJUlEdE2bBedCYRsCK5OFzRkgYbpjLQI0pXwhlZ2Fo5jtvCkntWhf8wKcdEdZmtWjQMQwDFutdpIkW1tbSZKcIgZVRN2JyJMn8q1Wu91qr62vFcdpn9n8sXOvaf22CdpCnNQdKBZ6haiV0ogVFI+dvZPnQmsALDo0pEGwvrE2Gg5PEZnY0xbRE3lr7fzly6PFRZFlBLzs3L+maV2IG8ZckqoqTuaDFFsEiagl3kRtEO/a/JMsAyk9g1SqGkbtdqfX6w0G/TzPT5HHXvwIEW31es66Wq1mpqfXNtaBYcv7Jecswx+E4RWlG0KoE744xaG4EsIg/rtK9bdp+tDmdSmLXugmDBvNZiZwcXGxyLs53eRbmw+H5L2vNxrtdnvY2wIiBvgqzxecu6z0La33n6F+Pbs5nxJAC/FdY2qIv87Sz20+L4vY3r4+C4depN/va8Tp6RmAtaIr1LE3CIUQUopGo1GpVEajoU5Tqqp3guBRDh9kqQS4qFT12FeAABxzxvxpni9ZNyXVVaV/lflev2+kLMr3+4O+/7p9TBEbqNXqjUbLpslgqxcCzig1Blh27kPI3jDGIOqjwxgM4JhHRBve/0uWXlbqujaPrE2zhEajWq1e+FLbhxdHI4RUWlUqlU67MxgNcTQSUt4ygWK4k+eeYf7r5qSwrGOiu9besfmcUg0hlHP9/laj1arV6wQwGo2cs8fNCaJALIqFqrVanqZuPJ5GnFcqcfDAWgFw25hw+7jhyJFY5gHRQ2d/l2VXlbqmzfrJF8xz4RTmbPc3O2f7WnKA3fnTWkdRhTwNBoPJUxMPhZmdtcPhMAyjmjFRVOE8y5mXnNOIbxszs09Z7MRogCkpbxuTMD32riElAgRhKJVK0mQ0HJ2xhc6ufOb01JQJAuk9AWx5/9i5n1Sq80qf4uBqFwSoCXFVKc/8r0nScd4Da22q1ep2eX52piZsRQYEM0RhGJpAS0XAY6YN8lNS3tSmcgb5aQQIEC8p5YLgsyz9yubXgxAA6rU6Cuz3t0aj4RkHb60djUYoRLvZNMaI3KZMa94Dw3WjLyilzzD5ErEt5U3EmPnTPAt0APj00d8h4y+kcBBherprbV68I7tj3vNBRAQhZSWq1GpVKVWSJNlo2HAWAKaErGkDAB/m+X1nbxkzI6XeDoHsJA7udKRNmVe9v+9sTDSj5A21nV6b2zwZ9MNavVqtBkEwGg2LQ4QDIykWRiFkGAb1ekNrnSRxPujbLKsEYRXxljbKuQVn172b1/qCVOGO+N6ekQAze4AV77/I8y3vZ5W8bYKGEI+stdaOB/2oXm80GpVKdTQeJXFMRNu9j/aPBBEr1Vq9XlNKxXE86PdDayGqtKVUWn9l+Y7NF527qfWMUhoA8ZA5yYGXnFtwbkx0UambSqdMyJzn2aDfV/V6rVaLomg4HGRZdtScSCkL9UStTZok8WCgcovG1IV4xwRfebfo7Aa5a0rPKaXh6TlhZrDAq97fs7ZPdEmp2yaoSilekH09EUXJ7ET2tciSeF4D+xaDRQWLNibLs0P7C50C732aJpGUYRhCnmXElrkjxMy203Amim5rHSEeWxswA2IQhOR9PB6fwu1+miLiOhqNQiGklEWmFSC2pZyknuFrqQgxJ6UHHhF5AKmUMcFqbyPPz97hFADAOZtlWRCE2mhmsAwI0BCidh7vCwJcVmrJivvezwMDQCWKvLWj0ehcBu+9z7PMOy+lQCFiYgCuCtES4izGdXfwNcTvaPNPyXjINGFiDTGlabK56aenhFSq2Ww0GvUip2bXWUeBAoWQUojtDmBxHA+HA86yemHtEC5KGYnwgywbEX2Z53cRBGCAaJ6oJsG2VCEzA1iAy0pd13pKyJ4vRHAhHo8z52r1RhiG9Xq9XqszsydPfmckiEIKIWRhHBBFmsRb/T5mmUJkAIk4J5URQlt47Px9ax9YqxEDFAa307A9Qw6cMRODB7DMHSm/F4QtIbKdyqgkSXIiYAjCsFFv1Gv1IsODmJgYt+dESilQIKJAxDRJe5ub1uYBiuJFnlNKI35h8x7RFzb/yuYKsagAloBQ5DkCZ8x2R77xklK3jGmhWHK2eFvjeMzkq7V6EISNRgMAuYiieWKmwmkVQgghdwNPcTweDYcuy2pCFhGaeaUCKe5Zt+ztPWu/2p6TYiQAgB64uDu+ODUAmJPyTRN0pBy/JJ5eoUexq7Z0nH0Nw7DRaPT7/ec1tm8luLtLxKP1o0998e1L73wVA9B55ALsXnH/35zv4HeHz4wAhYjayRMxDqWYBwRAfLLFPsfJ374UPhkvwnZu7bngADyA2BktMcM5Pznbs8zAhWI9nWuGJgFMPhuFcLxihixbf7wUBEG71a7VawBAnoiJi8shCkQhBBENR8P+YFDE+QVAiliclEqAaSH+XRhuEH2aZ4vOpUyFcNJO2jk44Gb0Z7AAABGOSURBVJw5QLym9S1t2jvBfAZwiMVIXJoOsywLgkajUavWpFJEhazvdt9fIaSQwjs/jsf9/laeZcRsABixiO0o4K4QbRNsSX/H2nvOZswaUQMWIsme2QHkTArxslTvhOGUlLjj11qEFEAyU5r289wY02q2arUaoiDaychjQAEChRCSgYbD4Va/n2UZMEsAQvCAAKCY56ScEmGP6JM8e+SsZdCAWmBxvE/AlsECS8SbWt/UekrKnZrm7ZsomLMkGaRpEAStVqtSqQopCwvL2/USKIQQUnpPo9FwOBxmWUpEsthMABRbrRkhO0b0SH1p8y9yS0AGUQEWj3pRFJAzGMBrWt3UZrooTGQG5JMnQb8AoijqdrvGmOIs7Dj7Oj8//9577y0sLDzH4b3cFGnc+2Mm2wbWe5fneSOKoigqFNfO+F2FMJuQMh2NCo/NAPaJlp27dOZCMQLYIN8j3xAyQmTgNE1UFNXrjcTaM4ZYiyhKVFxtOHLOqUBGKATAsvdNKesnPHw9AAMMyS86pxAbQijPzro0TVrNVpZboviM8QNEDIIgqlSQOcvzUBuDKBF65De9f1LAeloI4KG1A6KulIVDmSRxPYxqtdrpTo4PoJQKo0hJlTqviKpaaKJN7zfI18/swhLAkPlzm89J2dj25r/mgn2ANQC7XajDmGXra6tyY11IWaj8AwrcFizZPr0vKB5CAlgHGCLmQuTMCMCIdSF+IOVbzDlDzuyAi/dNAGhEg2BABAgKkQAsACBmAGPANYAMtnvTQJatr2+IXk8W5707sUwGJtpx3/aMZNsiIWZS5YXNRqwJ8Y5StznKgXPmIn2r6FqjAY1AvaMnVcSFGCAD3BTi/m4BFRFm2fr6mtjclNsuokCBwMBMxEyFm79nJB5ghNAXmAuZMwtgRmwI8UMpv7vjrTpmv5OhphE1YgBoduaEijmRMkWxDtvdh3j77qyh2CxuzvZIigIrYqKDIwGABGEGMVUqF6KYk4YQ70h1O+SMyTJY5t3tkUYwKMyekVgAQLAoXoLoMECz2Zyfnw/DsLgnxy3Et2/f/ou/+Iu/+7u/+9aLGp4XSilEsfd4ctfnsNbGcUxhWKvVGDhNktxaPtXE7mqLG2PyNE2TGKVUCNe0vpdnH+UpQ9gSIjpaWOcYCCBh2vT+K2tHRK+ZIJcSGLI8y601lUqj0RiNRmeJchcdlur1Rp5leZZ67wVgV8rXjHnkrPr/27uW3jiu7HzOfVRXVTe7mw9RMkmZokcPDP0A7DFga2nHCy9swxsHBgQjf2Gyy2qS35Ct195kAI0BI5ssAtgBgtgBZmJbGmUsU5ZEipREPchm1/Pee84sbnexKVIkRcoey+oPhAQ2G8XD2xd165zzfd9B8BShg93oDfM60ZI1i9Y8q9S0Ut8QGVMm3e54o9FsNoXALMutPWALWQgRhlGz2USELE3JEWpsSdEEvWjNhbI4pQMvyzlA9Ja5y3zfue9MKQFO6sBngRudzphU9caItTbP8wOfst4mrF6v1+N6URRlWUiGAGFKqYzoijEAcEyqeFdZzi7ImO87t2Tt96b8TRhOSgX76CasAWTepsN/zwzOoXNgbW8VsW+ptRN9kgEC5m+tqUnZwsEqAjIiIRN7Z3/ulRnQs8kQADbtL5jvEy0RXWDYGIyEHZAbrHwMiiO2P2VGAKfJfUnU2qKJQ0YgAEJkHogEQCB4w7CqfMDAKdP/OfozAG9dE3DOH/BVOA+LhAHqzNNE0+SiLbWEh0TSX5PBSIB5heg7cheYN7m7VSQWq9YvPPzTAYAWsyb+X+KJrXuKAQkFAxDuGQlkYBecdY+vyOIlNwegCu6CKIqmp6fn5ubq9bo3gdjtfJ2YmHj++eenp6dv3rx5SErLUwIhhHM2SQaZ5Fjtv6LIO+vrYbvVbo+mQZAkiTXGEdH+VGXe5kZKqYOgOdIMgiDL0rzTsdaClALgWaWYaMGZL/PspA4mpYyFGGw+7QJPp8yZPdvlurEZ03NKzyi1ggjA5NxGp0MIcb0eBLX19TV/l9+T1litghBeDicajUZcrwPArdu3gjxnRARoCfFrHVw25pq1CfGzWnlL9P1IjLy2oQAumDuOrltz17m2EKe1HhNSAJBzaZby3TuNkWa7PaZ1N0m6FRl7P4vvQ5dSah20221EkXSTfKPj6/4xiqNaMsCSNSUXs1qPCllD3KfKxfWagtQlvmHNVWtiFL/SwVEp7yAAQGlMZ6MjEMfGxtM07XY3/OJ77Bm86EFqrer1RhTHpiw2OuuuLCOtEfAZJR3zVWsuFEVX81EpY4E1xNpOFr7bF98wF8wl823nrlmzQfTrIJhTmgWCZWPKTme9VgvzPE/TbLsw3/gcZYdL7+RGsRMk87+nyf8UxWHqNgZgyZo7RDsEs+9INphNWf7rRucwIz4cwKpzazvuS64eFfZAwvyfWfb/xhymmpIzr1h7h/kwa5ISFWW+RDY4RAOFAO46Vzyms9CLwbxu7TF6H01NTb300ktTU1Oe4rTH+aq1PnHixEcfffTxxx+vrq4+riB+wRBCOCJjeneQ6pHX/+ecS5JuxhTHcRiGI40RY02SJEmSmK03nf68kM1XvLyn0WiEYSSkKIuy0+kkScJlUd3AG0LMaR1Jcc3Y7015qeSWkHNaexHeLlpMBiiAV639rjT3yGnEUSHndG1GqUiIW/09XRR5skY1Y8Iwmpw8SsRZlna73YrqORj8A/H3Lf0aWgfO2SzL0jRJk6TNDEohgEY8qpQSYtGaFWuvZ6aGOKPUrNZt0dPYb4/f/yoHcN+569YsWlswt7xRotITUoiqtebc+tqasS6K4pGRkdHRUT8sM8vSQRPRHYNHxHq93miMhGEIgFmWpmmaZSka4w8ghTAqxRkMGkIsWfPHPEeEcSlP62BC9or1Oy6+7xMnzDesuWZMhyhGPCbVrNLHhKhV2RhzlmWGyFpbq9WOHDnqnE3TNNk6afxhwXsnzjiKhRDGmm53I00S408jrQEgRpzVOhK4ZOyCKS+V3BTiuNLP9U1rHxa814+uOnfVmJvOSoC2lKd18CutY8QE0BGtrKx8/vnnp0+fuXfv3vffX753795OFzsUHMCCMQs/gxzAMq86t+r+9lPCDPN1a64ftE7zGFEwr1i7spdV70+MR1KQ7wdKqfn5+bNnz/530Vy8634zKlezXc9XAJicnDx37twXX3yRpmmSJLu/eYgqV+h/5+mFmz91RFm3WxRFPY7juC6liqO4UW8gIm12l5iZK2qiz5wQkZl8ytXXmeTOOT1Qgu5JU4QYk+qqMavOFsyXTXmpLBnYU/U0oERvzosO2PYyD0DgAJEA2kIeUfK4UuNSqa1aCi9NyYyp1TKillJaKdUeHZ2YmOi1XpzzQXo6Tm9AtvATqHqlmKLIq4Phgbu2AjgiZR2xJcSStSnRbeduOusYBEIN/KyxXmWPgC1zyVAAWQavL6whTkg5o9QxqWIh5KBVAbNj7nTWiyKv1+txXEfEkZGRVqsFgP1Utjdyq8dP9XRVKQH8wE0uisIY4xW0TKQHDh4J0BYi1ropxKI16+RS4j8VheMcAAPEUICCHsuGgfs5KxtmCagQGOCIlNNKzSjdEELSlnHSTOQrw1EUNRoNpXQYhnEcIQpi35N0/VScPfO/AjH7j8dPvU7S1Pmx2wPZqfdSbws5YsSqsznzdWuumNIBBJskT0QABq7EoyUDA/scfUSII1IeV7rXNvbNUedu3Ljxhz+cn5k5nqbpLq6tQwzxk8EL1R7j4aq1Pn369BtvvDE/P/8lxb9fNDdS+tP9vebn1Gq1ubm5c+fOFUXx9ddfPyUDcA4Mb6SnAz34ij//qF8EUwBgTLaxUaap1jqo1eIoVlqDEIzAArdmIf4CyMxFUWZZVpaFNdaRQ2blJxL3nOyRmf1skzbi81qnSnWYblt727mcwDIRYuEv23NIZgJ0QAQYIkxIeUzKlhARCo0oPFVEIAMSYAZgPDOZyOb5/bJUSgU6CKMorNcBkYSAqjXVj9+fUwBgjCuytChya3rTNP3OSwBKQEZkFAgkmOuIc0pPSZkQ3SF3y7o1JkdcAFnsj8kGYGRmdMAOWAD6QToTQjSE9HR/9POyEAnRARCAf1ygskyMyTe6OtBhGIZhpJQCECyRpfChcyUQFP3afpbleVaWpbWOmQSzJ76WAG0ARuE/gABgSsojQqRMPW9k50qmEpCcnwGOvqvmhY++MhUhHJNqQsoRKSJENTAqwKP0tHBmcK5IEpvnWutaUIuiSAc1QMESWYgHxIjVziFj0iQxZWntgzvH+t4cIjBL5hbivNa5Vh2iO87dsDZlsgSMXPonuf7HSz1SKAQA40IclWpUihiF7i9+T9+JkKbp5cuXf/jhBy/KGprPDPFzwGPch0EQnDhx4r333nvzzTfHxsb+TgUrRXn+hh3Te/n7+7Lk+++/3+l0lFIXL17sdDqPK6xfJHyja+CFXnUtA7gJkFYZDxESoXNYFKLb7SUa/ROpYi9Q3/OIqc+eZBrcGr531QJwQjjEqhsnAerAIcOo1nPMlsEyWGAHTNVsHgQBqBAUoEYIADWif5H7t35C9EKCG/35LVwxUIjQGJFnsrOOgJ5L6E+lXvbCTOxzJ/ZqOf/HDO7rAkAgkBBOyqqthAA1kJq5ATAVsAG2/k8AGGyWes8gheBlDwGiAvCz/aq0lYQ0gJ0+gwb6fSMkg86KohAbG6ISVKLoVWR78odezk0DlMjNYixACWAYjgE6Ka0U2P/LNMAIcMwwroMS2DA7Bgdsq8o/gECQgArRe2bVEFSvtIBV8IzoEAFgBSCpagnMaC04J8pSpInwVQLh4+9VS5h5cPNsdmoHVs+rYkLoLX5lBC0AIoCAuaX5OLNh8ERTC0z92UIIIBGV3zz9nVOVFlx/fZwUDOiP1T0neQ0xxJOIMAxPnTr11ltvvfPOOydPngzD8E7GV7o0HuDNbFf+sAciTk5Ofvjhh61W6/z5899+++2dO3eGdKeHAbcO4qrqwynAwna5sb+pOTfowzL484HW2s5PWwwQADxH9BfrOlLsxDhAQPQTaqqvKtTBr80rDlSFGeCatWvM1wCWH/zdDMxABNZin6K4Y/y7PCoywDjzinPfeJbB9nd6RQT2WpWbyXH/3wf7yg9cwdklcrcZtom4GYirQ+XAix8CHyf6i3N5vyL6sOAHF78KHh+Y6rp18QHgrilz5uXtV+7TODeD36Y43X3x/eEaMi04akgSOyz+oXYOAGbW3no6BmcN8RRCStloNE6dOvX222+/++67L7zwQhRFiPj7xXI0wH+Y1pfW7b4Id0KImZmZDz744MUXX/zss88++eST27dv79/e/SkCAjHtaFBeFQMfCr+Sj76eGdGfy/Kf7q7qH0d+XTLcda4AKHZ7Vz/5fPT4S+f+rbvxH+mP1d1fJ1oj2iN7Ouji50T/lafflMUBxqLtB45hxdly9/lc1djdRww/I/pjUSwY81g8s7aDANbcUNo3xC8KntwgpWw2m6+99tq5c+fOnj37zDPP1Go1/4a/f1YHAscDnIv24jdVEEKMjo76Ceqvv/76pUuXLly48NVXX125cuUpme26HyBgkReV45V3VP+xm9YEkDH/HIiCB4Nhvuvc3SdzFzmADlHnyRSIE0BClDyZwQ8xxE8PRBwfH3/55ZdfffXV+fn5M2fOzM3NtdttNWDpMxP1alKx3Go2tCd8OyfP89XV1eXl5atXr966dcsTsYaJLAAsLy8vXFkYGx377W//UUoFwIuLiwsL3x/e8GiIIYYYYoi/FarpBc1mc3Z2dnZ2dnJystlsSrlFn+81tUmSeEHCo52vFapZY865vYZJPUW4ePHip59+uryy/M+/+5coCmu1mtZabCV2DjHEEEMM8WShPzFJ+Fs6DhJRt6HnUun20ufs8st8GVopVdWdhzh58uQrr7zSXGgePToZx4eZVDbEEEMMMcQTiYovecD8dYghhhhiiCGGeBicc38Fa+bY93WIQyQAAAAASUVORK5CYII=;" parent="1" vertex="1">
          <mxGeometry x="690" y="100" width="710.3" height="441.54" as="geometry" />
        </mxCell>
        <mxCell id="lqHWETS4gBYEQFEt8YZ1-2" value="" style="endArrow=none;html=1;rounded=0;strokeWidth=12;" parent="1" edge="1">
          <mxGeometry width="50" height="50" relative="1" as="geometry">
            <mxPoint x="804" y="921.8888346354166" as="sourcePoint" />
            <mxPoint x="844" y="523" as="targetPoint" />
          </mxGeometry>
        </mxCell>
        <mxCell id="lqHWETS4gBYEQFEt8YZ1-21" value="0000N -&amp;nbsp;44FLN" style="edgeLabel;html=1;align=center;verticalAlign=middle;resizable=0;points=[];rotation=-84;" parent="lqHWETS4gBYEQFEt8YZ1-2" vertex="1" connectable="0">
          <mxGeometry x="-0.022" y="4" relative="1" as="geometry">
            <mxPoint x="4" y="-9" as="offset" />
          </mxGeometry>
        </mxCell>
        <mxCell id="lqHWETS4gBYEQFEt8YZ1-3" value="" style="endArrow=none;html=1;rounded=0;strokeWidth=12;strokeColor=#ad0505;" parent="1" edge="1">
          <mxGeometry width="50" height="50" relative="1" as="geometry">
            <mxPoint x="840" y="918.8888346354166" as="sourcePoint" />
            <mxPoint x="880" y="520" as="targetPoint" />
          </mxGeometry>
        </mxCell>
        <mxCell id="lqHWETS4gBYEQFEt8YZ1-22" value="0000P -&amp;nbsp;44FLP" style="edgeLabel;html=1;align=center;verticalAlign=middle;resizable=0;points=[];rotation=-84;" parent="lqHWETS4gBYEQFEt8YZ1-3" vertex="1" connectable="0">
          <mxGeometry x="-0.0795" y="-1" relative="1" as="geometry">
            <mxPoint x="-2" y="-2" as="offset" />
          </mxGeometry>
        </mxCell>
        <mxCell id="lqHWETS4gBYEQFEt8YZ1-4" value="" style="endArrow=none;html=1;rounded=0;strokeWidth=12;strokeColor=#ad0505;" parent="1" edge="1">
          <mxGeometry width="50" height="50" relative="1" as="geometry">
            <mxPoint x="843" y="117.88883463541663" as="sourcePoint" />
            <mxPoint x="883" y="-281" as="targetPoint" />
          </mxGeometry>
        </mxCell>
        <mxCell id="lqHWETS4gBYEQFEt8YZ1-9" value="0015P - 44FRP" style="edgeLabel;html=1;align=center;verticalAlign=middle;resizable=0;points=[];rotation=-85;" parent="lqHWETS4gBYEQFEt8YZ1-4" vertex="1" connectable="0">
          <mxGeometry x="-0.2688" y="-2" relative="1" as="geometry">
            <mxPoint x="-2" y="-4" as="offset" />
          </mxGeometry>
        </mxCell>
        <mxCell id="lqHWETS4gBYEQFEt8YZ1-5" value="" style="endArrow=none;html=1;rounded=0;strokeWidth=12;strokeColor=#ad0505;" parent="1" edge="1">
          <mxGeometry width="50" height="50" relative="1" as="geometry">
            <mxPoint x="1059" y="115.88883463541663" as="sourcePoint" />
            <mxPoint x="1099" y="-283" as="targetPoint" />
          </mxGeometry>
        </mxCell>
        <mxCell id="lqHWETS4gBYEQFEt8YZ1-33" value="0012P - 55RRP" style="edgeLabel;html=1;align=center;verticalAlign=middle;resizable=0;points=[];rotation=-84.1;" parent="lqHWETS4gBYEQFEt8YZ1-5" vertex="1" connectable="0">
          <mxGeometry x="-0.2687" y="-1" relative="1" as="geometry">
            <mxPoint x="-1" y="-6" as="offset" />
          </mxGeometry>
        </mxCell>
        <mxCell id="lqHWETS4gBYEQFEt8YZ1-6" value="" style="endArrow=none;html=1;rounded=0;strokeWidth=12;strokeColor=#ad0505;" parent="1" edge="1">
          <mxGeometry width="50" height="50" relative="1" as="geometry">
            <mxPoint x="983" y="919.8888346354166" as="sourcePoint" />
            <mxPoint x="1023" y="521" as="targetPoint" />
          </mxGeometry>
        </mxCell>
        <mxCell id="lqHWETS4gBYEQFEt8YZ1-26" value="0002P - 44RLP" style="edgeLabel;html=1;align=center;verticalAlign=middle;resizable=0;points=[];rotation=-83.9;" parent="lqHWETS4gBYEQFEt8YZ1-6" vertex="1" connectable="0">
          <mxGeometry x="0.0257" y="2" relative="1" as="geometry">
            <mxPoint x="1" y="-7" as="offset" />
          </mxGeometry>
        </mxCell>
        <mxCell id="lqHWETS4gBYEQFEt8YZ1-7" value="" style="endArrow=none;html=1;rounded=0;strokeWidth=12;strokeColor=#ad0505;" parent="1" edge="1">
          <mxGeometry width="50" height="50" relative="1" as="geometry">
            <mxPoint x="910" y="918.8888346354166" as="sourcePoint" />
            <mxPoint x="950" y="520" as="targetPoint" />
          </mxGeometry>
        </mxCell>
        <mxCell id="lqHWETS4gBYEQFEt8YZ1-24" value="0001P -&amp;nbsp;55FLP" style="edgeLabel;html=1;align=center;verticalAlign=middle;resizable=0;points=[];rotation=-84;" parent="lqHWETS4gBYEQFEt8YZ1-7" vertex="1" connectable="0">
          <mxGeometry x="0.1812" y="-2" relative="1" as="geometry">
            <mxPoint x="-1" y="-6" as="offset" />
          </mxGeometry>
        </mxCell>
        <mxCell id="lqHWETS4gBYEQFEt8YZ1-8" value="" style="endArrow=none;html=1;rounded=0;strokeWidth=12;strokeColor=#ad0505;" parent="1" edge="1">
          <mxGeometry width="50" height="50" relative="1" as="geometry">
            <mxPoint x="1054" y="919.8888346354166" as="sourcePoint" />
            <mxPoint x="1094" y="521" as="targetPoint" />
          </mxGeometry>
        </mxCell>
        <mxCell id="lqHWETS4gBYEQFEt8YZ1-28" value="0003P -&amp;nbsp;55FLP" style="edgeLabel;html=1;align=center;verticalAlign=middle;resizable=0;points=[];rotation=-85;" parent="lqHWETS4gBYEQFEt8YZ1-8" vertex="1" connectable="0">
          <mxGeometry x="-0.0402" relative="1" as="geometry">
            <mxPoint as="offset" />
          </mxGeometry>
        </mxCell>
        <mxCell id="lqHWETS4gBYEQFEt8YZ1-10" value="" style="endArrow=none;html=1;rounded=0;strokeWidth=12;strokeColor=#ad0505;" parent="1" edge="1">
          <mxGeometry width="50" height="50" relative="1" as="geometry">
            <mxPoint x="915" y="117.88883463541663" as="sourcePoint" />
            <mxPoint x="955" y="-281" as="targetPoint" />
          </mxGeometry>
        </mxCell>
        <mxCell id="lqHWETS4gBYEQFEt8YZ1-11" value="0014P -&amp;nbsp;55FRP" style="edgeLabel;html=1;align=center;verticalAlign=middle;resizable=0;points=[];rotation=-84;" parent="lqHWETS4gBYEQFEt8YZ1-10" vertex="1" connectable="0">
          <mxGeometry x="-0.2688" y="-2" relative="1" as="geometry">
            <mxPoint x="-2" y="-7" as="offset" />
          </mxGeometry>
        </mxCell>
        <mxCell id="lqHWETS4gBYEQFEt8YZ1-12" value="" style="endArrow=none;html=1;rounded=0;strokeWidth=12;strokeColor=#ad0505;" parent="1" edge="1">
          <mxGeometry width="50" height="50" relative="1" as="geometry">
            <mxPoint x="986" y="118.88883463541663" as="sourcePoint" />
            <mxPoint x="1026" y="-280" as="targetPoint" />
          </mxGeometry>
        </mxCell>
        <mxCell id="lqHWETS4gBYEQFEt8YZ1-13" value="0013P - 44RRP" style="edgeLabel;html=1;align=center;verticalAlign=middle;resizable=0;points=[];rotation=-84.2;" parent="lqHWETS4gBYEQFEt8YZ1-12" vertex="1" connectable="0">
          <mxGeometry x="-0.2688" y="-2" relative="1" as="geometry">
            <mxPoint x="-3" y="-5" as="offset" />
          </mxGeometry>
        </mxCell>
        <mxCell id="lqHWETS4gBYEQFEt8YZ1-14" value="" style="endArrow=none;html=1;rounded=0;strokeWidth=12;" parent="1" edge="1">
          <mxGeometry width="50" height="50" relative="1" as="geometry">
            <mxPoint x="946" y="920.8888346354166" as="sourcePoint" />
            <mxPoint x="986" y="522" as="targetPoint" />
          </mxGeometry>
        </mxCell>
        <mxCell id="lqHWETS4gBYEQFEt8YZ1-25" value="0002N - 44RLN" style="edgeLabel;html=1;align=center;verticalAlign=middle;resizable=0;points=[];rotation=-85;" parent="lqHWETS4gBYEQFEt8YZ1-14" vertex="1" connectable="0">
          <mxGeometry x="-0.0865" y="-1" relative="1" as="geometry">
            <mxPoint x="-1" y="-6" as="offset" />
          </mxGeometry>
        </mxCell>
        <mxCell id="lqHWETS4gBYEQFEt8YZ1-15" value="" style="endArrow=none;html=1;rounded=0;strokeWidth=12;" parent="1" edge="1">
          <mxGeometry width="50" height="50" relative="1" as="geometry">
            <mxPoint x="1020" y="918.8888346354166" as="sourcePoint" />
            <mxPoint x="1060" y="520" as="targetPoint" />
          </mxGeometry>
        </mxCell>
        <mxCell id="lqHWETS4gBYEQFEt8YZ1-27" value="0003N -&amp;nbsp;55FLN" style="edgeLabel;html=1;align=center;verticalAlign=middle;resizable=0;points=[];rotation=-83.4;" parent="lqHWETS4gBYEQFEt8YZ1-15" vertex="1" connectable="0">
          <mxGeometry x="-0.2139" relative="1" as="geometry">
            <mxPoint x="2" y="-28" as="offset" />
          </mxGeometry>
        </mxCell>
        <mxCell id="lqHWETS4gBYEQFEt8YZ1-16" value="" style="endArrow=none;html=1;rounded=0;strokeWidth=12;" parent="1" edge="1">
          <mxGeometry width="50" height="50" relative="1" as="geometry">
            <mxPoint x="877" y="920.8888346354166" as="sourcePoint" />
            <mxPoint x="917" y="522" as="targetPoint" />
          </mxGeometry>
        </mxCell>
        <mxCell id="lqHWETS4gBYEQFEt8YZ1-23" value="0001N -&amp;nbsp;55FLN" style="edgeLabel;html=1;align=center;verticalAlign=middle;resizable=0;points=[];rotation=-83;" parent="lqHWETS4gBYEQFEt8YZ1-16" vertex="1" connectable="0">
          <mxGeometry x="0.0528" y="1" relative="1" as="geometry">
            <mxPoint as="offset" />
          </mxGeometry>
        </mxCell>
        <mxCell id="lqHWETS4gBYEQFEt8YZ1-17" value="" style="endArrow=none;html=1;rounded=0;strokeWidth=12;" parent="1" edge="1">
          <mxGeometry width="50" height="50" relative="1" as="geometry">
            <mxPoint x="1025.15" y="118.88883463541663" as="sourcePoint" />
            <mxPoint x="1065.15" y="-280" as="targetPoint" />
          </mxGeometry>
        </mxCell>
        <mxCell id="lqHWETS4gBYEQFEt8YZ1-31" value="0013N - 44RRN" style="edgeLabel;html=1;align=center;verticalAlign=middle;resizable=0;points=[];rotation=-83.4;" parent="lqHWETS4gBYEQFEt8YZ1-17" vertex="1" connectable="0">
          <mxGeometry x="-0.0819" relative="1" as="geometry">
            <mxPoint x="-2" y="11" as="offset" />
          </mxGeometry>
        </mxCell>
        <mxCell id="lqHWETS4gBYEQFEt8YZ1-18" value="" style="endArrow=none;html=1;rounded=0;strokeWidth=12;" parent="1" edge="1">
          <mxGeometry width="50" height="50" relative="1" as="geometry">
            <mxPoint x="880" y="118.88883463541663" as="sourcePoint" />
            <mxPoint x="920" y="-280" as="targetPoint" />
          </mxGeometry>
        </mxCell>
        <mxCell id="lqHWETS4gBYEQFEt8YZ1-29" value="0015N - 44FRN" style="edgeLabel;html=1;align=center;verticalAlign=middle;resizable=0;points=[];rotation=-84.4;" parent="lqHWETS4gBYEQFEt8YZ1-18" vertex="1" connectable="0">
          <mxGeometry x="-0.36" y="2" relative="1" as="geometry">
            <mxPoint x="2" y="1" as="offset" />
          </mxGeometry>
        </mxCell>
        <mxCell id="lqHWETS4gBYEQFEt8YZ1-19" value="" style="endArrow=none;html=1;rounded=0;strokeWidth=12;" parent="1" edge="1">
          <mxGeometry width="50" height="50" relative="1" as="geometry">
            <mxPoint x="950" y="118.88883463541663" as="sourcePoint" />
            <mxPoint x="990" y="-280" as="targetPoint" />
          </mxGeometry>
        </mxCell>
        <mxCell id="lqHWETS4gBYEQFEt8YZ1-30" value="0014N -&amp;nbsp;55FRN&amp;nbsp;" style="edgeLabel;html=1;align=center;verticalAlign=middle;resizable=0;points=[];rotation=-84;" parent="lqHWETS4gBYEQFEt8YZ1-19" vertex="1" connectable="0">
          <mxGeometry x="-0.447" y="2" relative="1" as="geometry">
            <mxPoint x="2" y="-2" as="offset" />
          </mxGeometry>
        </mxCell>
        <mxCell id="lqHWETS4gBYEQFEt8YZ1-20" value="" style="endArrow=none;html=1;rounded=0;strokeWidth=12;" parent="1" edge="1">
          <mxGeometry width="50" height="50" relative="1" as="geometry">
            <mxPoint x="1095" y="118.88883463541663" as="sourcePoint" />
            <mxPoint x="1135" y="-280" as="targetPoint" />
          </mxGeometry>
        </mxCell>
        <mxCell id="lqHWETS4gBYEQFEt8YZ1-32" value="0012N - 55RRN" style="edgeLabel;html=1;align=center;verticalAlign=middle;resizable=0;points=[];rotation=-85.1;" parent="lqHWETS4gBYEQFEt8YZ1-20" vertex="1" connectable="0">
          <mxGeometry x="-0.0817" relative="1" as="geometry">
            <mxPoint y="-6" as="offset" />
          </mxGeometry>
        </mxCell>
        <mxCell id="ueenu7DNCqVZEMPTnRUm-1" value="" style="endArrow=none;html=1;rounded=0;strokeWidth=10;" parent="1" edge="1">
          <mxGeometry width="50" height="50" relative="1" as="geometry">
            <mxPoint x="1099" y="913.8888346354166" as="sourcePoint" />
            <mxPoint x="1139" y="515" as="targetPoint" />
          </mxGeometry>
        </mxCell>
        <mxCell id="ueenu7DNCqVZEMPTnRUm-2" value="0004N" style="edgeLabel;html=1;align=center;verticalAlign=middle;resizable=0;points=[];" parent="ueenu7DNCqVZEMPTnRUm-1" vertex="1" connectable="0">
          <mxGeometry x="-0.022" y="4" relative="1" as="geometry">
            <mxPoint x="-16" y="117" as="offset" />
          </mxGeometry>
        </mxCell>
        <mxCell id="ueenu7DNCqVZEMPTnRUm-3" value="" style="endArrow=none;html=1;rounded=0;strokeWidth=10;" parent="1" edge="1">
          <mxGeometry width="50" height="50" relative="1" as="geometry">
            <mxPoint x="1153" y="914.8888346354166" as="sourcePoint" />
            <mxPoint x="1193" y="516" as="targetPoint" />
          </mxGeometry>
        </mxCell>
        <mxCell id="ueenu7DNCqVZEMPTnRUm-4" value="0005N" style="edgeLabel;html=1;align=center;verticalAlign=middle;resizable=0;points=[];" parent="ueenu7DNCqVZEMPTnRUm-3" vertex="1" connectable="0">
          <mxGeometry x="-0.022" y="4" relative="1" as="geometry">
            <mxPoint x="14" y="-123" as="offset" />
          </mxGeometry>
        </mxCell>
        <mxCell id="ueenu7DNCqVZEMPTnRUm-5" value="" style="endArrow=none;html=1;rounded=0;strokeWidth=10;" parent="1" edge="1">
          <mxGeometry width="50" height="50" relative="1" as="geometry">
            <mxPoint x="1203" y="914.8888346354166" as="sourcePoint" />
            <mxPoint x="1243" y="516" as="targetPoint" />
          </mxGeometry>
        </mxCell>
        <mxCell id="ueenu7DNCqVZEMPTnRUm-6" value="0006N" style="edgeLabel;html=1;align=center;verticalAlign=middle;resizable=0;points=[];" parent="ueenu7DNCqVZEMPTnRUm-5" vertex="1" connectable="0">
          <mxGeometry x="-0.022" y="4" relative="1" as="geometry">
            <mxPoint as="offset" />
          </mxGeometry>
        </mxCell>
        <mxCell id="ueenu7DNCqVZEMPTnRUm-9" value="" style="endArrow=none;html=1;rounded=0;strokeWidth=10;" parent="1" edge="1">
          <mxGeometry width="50" height="50" relative="1" as="geometry">
            <mxPoint x="1164" y="124.88883463541663" as="sourcePoint" />
            <mxPoint x="1204" y="-274" as="targetPoint" />
          </mxGeometry>
        </mxCell>
        <mxCell id="ueenu7DNCqVZEMPTnRUm-10" value="0011N" style="edgeLabel;html=1;align=center;verticalAlign=middle;resizable=0;points=[];" parent="ueenu7DNCqVZEMPTnRUm-9" vertex="1" connectable="0">
          <mxGeometry x="-0.022" y="4" relative="1" as="geometry">
            <mxPoint as="offset" />
          </mxGeometry>
        </mxCell>
        <mxCell id="ueenu7DNCqVZEMPTnRUm-11" value="" style="endArrow=none;html=1;rounded=0;strokeWidth=10;" parent="1" edge="1">
          <mxGeometry width="50" height="50" relative="1" as="geometry">
            <mxPoint x="1218" y="124.88883463541663" as="sourcePoint" />
            <mxPoint x="1258" y="-274" as="targetPoint" />
          </mxGeometry>
        </mxCell>
        <mxCell id="ueenu7DNCqVZEMPTnRUm-12" value="0010N" style="edgeLabel;html=1;align=center;verticalAlign=middle;resizable=0;points=[];" parent="ueenu7DNCqVZEMPTnRUm-11" vertex="1" connectable="0">
          <mxGeometry x="-0.022" y="4" relative="1" as="geometry">
            <mxPoint as="offset" />
          </mxGeometry>
        </mxCell>
        <mxCell id="ueenu7DNCqVZEMPTnRUm-13" value="" style="endArrow=none;html=1;rounded=0;strokeWidth=10;" parent="1" edge="1">
          <mxGeometry width="50" height="50" relative="1" as="geometry">
            <mxPoint x="1268" y="124.88883463541663" as="sourcePoint" />
            <mxPoint x="1308" y="-274" as="targetPoint" />
          </mxGeometry>
        </mxCell>
        <mxCell id="ueenu7DNCqVZEMPTnRUm-14" value="0009N" style="edgeLabel;html=1;align=center;verticalAlign=middle;resizable=0;points=[];" parent="ueenu7DNCqVZEMPTnRUm-13" vertex="1" connectable="0">
          <mxGeometry x="-0.022" y="4" relative="1" as="geometry">
            <mxPoint as="offset" />
          </mxGeometry>
        </mxCell>
        <mxCell id="ueenu7DNCqVZEMPTnRUm-15" value="" style="endArrow=none;html=1;rounded=0;strokeWidth=10;strokeColor=#ad0505;" parent="1" edge="1">
          <mxGeometry width="50" height="50" relative="1" as="geometry">
            <mxPoint x="1123" y="914.8888346354166" as="sourcePoint" />
            <mxPoint x="1163" y="516" as="targetPoint" />
          </mxGeometry>
        </mxCell>
        <mxCell id="ueenu7DNCqVZEMPTnRUm-16" value="0004P" style="edgeLabel;html=1;align=center;verticalAlign=middle;resizable=0;points=[];" parent="ueenu7DNCqVZEMPTnRUm-15" vertex="1" connectable="0">
          <mxGeometry x="-0.0402" relative="1" as="geometry">
            <mxPoint y="52" as="offset" />
          </mxGeometry>
        </mxCell>
        <mxCell id="ueenu7DNCqVZEMPTnRUm-19" value="" style="endArrow=none;html=1;rounded=0;strokeWidth=10;strokeColor=#ad0505;" parent="1" edge="1">
          <mxGeometry width="50" height="50" relative="1" as="geometry">
            <mxPoint x="1177" y="914.8888346354166" as="sourcePoint" />
            <mxPoint x="1217" y="516" as="targetPoint" />
          </mxGeometry>
        </mxCell>
        <mxCell id="ueenu7DNCqVZEMPTnRUm-20" value="0005P" style="edgeLabel;html=1;align=center;verticalAlign=middle;resizable=0;points=[];" parent="ueenu7DNCqVZEMPTnRUm-19" vertex="1" connectable="0">
          <mxGeometry x="-0.0402" relative="1" as="geometry">
            <mxPoint x="-9" y="82" as="offset" />
          </mxGeometry>
        </mxCell>
        <mxCell id="ueenu7DNCqVZEMPTnRUm-21" value="" style="endArrow=none;html=1;rounded=0;strokeWidth=10;strokeColor=#ad0505;" parent="1" edge="1">
          <mxGeometry width="50" height="50" relative="1" as="geometry">
            <mxPoint x="1229" y="914.8888346354166" as="sourcePoint" />
            <mxPoint x="1269" y="516" as="targetPoint" />
          </mxGeometry>
        </mxCell>
        <mxCell id="ueenu7DNCqVZEMPTnRUm-22" value="0006P" style="edgeLabel;html=1;align=center;verticalAlign=middle;resizable=0;points=[];" parent="ueenu7DNCqVZEMPTnRUm-21" vertex="1" connectable="0">
          <mxGeometry x="-0.0402" relative="1" as="geometry">
            <mxPoint x="11" y="-78" as="offset" />
          </mxGeometry>
        </mxCell>
        <mxCell id="ueenu7DNCqVZEMPTnRUm-23" value="" style="endArrow=none;html=1;rounded=0;strokeWidth=10;strokeColor=#ad0505;" parent="1" edge="1">
          <mxGeometry width="50" height="50" relative="1" as="geometry">
            <mxPoint x="1138" y="124.88883463541663" as="sourcePoint" />
            <mxPoint x="1178" y="-274" as="targetPoint" />
          </mxGeometry>
        </mxCell>
        <mxCell id="ueenu7DNCqVZEMPTnRUm-24" value="0011P" style="edgeLabel;html=1;align=center;verticalAlign=middle;resizable=0;points=[];" parent="ueenu7DNCqVZEMPTnRUm-23" vertex="1" connectable="0">
          <mxGeometry x="-0.2687" y="-1" relative="1" as="geometry">
            <mxPoint as="offset" />
          </mxGeometry>
        </mxCell>
        <mxCell id="ueenu7DNCqVZEMPTnRUm-25" value="" style="endArrow=none;html=1;rounded=0;strokeWidth=10;strokeColor=#ad0505;" parent="1" edge="1">
          <mxGeometry width="50" height="50" relative="1" as="geometry">
            <mxPoint x="1190" y="124.88883463541663" as="sourcePoint" />
            <mxPoint x="1230" y="-274" as="targetPoint" />
          </mxGeometry>
        </mxCell>
        <mxCell id="ueenu7DNCqVZEMPTnRUm-26" value="0010P" style="edgeLabel;html=1;align=center;verticalAlign=middle;resizable=0;points=[];" parent="ueenu7DNCqVZEMPTnRUm-25" vertex="1" connectable="0">
          <mxGeometry x="-0.2687" y="-1" relative="1" as="geometry">
            <mxPoint as="offset" />
          </mxGeometry>
        </mxCell>
        <mxCell id="ueenu7DNCqVZEMPTnRUm-27" value="" style="endArrow=none;html=1;rounded=0;strokeWidth=10;strokeColor=#ad0505;" parent="1" edge="1">
          <mxGeometry width="50" height="50" relative="1" as="geometry">
            <mxPoint x="1242" y="124.88883463541663" as="sourcePoint" />
            <mxPoint x="1282" y="-274" as="targetPoint" />
          </mxGeometry>
        </mxCell>
        <mxCell id="ueenu7DNCqVZEMPTnRUm-28" value="0009P" style="edgeLabel;html=1;align=center;verticalAlign=middle;resizable=0;points=[];" parent="ueenu7DNCqVZEMPTnRUm-27" vertex="1" connectable="0">
          <mxGeometry x="-0.2687" y="-1" relative="1" as="geometry">
            <mxPoint as="offset" />
          </mxGeometry>
        </mxCell>
        <mxCell id="Q_kUuOPXGW2po63uR_FG-5" value="" style="endArrow=none;html=1;rounded=0;endSize=7;startSize=7;strokeWidth=8;strokeColor=#3fe01f;" parent="1" edge="1">
          <mxGeometry width="50" height="50" relative="1" as="geometry">
            <mxPoint x="765" y="683" as="sourcePoint" />
            <mxPoint x="765" y="473" as="targetPoint" />
          </mxGeometry>
        </mxCell>
        <mxCell id="Q_kUuOPXGW2po63uR_FG-9" value="11C2G - 00C3" style="edgeLabel;html=1;align=center;verticalAlign=middle;resizable=0;points=[];rotation=-90;" parent="Q_kUuOPXGW2po63uR_FG-5" vertex="1" connectable="0">
          <mxGeometry x="0.1198" y="1" relative="1" as="geometry">
            <mxPoint y="47" as="offset" />
          </mxGeometry>
        </mxCell>
        <mxCell id="Q_kUuOPXGW2po63uR_FG-6" value="" style="endArrow=none;html=1;rounded=0;endSize=7;startSize=7;strokeWidth=8;strokeColor=#E0CC16;" parent="1" edge="1">
          <mxGeometry width="50" height="50" relative="1" as="geometry">
            <mxPoint x="779" y="684" as="sourcePoint" />
            <mxPoint x="779" y="474" as="targetPoint" />
          </mxGeometry>
        </mxCell>
        <mxCell id="Q_kUuOPXGW2po63uR_FG-8" value="11C2Y - 00C4" style="edgeLabel;html=1;align=center;verticalAlign=middle;resizable=0;points=[];rotation=-90;" parent="Q_kUuOPXGW2po63uR_FG-6" vertex="1" connectable="0">
          <mxGeometry x="0.1516" y="1" relative="1" as="geometry">
            <mxPoint y="-9" as="offset" />
          </mxGeometry>
        </mxCell>
        <mxCell id="jfFYDTzF8_VUFE8lG0a3-2" value="" style="endArrow=none;html=1;rounded=0;strokeWidth=35;" parent="1" edge="1">
          <mxGeometry width="50" height="50" relative="1" as="geometry">
            <mxPoint x="490" y="190" as="sourcePoint" />
            <mxPoint x="770" y="190" as="targetPoint" />
          </mxGeometry>
        </mxCell>
        <mxCell id="jfFYDTzF8_VUFE8lG0a3-4" value="00BaN - SWN" style="edgeLabel;html=1;align=center;verticalAlign=middle;resizable=0;points=[];" parent="jfFYDTzF8_VUFE8lG0a3-2" vertex="1" connectable="0">
          <mxGeometry x="-0.2226" relative="1" as="geometry">
            <mxPoint as="offset" />
          </mxGeometry>
        </mxCell>
        <mxCell id="jfFYDTzF8_VUFE8lG0a3-3" value="" style="endArrow=none;html=1;rounded=0;strokeWidth=35;strokeColor=#dc0909;" parent="1" edge="1">
          <mxGeometry width="50" height="50" relative="1" as="geometry">
            <mxPoint x="491" y="276" as="sourcePoint" />
            <mxPoint x="771" y="276" as="targetPoint" />
          </mxGeometry>
        </mxCell>
        <mxCell id="jfFYDTzF8_VUFE8lG0a3-5" value="00BaP - SWP" style="edgeLabel;html=1;align=center;verticalAlign=middle;resizable=0;points=[];" parent="jfFYDTzF8_VUFE8lG0a3-3" vertex="1" connectable="0">
          <mxGeometry x="-0.2566" y="1" relative="1" as="geometry">
            <mxPoint as="offset" />
          </mxGeometry>
        </mxCell>
        <mxCell id="jfFYDTzF8_VUFE8lG0a3-6" value="" style="endArrow=none;html=1;rounded=0;strokeWidth=8;movable=1;resizable=1;rotatable=1;deletable=1;editable=1;locked=0;connectable=1;strokeColor=default;" parent="1" edge="1">
          <mxGeometry width="50" height="50" relative="1" as="geometry">
            <mxPoint x="1590" y="277" as="sourcePoint" />
            <mxPoint x="1371" y="278.00238095238075" as="targetPoint" />
          </mxGeometry>
        </mxCell>
        <mxCell id="jfFYDTzF8_VUFE8lG0a3-14" value="00VBN - 11INN" style="edgeLabel;html=1;align=center;verticalAlign=middle;resizable=0;points=[];" parent="jfFYDTzF8_VUFE8lG0a3-6" vertex="1" connectable="0">
          <mxGeometry x="0.4412" y="-2" relative="1" as="geometry">
            <mxPoint x="51" y="1" as="offset" />
          </mxGeometry>
        </mxCell>
        <mxCell id="jfFYDTzF8_VUFE8lG0a3-7" value="" style="endArrow=none;html=1;rounded=0;strokeWidth=8;" parent="1" edge="1">
          <mxGeometry width="50" height="50" relative="1" as="geometry">
            <mxPoint x="1370" y="350" as="sourcePoint" />
            <mxPoint x="1590" y="360" as="targetPoint" />
          </mxGeometry>
        </mxCell>
        <mxCell id="Y1Tz-zCa75Zx4ykGyfkl-1" value="00PC2N - ESPW&amp;nbsp;" style="edgeLabel;html=1;align=center;verticalAlign=middle;resizable=0;points=[];" parent="jfFYDTzF8_VUFE8lG0a3-7" vertex="1" connectable="0">
          <mxGeometry x="-0.5555" y="-2" relative="1" as="geometry">
            <mxPoint x="41" y="-2" as="offset" />
          </mxGeometry>
        </mxCell>
        <mxCell id="jfFYDTzF8_VUFE8lG0a3-8" value="" style="endArrow=none;html=1;rounded=0;strokeWidth=8;movable=1;resizable=1;rotatable=1;deletable=1;editable=1;locked=0;connectable=1;" parent="1" edge="1">
          <mxGeometry width="50" height="50" relative="1" as="geometry">
            <mxPoint x="1371" y="316" as="sourcePoint" />
            <mxPoint x="1600" y="320" as="targetPoint" />
          </mxGeometry>
        </mxCell>
        <mxCell id="HBWUHpMz9VWedL3-kLHH-1" value="00PC4N - VM12X" style="edgeLabel;html=1;align=center;verticalAlign=middle;resizable=0;points=[];" parent="jfFYDTzF8_VUFE8lG0a3-8" vertex="1" connectable="0">
          <mxGeometry x="-0.1986" y="1" relative="1" as="geometry">
            <mxPoint as="offset" />
          </mxGeometry>
        </mxCell>
        <mxCell id="jfFYDTzF8_VUFE8lG0a3-9" value="" style="endArrow=none;html=1;rounded=0;strokeWidth=8;strokeColor=#FF0000;" parent="1" edge="1">
          <mxGeometry width="50" height="50" relative="1" as="geometry">
            <mxPoint x="1370" y="296" as="sourcePoint" />
            <mxPoint x="1590" y="296" as="targetPoint" />
          </mxGeometry>
        </mxCell>
        <mxCell id="jfFYDTzF8_VUFE8lG0a3-15" value="00VBP - 11INP" style="edgeLabel;html=1;align=center;verticalAlign=middle;resizable=0;points=[];" parent="jfFYDTzF8_VUFE8lG0a3-9" vertex="1" connectable="0">
          <mxGeometry x="-0.569" y="-4" relative="1" as="geometry">
            <mxPoint x="48" y="-5" as="offset" />
          </mxGeometry>
        </mxCell>
        <mxCell id="jfFYDTzF8_VUFE8lG0a3-10" value="" style="endArrow=none;html=1;rounded=0;strokeWidth=8;strokeColor=#ff0000;" parent="1" edge="1">
          <mxGeometry width="50" height="50" relative="1" as="geometry">
            <mxPoint x="1372" y="334" as="sourcePoint" />
            <mxPoint x="1600" y="320" as="targetPoint" />
          </mxGeometry>
        </mxCell>
        <mxCell id="HBWUHpMz9VWedL3-kLHH-2" value="00PC3P -&amp;nbsp;VM12X" style="edgeLabel;html=1;align=center;verticalAlign=middle;resizable=0;points=[];" parent="jfFYDTzF8_VUFE8lG0a3-10" vertex="1" connectable="0">
          <mxGeometry x="-0.5018" relative="1" as="geometry">
            <mxPoint x="24" as="offset" />
          </mxGeometry>
        </mxCell>
        <mxCell id="jfFYDTzF8_VUFE8lG0a3-11" value="" style="endArrow=none;html=1;rounded=0;strokeWidth=8;strokeColor=#ff0000;" parent="1" edge="1">
          <mxGeometry width="50" height="50" relative="1" as="geometry">
            <mxPoint x="1371" y="367" as="sourcePoint" />
            <mxPoint x="1590" y="360" as="targetPoint" />
          </mxGeometry>
        </mxCell>
        <mxCell id="Y1Tz-zCa75Zx4ykGyfkl-2" value="00PC1P - ESPW" style="edgeLabel;html=1;align=center;verticalAlign=middle;resizable=0;points=[];" parent="jfFYDTzF8_VUFE8lG0a3-11" vertex="1" connectable="0">
          <mxGeometry x="-0.2799" y="-2" relative="1" as="geometry">
            <mxPoint x="44" y="-1" as="offset" />
          </mxGeometry>
        </mxCell>
      </root>
    </mxGraphModel>
  </diagram>
</mxfile>
